<svg width="24" height="24" viewBox="0 0 24 24" fill="none" xmlns="http://www.w3.org/2000/svg">
<g clip-path="url(#clip0_2717_8003)">
<path fill-rule="evenodd" clip-rule="evenodd" d="M17.553 16.106C17.772 15.9964 18.0236 15.971 18.2601 16.0346C18.4966 16.0982 18.7015 16.2464 18.836 16.451L18.894 16.553L20.894 20.553C20.9654 20.6956 21.0016 20.8533 20.9996 21.0128C20.9976 21.1723 20.9575 21.329 20.8827 21.4698C20.8078 21.6106 20.7003 21.7315 20.5692 21.8224C20.4381 21.9132 20.2872 21.9714 20.129 21.992L20 22H4.00002C3.84049 22.0001 3.68326 21.9619 3.54146 21.8888C3.39967 21.8157 3.27742 21.7098 3.18493 21.5798C3.09243 21.4498 3.03238 21.2996 3.00978 21.1417C2.98718 20.9837 3.00269 20.8227 3.05502 20.672L3.10502 20.552L5.10502 16.552C5.21711 16.3203 5.41424 16.1407 5.65537 16.0507C5.89651 15.9606 6.16307 15.967 6.39961 16.0686C6.63614 16.1701 6.82442 16.3589 6.92526 16.5957C7.0261 16.8325 7.03175 17.0991 6.94102 17.34L6.89402 17.447L5.61802 20H18.382L17.106 17.447C16.9876 17.2099 16.9682 16.9354 17.052 16.684C17.1358 16.4325 17.316 16.2246 17.553 16.106ZM12 2C13.8565 2 15.637 2.7375 16.9498 4.05025C18.2625 5.36301 19 7.14348 19 9C19 11.382 17.711 13.317 16.377 14.69C15.6401 15.4384 14.8301 16.1111 13.959 16.698L13.586 16.944L13.254 17.153C13.202 17.184 13.152 17.213 13.105 17.243L12.848 17.391C12.32 17.691 11.68 17.691 11.152 17.391L10.895 17.242L10.585 17.053C10.5278 17.017 10.4708 16.9807 10.414 16.944L10.041 16.698C9.16996 16.1111 8.35991 15.4384 7.62302 14.69C6.28902 13.317 5.00002 11.382 5.00002 9C5.00002 7.14348 5.73751 5.36301 7.05027 4.05025C8.36302 2.7375 10.1435 2 12 2ZM12 4C10.6739 4 9.40217 4.52678 8.46448 5.46447C7.5268 6.40215 7.00002 7.67392 7.00002 9C7.00002 10.636 7.89002 12.095 9.05702 13.296C9.75853 14.0055 10.5343 14.6375 11.371 15.181L11.711 15.398C11.816 15.463 11.913 15.521 12 15.572L12.29 15.398L12.629 15.181C13.4657 14.6375 14.2415 14.0055 14.943 13.296C16.11 12.096 17 10.636 17 9C17 7.67392 16.4732 6.40215 15.5356 5.46447C14.5979 4.52678 13.3261 4 12 4ZM12 6C12.7957 6 13.5587 6.31607 14.1213 6.87868C14.6839 7.44129 15 8.20435 15 9C15 9.79565 14.6839 10.5587 14.1213 11.1213C13.5587 11.6839 12.7957 12 12 12C11.2044 12 10.4413 11.6839 9.8787 11.1213C9.31609 10.5587 9.00002 9.79565 9.00002 9C9.00002 8.20435 9.31609 7.44129 9.8787 6.87868C10.4413 6.31607 11.2044 6 12 6ZM12 8C11.7348 8 11.4804 8.10536 11.2929 8.29289C11.1054 8.48043 11 8.73478 11 9C11 9.26522 11.1054 9.51957 11.2929 9.70711C11.4804 9.89464 11.7348 10 12 10C12.2652 10 12.5196 9.89464 12.7071 9.70711C12.8947 9.51957 13 9.26522 13 9C13 8.73478 12.8947 8.48043 12.7071 8.29289C12.5196 8.10536 12.2652 8 12 8Z" fill="#DF2334"/>
</g>
<defs>
<clipPath id="clip0_2717_8003">
<rect width="24" height="24" fill="white"/>
</clipPath>
</defs>
</svg>
