<svg width="16" height="16" viewBox="0 0 16 16" fill="none" xmlns="http://www.w3.org/2000/svg">
<g clip-path="url(#clip0_1051_7807)">
<path d="M8.00001 15.2992C7.81112 15.2992 7.6529 15.2354 7.52535 15.1079C7.39735 14.9799 7.33335 14.8214 7.33335 14.6326V13.9659C5.94446 13.8103 4.7529 13.2354 3.75868 12.2412C2.76401 11.2466 2.1889 10.0548 2.03335 8.66589H1.36668C1.17779 8.66589 1.01935 8.60189 0.891346 8.47389C0.76379 8.34633 0.700012 8.18811 0.700012 7.99922C0.700012 7.81033 0.76379 7.65189 0.891346 7.52389C1.01935 7.39633 1.17779 7.33255 1.36668 7.33255H2.03335C2.1889 5.94366 2.76401 4.75189 3.75868 3.75722C4.7529 2.763 5.94446 2.18811 7.33335 2.03255V1.36589C7.33335 1.177 7.39735 1.01855 7.52535 0.890552C7.6529 0.762997 7.81112 0.699219 8.00001 0.699219C8.1889 0.699219 8.34735 0.762997 8.47535 0.890552C8.6029 1.01855 8.66668 1.177 8.66668 1.36589V2.03255C10.0556 2.18811 11.2473 2.763 12.242 3.75722C13.2362 4.75189 13.8111 5.94366 13.9667 7.33255H14.6333C14.8222 7.33255 14.9807 7.39633 15.1087 7.52389C15.2362 7.65189 15.3 7.81033 15.3 7.99922C15.3 8.18811 15.2362 8.34633 15.1087 8.47389C14.9807 8.60189 14.8222 8.66589 14.6333 8.66589H13.9667C13.8111 10.0548 13.2362 11.2466 12.242 12.2412C11.2473 13.2354 10.0556 13.8103 8.66668 13.9659V14.6326C8.66668 14.8214 8.6029 14.9799 8.47535 15.1079C8.34735 15.2354 8.1889 15.2992 8.00001 15.2992ZM8.00001 12.6659C9.2889 12.6659 10.3889 12.2103 11.3 11.2992C12.2111 10.3881 12.6667 9.28811 12.6667 7.99922C12.6667 6.71033 12.2111 5.61033 11.3 4.69922C10.3889 3.78811 9.2889 3.33255 8.00001 3.33255C6.71112 3.33255 5.61112 3.78811 4.70001 4.69922C3.7889 5.61033 3.33335 6.71033 3.33335 7.99922C3.33335 9.28811 3.7889 10.3881 4.70001 11.2992C5.61112 12.2103 6.71112 12.6659 8.00001 12.6659ZM8.00001 10.6659C7.26668 10.6659 6.6389 10.4048 6.11668 9.88255C5.59446 9.36033 5.33335 8.73255 5.33335 7.99922C5.33335 7.26589 5.59446 6.63811 6.11668 6.11589C6.6389 5.59366 7.26668 5.33255 8.00001 5.33255C8.73335 5.33255 9.36112 5.59366 9.88335 6.11589C10.4056 6.63811 10.6667 7.26589 10.6667 7.99922C10.6667 8.73255 10.4056 9.36033 9.88335 9.88255C9.36112 10.4048 8.73335 10.6659 8.00001 10.6659Z" fill="#DF2334"/>
</g>
<defs>
<clipPath id="clip0_1051_7807">
<rect width="16" height="16" fill="white"/>
</clipPath>
</defs>
</svg>
