<svg width="12" height="13" viewBox="0 0 12 13" fill="none" xmlns="http://www.w3.org/2000/svg">
<path d="M1.17073 12.9941C0.84878 12.9941 0.573073 12.8795 0.34361 12.6504C0.114537 12.4216 0 12.1464 0 11.8248V3.63969C0 3.31814 0.114537 3.04276 0.34361 2.81358C0.573073 2.58479 0.84878 2.47039 1.17073 2.47039H6.39512L5.22439 3.63969H1.17073V11.8248H9.36585V7.7615L10.5366 6.59219V11.8248C10.5366 12.1464 10.422 12.4216 10.193 12.6504C9.96351 12.8795 9.6878 12.9941 9.36585 12.9941H1.17073ZM7.71219 2.80656L8.54634 3.62508L4.68293 7.48379V8.31692H5.50244L9.38049 4.44359L10.2146 5.26211L6.33659 9.13543C6.22927 9.24262 6.10498 9.32798 5.96371 9.39151C5.82205 9.45465 5.67317 9.48622 5.51707 9.48622H4.09756C3.93171 9.48622 3.79278 9.43029 3.68078 9.31843C3.56839 9.20617 3.51219 9.06722 3.51219 8.90157V7.48379C3.51219 7.32788 3.54146 7.17918 3.6 7.0377C3.65854 6.8966 3.74146 6.77246 3.84878 6.66527L7.71219 2.80656ZM10.2146 5.26211L7.71219 2.80656L9.17561 1.34493C9.40976 1.11107 9.69034 0.994141 10.0174 0.994141C10.344 0.994141 10.6195 1.11107 10.8439 1.34493L11.6634 2.17806C11.8878 2.40218 12 2.67502 12 2.99658C12 3.31814 11.8878 3.59097 11.6634 3.81509L10.2146 5.26211Z" fill="#111111"/>
</svg>
