<svg width="24" height="24" viewBox="0 0 24 24" fill="none" xmlns="http://www.w3.org/2000/svg">
<path d="M19.3333 11.334V14.6673C19.3333 17.4287 16.0693 20.6673 11.9999 20.6673C7.93059 20.6673 4.66659 17.4287 4.66659 14.6673V11.334H3.33325V14.6673C3.33325 18.1647 6.84525 22.0007 11.9999 22.0007C17.1546 22.0007 20.6666 18.1647 20.6666 14.6673V11.334H19.3333Z" fill="#D99E82"/>
<path d="M14.6666 21.3887C14.6666 21.5565 14.6335 21.7227 14.5693 21.8777C14.5051 22.0328 14.4109 22.1737 14.2923 22.2923C14.1736 22.411 14.0327 22.5052 13.8777 22.5694C13.7226 22.6336 13.5564 22.6667 13.3886 22.6667H10.6113C10.2723 22.6667 9.94724 22.532 9.70757 22.2923C9.4679 22.0527 9.33325 21.7276 9.33325 21.3887V21.278C9.33325 20.572 9.90525 20 10.6113 20H13.3886C14.0946 20 14.6666 20.572 14.6666 21.278V21.3887Z" fill="#C1694F"/>
<path d="M1.33325 11.3333C1.33325 9.492 5.74059 8 11.9999 8C18.2593 8 22.6666 9.492 22.6666 11.3333C22.6666 13.174 18.2593 15.3333 11.9999 15.3333C5.74059 15.3333 1.33325 13.174 1.33325 11.3333Z" fill="#EA596E"/>
<path d="M2 10.6673C2 6.00065 6.132 1.33398 12 1.33398C17.868 1.33398 22 6.00065 22 10.6673C22 11.334 17.868 13.334 12 13.334C6.132 13.334 2 11.334 2 10.6673Z" fill="#DD2E44"/>
<path d="M16.6667 12.6673C16.4899 12.6673 16.3203 12.597 16.1953 12.472C16.0703 12.347 16 12.1774 16 12.0006C16 6.84859 14.7134 2.91726 14.7007 2.87792C14.6447 2.71013 14.6577 2.52698 14.7368 2.36876C14.8159 2.21054 14.9546 2.09022 15.1224 2.03426C15.2902 1.9783 15.4733 1.99128 15.6315 2.07036C15.7898 2.14944 15.9101 2.28813 15.966 2.45593C16.0194 2.61593 17.2167 6.26259 17.326 11.2713C18.0854 11.1639 19.436 10.8699 21.0354 10.0706C21.1137 10.0314 21.1989 10.008 21.2863 10.0018C21.3736 9.99559 21.4613 10.0066 21.5444 10.0343C21.6275 10.062 21.7043 10.1057 21.7705 10.1631C21.8366 10.2205 21.8909 10.2903 21.93 10.3686C21.9692 10.4469 21.9926 10.5322 21.9988 10.6195C22.005 10.7069 21.994 10.7946 21.9663 10.8776C21.9387 10.9607 21.8949 11.0375 21.8375 11.1037C21.7802 11.1699 21.7104 11.2241 21.632 11.2633C18.856 12.6513 16.7547 12.6673 16.6667 12.6673ZM7.33337 12.6673C7.24537 12.6673 5.14404 12.6513 2.36871 11.2633C2.21055 11.1841 2.0903 11.0454 2.03442 10.8776C1.97853 10.7099 1.99158 10.5267 2.07071 10.3686C2.14983 10.2104 2.28854 10.0902 2.45632 10.0343C2.6241 9.97841 2.80722 9.99147 2.96537 10.0706C4.56471 10.8706 5.91537 11.1639 6.67537 11.2713C6.78471 6.26259 7.98137 2.61593 8.03471 2.45593C8.09239 2.29041 8.21293 2.15426 8.37025 2.07696C8.52756 1.99966 8.70899 1.98743 8.87526 2.04291C9.04153 2.0984 9.17926 2.21713 9.25864 2.37341C9.33801 2.52968 9.35265 2.71094 9.29937 2.87792C9.28604 2.91659 8.00004 6.84793 8.00004 12.0006C8.00004 12.1774 7.9298 12.347 7.80478 12.472C7.67975 12.597 7.51018 12.6673 7.33337 12.6673Z" fill="#A0041E"/>
<path d="M13.9999 8H12.6666V6.66667C12.6666 6.48986 12.5963 6.32029 12.4713 6.19526C12.3463 6.07024 12.1767 6 11.9999 6C11.8231 6 11.6535 6.07024 11.5285 6.19526C11.4035 6.32029 11.3333 6.48986 11.3333 6.66667V8H9.99992C9.82311 8 9.65354 8.07024 9.52851 8.19526C9.40349 8.32029 9.33325 8.48986 9.33325 8.66667C9.33325 8.84348 9.40349 9.01305 9.52851 9.13807C9.65354 9.2631 9.82311 9.33333 9.99992 9.33333H11.3333V10.6667C11.3333 10.8435 11.4035 11.013 11.5285 11.1381C11.6535 11.2631 11.8231 11.3333 11.9999 11.3333C12.1767 11.3333 12.3463 11.2631 12.4713 11.1381C12.5963 11.013 12.6666 10.8435 12.6666 10.6667V9.33333H13.9999C14.1767 9.33333 14.3463 9.2631 14.4713 9.13807C14.5963 9.01305 14.6666 8.84348 14.6666 8.66667C14.6666 8.48986 14.5963 8.32029 14.4713 8.19526C14.3463 8.07024 14.1767 8 13.9999 8Z" fill="white"/>
</svg>
