<svg width="360" height="333" viewBox="0 0 360 333" fill="none"
  xmlns="http://www.w3.org/2000/svg">
  <path d="M344.932 27.5169C340.309 25.0332 338.206 27.103 336.52 25.0332C334.835 22.9635 341.143 17.6731 328.535 12.358C328.535 12.358 327.684 0.908066 310.461 0.502393C293.239 0.0967191 297.853 11.9772 293.222 14.8417C288.591 17.7063 287.339 13.1859 282.717 16.067C278.094 18.9481 280.163 24.6524 276.408 25.472C272.654 26.2916 267.58 21.7961 262.957 24.6441C258.335 27.4921 258.335 29.9593 256.232 29.9593C254.129 29.9593 249.924 28.3035 247.404 29.9593C244.884 31.6151 241.938 33.6434 241.938 33.6434H348.294C348.294 33.6434 349.554 29.9675 344.932 27.5169Z" fill="#56BDE6"/>
  <g opacity="0.5">
    <path d="M344.932 27.5169C340.309 25.0332 338.206 27.103 336.52 25.0332C334.835 22.9635 341.143 17.6731 328.535 12.358C328.535 12.358 327.684 0.908066 310.461 0.502393C293.239 0.0967191 297.853 11.9772 293.222 14.8417C288.591 17.7063 287.339 13.1859 282.717 16.067C278.094 18.9481 280.163 24.6524 276.408 25.472C272.654 26.2916 267.58 21.7961 262.957 24.6441C258.335 27.4921 258.335 29.9593 256.232 29.9593C254.129 29.9593 249.924 28.3035 247.404 29.9593C244.884 31.6151 241.938 33.6434 241.938 33.6434H348.294C348.294 33.6434 349.554 29.9675 344.932 27.5169Z" fill="white"/>
  </g>
  <path d="M286.011 79.0458C283.176 77.5473 281.891 78.7974 280.903 77.5473C279.916 76.2971 283.738 73.0435 276.017 69.7898C276.017 69.7898 275.506 62.7857 264.95 62.5373C254.393 62.289 257.237 69.5414 254.402 71.2966C251.567 73.0517 250.8 70.2948 247.974 72.0417C245.148 73.7886 246.433 77.2989 244.118 77.7956C241.802 78.2924 238.712 75.5437 235.885 77.2989C233.059 79.054 233.05 80.5443 231.765 80.5443C230.479 80.5443 227.908 79.5508 226.367 80.5443C224.827 81.5378 223.022 82.7962 223.022 82.7962H288.063C288.063 82.7962 288.838 80.5443 286.011 79.0458Z" fill="#56BDE6"/>
  <g opacity="0.5">
    <path d="M286.011 79.0458C283.176 77.5473 281.891 78.7974 280.903 77.5473C279.916 76.2971 283.738 73.0435 276.017 69.7898C276.017 69.7898 275.506 62.7857 264.95 62.5373C254.393 62.289 257.237 69.5414 254.402 71.2966C251.567 73.0517 250.8 70.2948 247.974 72.0417C245.148 73.7886 246.433 77.2989 244.118 77.7956C241.802 78.2924 238.712 75.5437 235.885 77.2989C233.059 79.054 233.05 80.5443 231.765 80.5443C230.479 80.5443 227.908 79.5508 226.367 80.5443C224.827 81.5378 223.022 82.7962 223.022 82.7962H288.063C288.063 82.7962 288.838 80.5443 286.011 79.0458Z" fill="white"/>
  </g>
  <path d="M157.98 160.412C157.98 160.412 180.319 162.557 191.642 176.027C191.642 176.027 203.603 160.421 225.09 160.743C230.338 154.584 233.678 147.102 234.723 139.168C235.768 131.235 234.473 123.175 230.991 115.929C227.509 108.683 221.982 102.547 215.053 98.2372C208.125 93.927 200.08 91.6193 191.855 91.5828C183.63 91.5463 175.564 93.7824 168.595 98.0309C161.627 102.279 156.042 108.365 152.492 115.581C148.942 122.796 147.572 130.843 148.542 138.786C149.513 146.728 152.783 154.24 157.972 160.445L157.98 160.412Z" fill="#56BDE6"/>
  <path opacity="0.5" d="M157.98 160.412C157.98 160.412 180.319 162.557 191.642 176.027C191.642 176.027 203.603 160.421 225.09 160.743C230.338 154.584 233.678 147.102 234.723 139.168C235.768 131.235 234.473 123.175 230.991 115.929C227.509 108.683 221.982 102.547 215.053 98.2372C208.125 93.927 200.08 91.6193 191.855 91.5828C183.63 91.5463 175.564 93.7824 168.595 98.0309C161.627 102.279 156.042 108.365 152.492 115.581C148.942 122.796 147.572 130.843 148.542 138.786C149.513 146.728 152.783 154.24 157.972 160.445L157.98 160.412Z" fill="white"/>
  <path d="M190.901 94.5442L190.152 314.966H193.923L190.901 94.5442Z" fill="#828282"/>
  <path d="M192.033 171.92C192.033 171.92 199.576 158.715 213.155 154.683C213.155 154.683 198.819 157.995 191.659 169.354L192.033 171.92Z" fill="#828282"/>
  <path d="M191.216 134.871C191.216 134.871 199.576 121.31 213.155 117.278C213.155 117.278 198.376 121.418 191.216 132.785V134.871Z" fill="#828282"/>
  <path d="M191.506 154.162C191.506 154.162 199.576 140.013 213.155 135.948C213.155 135.948 198.478 139.905 191.31 151.272L191.506 154.162Z" fill="#828282"/>
  <path d="M190.918 144.053C190.918 144.053 183.639 130.848 170.537 126.816C170.537 126.816 184.363 130.128 191.284 141.486L190.918 144.053Z" fill="#828282"/>
  <path d="M190.918 162.383C190.918 162.383 183.639 149.186 170.537 145.154C170.537 145.154 184.363 148.466 191.284 159.816L190.918 162.383Z" fill="#828282"/>
  <path d="M29.7538 128.273C29.7538 128.273 68.7701 132.023 88.5464 155.544C88.5464 155.544 109.438 128.298 146.964 128.861C156.134 118.102 161.972 105.032 163.8 91.1719C165.627 77.3117 163.368 63.2318 157.286 50.5716C151.204 37.9115 141.549 27.192 129.445 19.6613C117.341 12.1307 103.287 8.09861 88.9178 8.03468C74.5489 7.97075 60.4571 11.8776 48.2829 19.3002C36.1088 26.7229 26.3533 37.356 20.1523 49.9615C13.9513 62.567 11.56 76.6262 13.2569 90.5021C14.9537 104.378 20.6688 117.5 29.7368 128.339L29.7538 128.273Z" fill="#56BDE6"/>
  <path opacity="0.3" d="M29.7538 128.273C29.7538 128.273 68.7701 132.023 88.5464 155.544C88.5464 155.544 109.438 128.298 146.964 128.861C156.134 118.102 161.972 105.032 163.8 91.1719C165.627 77.3117 163.368 63.2318 157.286 50.5716C151.204 37.9115 141.549 27.192 129.445 19.6613C117.341 12.1307 103.287 8.09861 88.9178 8.03468C74.5489 7.97075 60.4571 11.8776 48.2829 19.3002C36.1088 26.7229 26.3533 37.356 20.1523 49.9615C13.9513 62.567 11.56 76.6262 13.2569 90.5021C14.9537 104.378 20.6688 117.5 29.7368 128.339L29.7538 128.273Z" fill="white"/>
  <path d="M87.2523 13.2439L85.9328 314.966H92.5221L87.2523 13.2439Z" fill="#828282"/>
  <path d="M89.2274 148.383C89.2274 148.383 102.397 125.326 126.107 118.28C126.107 118.28 101.086 124.076 88.5719 143.896L89.2274 148.383Z" fill="#828282"/>
  <path d="M88.2399 84.3361C88.2399 84.3361 102.397 59.9957 126.107 52.9502C126.107 52.9502 100.848 59.6314 88.3335 79.4846L88.2399 84.3361Z" fill="#828282"/>
  <path d="M88.6315 116.542C88.6315 116.542 102.397 92.6566 126.09 85.6111C126.09 85.6111 101.069 91.4064 88.5549 111.235L88.6315 116.542Z" fill="#828282"/>
  <path d="M87.2779 99.702C87.2779 99.702 74.5676 76.6449 51.6925 69.5994C51.6925 69.5994 75.8361 75.3947 87.9079 95.2231L87.2779 99.702Z" fill="#828282"/>
  <path d="M87.2779 131.725C87.2779 131.725 74.5676 108.668 51.6925 101.623C51.6925 101.623 75.8361 107.418 87.9079 127.288L87.2779 131.725Z" fill="#828282"/>
  <path d="M310.155 203.083C310.112 203.083 310.657 200.442 310.717 200.284C311.347 198.388 313.705 195.102 315.986 195.11C316.366 195.12 316.739 195.208 317.081 195.369C317.423 195.529 317.727 195.757 317.972 196.039C318.217 196.322 318.398 196.651 318.504 197.006C318.609 197.36 318.636 197.733 318.583 198.099C318.421 199.655 316.983 200.988 315.672 201.758C314.148 202.66 310.155 203.083 310.155 203.083Z" fill="#56BDE6"/>
  <path d="M305.728 185.283C307.882 186.028 308.946 189.902 308.878 191.906C308.878 192.071 308.469 194.746 308.427 194.729H308.384C308.563 195.342 308.742 195.996 308.92 196.716C309.244 198.049 309.593 199.564 309.865 201.228C310.174 203.023 310.376 204.833 310.47 206.651C310.592 208.684 310.521 210.724 310.257 212.744C310.257 212.744 310.257 212.794 310.257 212.819C310.538 212.223 311.381 210.6 311.466 210.484C312.581 208.828 315.723 206.253 317.953 206.841C318.317 206.949 318.653 207.13 318.94 207.372C319.227 207.614 319.459 207.913 319.619 208.248C319.78 208.583 319.866 208.947 319.872 209.317C319.879 209.686 319.805 210.053 319.656 210.393C319.077 211.858 317.323 212.769 315.859 213.175C314.199 213.638 310.512 213.092 310.223 213.051C309.909 215.101 309.454 217.128 308.861 219.119C308.529 220.286 308.146 221.445 307.754 222.605L308.291 221.594C309.414 219.939 312.547 217.364 314.786 217.96C315.15 218.068 315.486 218.248 315.773 218.491C316.06 218.733 316.292 219.031 316.452 219.366C316.613 219.701 316.699 220.066 316.705 220.435C316.712 220.805 316.638 221.172 316.489 221.512C315.901 222.969 314.156 223.888 312.683 224.293C311.211 224.699 308.044 224.293 307.209 224.186L306.75 225.519C305.992 227.638 305.234 229.758 304.545 231.852C304.306 232.589 304.102 233.326 303.889 234.063C304.119 233.616 304.315 233.235 304.357 233.235C305.473 231.579 308.614 229.004 310.844 229.592C311.208 229.7 311.544 229.88 311.832 230.123C312.119 230.365 312.35 230.663 312.511 230.999C312.671 231.334 312.757 231.698 312.764 232.067C312.77 232.437 312.696 232.804 312.547 233.144C311.968 234.609 310.214 235.52 308.75 235.926C307.286 236.331 304.417 235.975 303.421 235.843C303.225 236.604 303.029 237.366 302.885 238.111C302.791 238.625 302.663 239.105 302.595 239.626C302.527 240.148 302.45 240.645 302.382 241.15C302.28 242.118 302.161 243.12 302.084 244.072C302.033 244.734 301.991 245.364 301.94 245.993C302.169 245.256 302.655 243.824 302.714 243.708C303.52 242.148 304.721 240.815 306.205 239.833C306.291 239.658 306.39 239.489 306.503 239.328C306.709 239.018 306.98 238.754 307.299 238.553C307.618 238.352 307.976 238.218 308.352 238.161C308.727 238.104 309.11 238.125 309.477 238.222C309.843 238.319 310.185 238.49 310.478 238.724C312.181 240.173 311.781 244.163 310.981 245.993C310.938 246.1 310.291 247.21 309.874 247.905C310.18 247.533 310.478 247.169 310.802 246.788C311.44 246.034 312.096 245.297 312.803 244.503L313.867 243.377C314.216 242.988 314.641 242.623 315.024 242.251C315.944 241.423 316.906 240.595 317.902 239.767C317.229 239.221 314.837 237.283 314.156 235.934C313.475 234.584 312.981 232.73 313.696 231.322C313.854 230.986 314.082 230.687 314.366 230.442C314.651 230.197 314.985 230.014 315.347 229.903C315.709 229.792 316.091 229.756 316.468 229.798C316.845 229.84 317.209 229.959 317.536 230.147C319.468 231.322 319.664 235.329 319.162 237.25C319.162 237.374 318.609 238.716 318.311 239.444C318.915 238.964 319.511 238.475 320.141 238.004C321.946 236.646 323.819 235.329 325.683 233.997C326.253 233.599 326.815 233.169 327.386 232.771C327.139 232.581 324.253 230.288 323.487 228.822C322.806 227.497 322.312 225.626 323.027 224.219C323.175 223.883 323.393 223.58 323.668 223.331C323.942 223.081 324.267 222.89 324.622 222.769C324.977 222.649 325.353 222.601 325.728 222.63C326.103 222.658 326.467 222.763 326.798 222.936C328.731 224.12 328.927 228.118 328.424 230.047C328.424 230.188 327.641 232.117 327.42 232.597C328.671 231.703 329.897 230.793 331.08 229.849C332.677 228.579 334.187 227.21 335.601 225.751C335.49 225.66 332.46 223.267 331.676 221.777C330.995 220.452 330.502 218.581 331.217 217.173C331.374 216.838 331.603 216.538 331.887 216.293C332.171 216.049 332.505 215.865 332.866 215.753C333.228 215.641 333.61 215.605 333.987 215.646C334.364 215.686 334.728 215.804 335.056 215.99C336.989 217.173 337.184 221.181 336.682 223.101C336.682 223.225 336.078 224.699 335.788 225.395L335.899 225.461C337.284 223.955 338.526 222.332 339.611 220.609C340.224 219.674 340.752 218.738 341.245 217.828C340.641 217.438 337.84 215.667 336.989 214.367C336.137 213.067 335.465 211.312 336.01 209.838C336.131 209.485 336.328 209.16 336.587 208.886C336.846 208.611 337.163 208.393 337.515 208.246C337.867 208.099 338.247 208.026 338.631 208.033C339.014 208.039 339.391 208.124 339.738 208.282C341.799 209.25 342.437 213.249 342.156 215.178C342.156 215.286 341.867 216.354 341.645 217.132C341.867 216.718 342.097 216.304 342.292 215.882C343.05 214.367 343.638 212.943 344.157 211.668C344.438 210.939 344.685 210.277 344.906 209.656C344.514 208.977 342.948 206.229 342.795 204.689C342.641 203.149 342.888 201.294 344.08 200.235C344.35 199.974 344.674 199.773 345.03 199.643C345.385 199.513 345.765 199.457 346.145 199.48C346.524 199.503 346.894 199.603 347.231 199.774C347.568 199.946 347.863 200.184 348.098 200.475C349.461 202.255 348.158 206.055 346.975 207.677C346.873 207.818 345.017 209.83 345 209.789V209.747C344.804 210.352 344.574 210.997 344.319 211.693C343.833 212.976 343.271 214.425 342.548 215.965C341.791 217.625 340.938 219.242 339.994 220.808C338.936 222.566 337.72 224.228 336.359 225.775L336.308 225.833C336.878 225.494 338.504 224.583 338.632 224.534C340.513 223.747 344.591 223.308 346.106 224.981C346.348 225.266 346.526 225.597 346.628 225.953C346.73 226.309 346.753 226.682 346.697 227.047C346.641 227.413 346.506 227.763 346.302 228.074C346.097 228.386 345.828 228.652 345.51 228.855C344.191 229.758 342.216 229.584 340.76 229.137C339.125 228.623 336.35 226.198 336.137 226.007C334.713 227.549 333.182 228.996 331.557 230.337C330.621 231.165 329.642 231.894 328.654 232.647L329.676 232.092C331.557 231.314 335.635 230.867 337.159 232.548C337.4 232.832 337.577 233.163 337.678 233.519C337.779 233.875 337.802 234.247 337.745 234.612C337.688 234.977 337.553 235.326 337.347 235.637C337.142 235.947 336.872 236.212 336.554 236.414C335.235 237.325 333.26 237.143 331.804 236.696C330.348 236.248 327.931 234.212 327.301 233.674L326.16 234.502C324.329 235.868 322.491 237.225 320.728 238.641C320.107 239.13 319.519 239.626 318.924 240.131L319.775 239.651C321.648 238.865 325.734 238.426 327.25 240.098C327.49 240.384 327.667 240.715 327.768 241.071C327.869 241.427 327.892 241.799 327.836 242.164C327.78 242.529 327.646 242.879 327.442 243.19C327.238 243.502 326.97 243.768 326.654 243.973C325.334 244.875 323.359 244.701 321.903 244.254C320.447 243.807 318.26 241.969 317.51 241.323C316.914 241.853 316.318 242.383 315.808 242.921C315.442 243.302 315.059 243.642 314.709 244.039L313.662 245.19C313.032 245.943 312.368 246.721 311.764 247.467C311.338 247.988 310.913 248.493 310.547 248.998C311.159 248.501 312.377 247.566 312.488 247.5C314.19 246.448 318.2 245.405 319.945 246.846C320.228 247.093 320.453 247.394 320.608 247.732C320.763 248.069 320.843 248.434 320.843 248.804C320.843 249.173 320.763 249.538 320.608 249.875C320.453 250.213 320.228 250.515 319.945 250.762C318.779 251.846 316.795 251.962 315.288 251.739C313.637 251.482 310.632 249.578 310.257 249.338C309.602 250.166 308.972 250.993 308.393 251.821C306.375 254.537 304.8 256.872 303.719 258.519L303.608 258.685L302.195 257.956L302.416 257.633C303.54 255.977 305.183 253.659 307.286 250.96C307.95 250.132 308.674 249.205 309.423 248.294C308.653 247.462 307.931 246.589 307.26 245.678C305.651 246.291 302.306 246.316 301.872 246.316C301.803 247.367 301.744 248.386 301.71 249.354C301.565 252.666 301.574 255.497 301.608 257.451V257.675L300.075 256.954C300.075 255.009 300.152 252.384 300.356 249.288C300.424 248.22 300.518 247.077 300.62 245.91C300.194 245.802 296.721 244.933 295.41 243.915C294.099 242.897 292.958 241.489 293.001 239.924C292.999 239.555 293.077 239.189 293.23 238.851C293.382 238.512 293.606 238.209 293.887 237.96C294.168 237.711 294.499 237.522 294.86 237.406C295.22 237.289 295.602 237.247 295.98 237.283C298.245 237.565 300.152 241.125 300.518 243.079C300.518 243.195 300.637 244.47 300.688 245.273C300.731 244.792 300.773 244.329 300.824 243.84C300.927 242.872 301.054 241.903 301.19 240.86L301.446 239.345C301.522 238.84 301.659 238.31 301.769 237.788C302.042 236.58 302.382 235.371 302.757 234.154C301.906 234.071 298.781 233.715 297.453 232.97C296.125 232.225 294.661 230.933 294.456 229.377C294.396 229.01 294.416 228.636 294.515 228.277C294.614 227.919 294.79 227.584 295.031 227.297C295.272 227.009 295.573 226.774 295.915 226.608C296.256 226.441 296.629 226.346 297.01 226.33C299.292 226.28 301.727 229.518 302.399 231.389C302.442 231.505 302.774 232.904 302.936 233.674C303.166 232.945 303.387 232.217 303.642 231.488C304.383 229.385 305.192 227.282 305.992 225.179C306.239 224.534 306.477 223.888 306.716 223.242C306.401 223.242 302.706 222.869 301.224 222.042C299.896 221.305 298.432 220.005 298.228 218.448C298.167 218.082 298.187 217.707 298.286 217.349C298.386 216.99 298.561 216.656 298.803 216.368C299.044 216.081 299.345 215.846 299.686 215.679C300.027 215.513 300.4 215.418 300.782 215.402C303.063 215.344 305.498 218.581 306.171 220.46C306.222 220.601 306.69 222.613 306.784 223.126C307.311 221.71 307.822 220.286 308.273 218.871C308.884 216.955 309.368 215.002 309.721 213.026C309.576 213.026 305.72 212.67 304.196 211.817C302.876 211.08 301.403 209.78 301.199 208.224C301.139 207.857 301.159 207.483 301.258 207.124C301.357 206.766 301.533 206.432 301.774 206.144C302.015 205.856 302.316 205.621 302.657 205.455C302.998 205.288 303.372 205.193 303.753 205.177C306.043 205.127 308.469 208.365 309.142 210.236C309.193 210.36 309.55 211.891 309.704 212.62H309.772C310.07 210.622 310.187 208.602 310.121 206.585C310.121 205.475 310.01 204.415 309.899 203.389C309.176 203.389 305.856 203.389 304.4 202.776C302.944 202.164 301.395 201.046 300.995 199.523C300.89 199.166 300.864 198.791 300.919 198.424C300.975 198.057 301.109 197.705 301.314 197.392C301.519 197.079 301.79 196.812 302.11 196.608C302.429 196.405 302.789 196.269 303.166 196.211C305.43 195.913 308.214 198.869 309.125 200.657C309.176 200.756 309.55 201.799 309.814 202.561C309.755 202.097 309.704 201.617 309.644 201.17C309.414 199.514 309.091 197.999 308.793 196.658C308.623 195.905 308.452 195.217 308.282 194.58C307.567 194.232 304.698 192.767 303.719 191.591C302.74 190.416 301.863 188.71 302.255 187.187C302.34 186.832 302.5 186.498 302.725 186.206C302.95 185.915 303.235 185.672 303.561 185.493C303.888 185.314 304.249 185.203 304.622 185.167C304.995 185.13 305.372 185.17 305.728 185.283Z" fill="#56BDE6"/>
  <path d="M347.051 219.541C345.255 219.475 341.688 217.695 341.688 217.695C341.688 217.695 343.612 215.758 343.748 215.65C345.34 214.417 349.171 212.935 351.078 214.168C351.388 214.381 351.648 214.654 351.842 214.971C352.036 215.288 352.16 215.64 352.204 216.007C352.249 216.373 352.215 216.744 352.103 217.096C351.991 217.448 351.804 217.773 351.555 218.051C350.525 219.268 348.567 219.608 347.051 219.541Z" fill="#56BDE6"/>
  <g opacity="0.5">
    <path d="M310.155 203.083C310.112 203.083 310.657 200.442 310.717 200.284C311.347 198.388 313.705 195.102 315.986 195.11C316.366 195.12 316.739 195.208 317.081 195.369C317.423 195.529 317.727 195.757 317.972 196.039C318.217 196.322 318.398 196.651 318.504 197.006C318.609 197.36 318.636 197.733 318.583 198.099C318.421 199.655 316.983 200.988 315.671 201.758C314.148 202.66 310.155 203.083 310.155 203.083Z" fill="white"/>
    <path d="M305.728 185.283C307.882 186.028 308.946 189.902 308.878 191.906C308.878 192.071 308.469 194.746 308.427 194.729H308.384C308.563 195.342 308.742 195.996 308.92 196.716C309.244 198.049 309.593 199.564 309.865 201.228C310.174 203.023 310.376 204.833 310.47 206.651C310.592 208.684 310.521 210.724 310.257 212.744C310.257 212.744 310.257 212.794 310.257 212.819C310.538 212.223 311.381 210.6 311.466 210.484C312.581 208.828 315.723 206.253 317.953 206.841C318.317 206.949 318.653 207.13 318.94 207.372C319.227 207.614 319.459 207.913 319.619 208.248C319.78 208.583 319.866 208.947 319.872 209.317C319.879 209.686 319.805 210.053 319.656 210.393C319.077 211.858 317.323 212.769 315.859 213.175C314.199 213.638 310.512 213.092 310.223 213.051C309.909 215.101 309.454 217.128 308.861 219.119C308.529 220.286 308.146 221.445 307.754 222.605L308.291 221.594C309.414 219.939 312.547 217.364 314.786 217.96C315.15 218.068 315.486 218.248 315.773 218.491C316.06 218.733 316.292 219.031 316.452 219.366C316.613 219.701 316.699 220.066 316.705 220.435C316.712 220.805 316.638 221.172 316.489 221.512C315.901 222.969 314.156 223.888 312.683 224.293C311.211 224.699 308.044 224.293 307.209 224.186L306.75 225.519C305.992 227.638 305.234 229.758 304.545 231.852C304.306 232.589 304.102 233.326 303.889 234.063C304.119 233.616 304.315 233.235 304.357 233.235C305.473 231.579 308.614 229.004 310.844 229.592C311.208 229.7 311.544 229.88 311.832 230.123C312.119 230.365 312.35 230.663 312.511 230.999C312.671 231.334 312.757 231.698 312.764 232.067C312.77 232.437 312.696 232.804 312.547 233.144C311.968 234.609 310.214 235.52 308.75 235.926C307.286 236.331 304.417 235.975 303.421 235.843C303.225 236.604 303.029 237.366 302.885 238.111C302.791 238.625 302.663 239.105 302.595 239.626C302.527 240.148 302.45 240.645 302.382 241.15C302.28 242.118 302.161 243.12 302.084 244.072C302.033 244.734 301.991 245.364 301.94 245.993C302.169 245.256 302.655 243.824 302.714 243.708C303.52 242.148 304.721 240.815 306.205 239.833C306.291 239.658 306.39 239.489 306.503 239.328C306.709 239.018 306.98 238.754 307.299 238.553C307.618 238.352 307.976 238.218 308.352 238.161C308.727 238.104 309.11 238.125 309.477 238.222C309.843 238.319 310.185 238.49 310.478 238.724C312.181 240.173 311.781 244.163 310.981 245.993C310.938 246.1 310.291 247.21 309.874 247.905C310.18 247.533 310.478 247.169 310.802 246.788C311.44 246.034 312.096 245.297 312.803 244.503L313.867 243.377C314.216 242.988 314.641 242.623 315.024 242.251C315.944 241.423 316.906 240.595 317.902 239.767C317.229 239.221 314.837 237.283 314.156 235.934C313.475 234.584 312.981 232.73 313.696 231.322C313.854 230.986 314.082 230.687 314.366 230.442C314.651 230.197 314.985 230.014 315.347 229.903C315.709 229.792 316.091 229.756 316.468 229.798C316.845 229.84 317.209 229.959 317.536 230.147C319.468 231.322 319.664 235.329 319.162 237.25C319.162 237.374 318.609 238.716 318.311 239.444C318.915 238.964 319.511 238.475 320.141 238.004C321.946 236.646 323.819 235.329 325.683 233.997C326.253 233.599 326.815 233.169 327.386 232.771C327.139 232.581 324.253 230.288 323.487 228.822C322.806 227.497 322.312 225.626 323.027 224.219C323.175 223.883 323.393 223.58 323.668 223.331C323.942 223.081 324.267 222.89 324.622 222.769C324.977 222.649 325.353 222.601 325.728 222.63C326.103 222.658 326.467 222.763 326.798 222.936C328.731 224.12 328.927 228.118 328.424 230.047C328.424 230.188 327.641 232.117 327.42 232.597C328.671 231.703 329.897 230.793 331.08 229.849C332.677 228.579 334.187 227.21 335.601 225.751C335.49 225.66 332.46 223.267 331.676 221.777C330.995 220.452 330.502 218.581 331.217 217.173C331.374 216.838 331.603 216.538 331.887 216.293C332.171 216.049 332.505 215.865 332.866 215.753C333.228 215.641 333.61 215.605 333.987 215.646C334.364 215.686 334.728 215.804 335.056 215.99C336.989 217.173 337.184 221.181 336.682 223.101C336.682 223.225 336.078 224.699 335.788 225.395L335.899 225.461C337.284 223.955 338.526 222.332 339.611 220.609C340.224 219.674 340.752 218.738 341.245 217.828C340.641 217.438 337.84 215.667 336.989 214.367C336.137 213.067 335.465 211.312 336.01 209.838C336.131 209.485 336.328 209.16 336.587 208.886C336.846 208.611 337.163 208.393 337.515 208.246C337.867 208.099 338.247 208.026 338.631 208.033C339.014 208.039 339.391 208.124 339.738 208.282C341.799 209.25 342.437 213.249 342.156 215.178C342.156 215.286 341.867 216.354 341.645 217.132C341.867 216.718 342.097 216.304 342.292 215.882C343.05 214.367 343.638 212.943 344.157 211.668C344.438 210.939 344.685 210.277 344.906 209.656C344.514 208.977 342.948 206.229 342.795 204.689C342.641 203.149 342.888 201.294 344.08 200.235C344.35 199.974 344.674 199.773 345.03 199.643C345.385 199.513 345.765 199.457 346.145 199.48C346.524 199.503 346.894 199.603 347.231 199.774C347.568 199.946 347.863 200.184 348.098 200.475C349.461 202.255 348.158 206.055 346.975 207.677C346.873 207.818 345.017 209.83 345 209.789V209.747C344.804 210.352 344.574 210.997 344.319 211.693C343.833 212.976 343.271 214.425 342.548 215.965C341.791 217.625 340.938 219.242 339.994 220.808C338.936 222.566 337.72 224.228 336.359 225.775L336.308 225.833C336.878 225.494 338.504 224.583 338.632 224.534C340.513 223.747 344.591 223.308 346.106 224.981C346.348 225.266 346.526 225.597 346.628 225.953C346.73 226.309 346.753 226.682 346.697 227.047C346.641 227.413 346.506 227.763 346.302 228.074C346.097 228.386 345.828 228.652 345.51 228.855C344.191 229.758 342.216 229.584 340.76 229.137C339.125 228.623 336.35 226.198 336.137 226.007C334.713 227.549 333.182 228.996 331.557 230.337C330.621 231.165 329.642 231.894 328.654 232.647L329.676 232.092C331.557 231.314 335.635 230.867 337.159 232.548C337.4 232.832 337.577 233.163 337.678 233.519C337.779 233.875 337.802 234.247 337.745 234.612C337.688 234.977 337.553 235.326 337.347 235.637C337.142 235.947 336.872 236.212 336.554 236.414C335.235 237.325 333.26 237.143 331.804 236.696C330.348 236.248 327.931 234.212 327.301 233.674L326.16 234.502C324.329 235.868 322.491 237.225 320.728 238.641C320.107 239.13 319.519 239.626 318.924 240.131L319.775 239.651C321.648 238.865 325.734 238.426 327.25 240.098C327.49 240.384 327.667 240.715 327.768 241.071C327.869 241.427 327.892 241.799 327.836 242.164C327.78 242.529 327.646 242.879 327.442 243.19C327.238 243.502 326.97 243.768 326.654 243.973C325.334 244.875 323.359 244.701 321.903 244.254C320.447 243.807 318.26 241.969 317.51 241.323C316.914 241.853 316.318 242.383 315.808 242.921C315.442 243.302 315.059 243.642 314.709 244.039L313.662 245.19C313.032 245.943 312.368 246.721 311.764 247.467C311.338 247.988 310.913 248.493 310.547 248.998C311.159 248.501 312.377 247.566 312.488 247.5C314.19 246.448 318.2 245.405 319.945 246.846C320.228 247.093 320.453 247.394 320.608 247.732C320.763 248.069 320.843 248.434 320.843 248.804C320.843 249.173 320.763 249.538 320.608 249.875C320.453 250.213 320.228 250.515 319.945 250.762C318.779 251.846 316.795 251.962 315.288 251.739C313.637 251.482 310.632 249.578 310.257 249.338C309.602 250.166 308.972 250.993 308.393 251.821C306.375 254.537 304.8 256.872 303.719 258.519L303.608 258.685L302.195 257.956L302.416 257.633C303.54 255.977 305.183 253.659 307.286 250.96C307.95 250.132 308.674 249.205 309.423 248.294C308.653 247.462 307.931 246.589 307.26 245.678C305.651 246.291 302.306 246.316 301.872 246.316C301.803 247.367 301.744 248.386 301.71 249.354C301.565 252.666 301.574 255.497 301.608 257.451V257.675L300.075 256.954C300.075 255.009 300.152 252.384 300.356 249.288C300.424 248.22 300.518 247.077 300.62 245.91C300.194 245.802 296.721 244.933 295.41 243.915C294.099 242.897 292.958 241.489 293.001 239.924C292.999 239.555 293.077 239.189 293.23 238.851C293.382 238.512 293.606 238.209 293.887 237.96C294.168 237.711 294.499 237.522 294.86 237.406C295.22 237.289 295.602 237.247 295.98 237.283C298.245 237.565 300.152 241.125 300.518 243.079C300.518 243.195 300.637 244.47 300.688 245.273C300.731 244.792 300.773 244.329 300.824 243.84C300.927 242.872 301.054 241.903 301.19 240.86L301.446 239.345C301.522 238.84 301.659 238.31 301.769 237.788C302.042 236.58 302.382 235.371 302.757 234.154C301.906 234.071 298.781 233.715 297.453 232.97C296.125 232.225 294.661 230.933 294.456 229.377C294.396 229.01 294.416 228.636 294.515 228.277C294.614 227.919 294.79 227.584 295.031 227.297C295.272 227.009 295.573 226.774 295.915 226.608C296.256 226.441 296.629 226.346 297.01 226.33C299.292 226.28 301.727 229.518 302.399 231.389C302.442 231.505 302.774 232.904 302.936 233.674C303.166 232.945 303.387 232.217 303.642 231.488C304.383 229.385 305.192 227.282 305.992 225.179C306.239 224.534 306.477 223.888 306.716 223.242C306.401 223.242 302.706 222.869 301.224 222.042C299.896 221.305 298.432 220.005 298.228 218.448C298.167 218.082 298.187 217.707 298.286 217.349C298.386 216.99 298.561 216.656 298.803 216.368C299.044 216.081 299.345 215.846 299.686 215.679C300.027 215.513 300.4 215.418 300.782 215.402C303.063 215.344 305.498 218.581 306.171 220.46C306.222 220.601 306.69 222.613 306.784 223.126C307.311 221.71 307.822 220.286 308.273 218.871C308.884 216.955 309.368 215.002 309.721 213.026C309.576 213.026 305.72 212.67 304.196 211.817C302.876 211.08 301.403 209.78 301.199 208.224C301.139 207.857 301.159 207.483 301.258 207.124C301.357 206.766 301.533 206.432 301.774 206.144C302.015 205.856 302.316 205.621 302.657 205.455C302.998 205.288 303.372 205.193 303.753 205.177C306.043 205.127 308.469 208.365 309.142 210.236C309.193 210.36 309.55 211.891 309.704 212.62H309.772C310.07 210.622 310.187 208.602 310.121 206.585C310.121 205.475 310.01 204.415 309.899 203.389C309.176 203.389 305.856 203.389 304.4 202.776C302.944 202.164 301.395 201.046 300.995 199.523C300.89 199.166 300.864 198.791 300.919 198.424C300.975 198.057 301.109 197.705 301.314 197.392C301.519 197.079 301.79 196.812 302.11 196.608C302.429 196.405 302.789 196.269 303.166 196.211C305.43 195.913 308.214 198.869 309.125 200.657C309.176 200.756 309.55 201.799 309.814 202.561C309.755 202.097 309.704 201.617 309.644 201.17C309.414 199.514 309.091 197.999 308.793 196.658C308.623 195.905 308.452 195.217 308.282 194.58C307.567 194.232 304.698 192.767 303.719 191.591C302.74 190.416 301.863 188.71 302.255 187.187C302.34 186.832 302.5 186.498 302.725 186.206C302.95 185.915 303.235 185.672 303.561 185.493C303.888 185.314 304.249 185.203 304.622 185.167C304.995 185.13 305.372 185.17 305.728 185.283Z" fill="white"/>
    <path d="M347.051 219.541C345.255 219.475 341.688 217.695 341.688 217.695C341.688 217.695 343.612 215.758 343.748 215.65C345.34 214.417 349.171 212.935 351.078 214.168C351.388 214.381 351.648 214.654 351.842 214.971C352.036 215.288 352.16 215.64 352.204 216.007C352.249 216.373 352.215 216.744 352.103 217.096C351.991 217.448 351.804 217.773 351.555 218.051C350.525 219.268 348.567 219.608 347.051 219.541Z" fill="white"/>
  </g>
  <path d="M326.194 263.039C326.194 263.039 315.356 237.631 309.287 238.74C303.217 239.85 319.69 279.242 319.69 279.242C319.69 279.242 300.62 244.263 287.612 244.263C274.604 244.263 292.379 282.926 308.852 295.816C308.852 295.816 282.844 268.562 267.674 274.456C252.503 280.351 298.015 307.97 298.015 307.97C298.015 307.97 271.573 299.865 274.612 306.124C277.651 312.383 285.875 313.492 285.875 313.492L255.968 314.966H360L336.597 312.755C336.597 312.755 360.868 300.974 354.364 296.197C347.86 291.42 333.558 301.727 333.558 301.727C333.558 301.727 358.246 275.234 353.496 265.3C348.745 255.365 327.488 283.348 327.488 283.348C327.488 283.348 344.829 247.624 341.364 241.365C337.9 235.106 326.194 263.039 326.194 263.039Z" fill="#56BDE6"/>
  <path opacity="0.4" d="M326.194 263.039C326.194 263.039 315.356 237.631 309.287 238.74C303.217 239.85 319.69 279.242 319.69 279.242C319.69 279.242 300.62 244.263 287.612 244.263C274.604 244.263 292.379 282.926 308.852 295.816C308.852 295.816 282.844 268.562 267.674 274.456C252.503 280.351 298.015 307.97 298.015 307.97C298.015 307.97 271.573 299.865 274.612 306.124C277.651 312.383 285.875 313.492 285.875 313.492L255.968 314.966H360L336.597 312.755C336.597 312.755 360.868 300.974 354.364 296.197C347.86 291.42 333.558 301.727 333.558 301.727C333.558 301.727 358.246 275.234 353.496 265.3C348.745 255.365 327.488 283.348 327.488 283.348C327.488 283.348 344.829 247.624 341.364 241.365C337.9 235.106 326.194 263.039 326.194 263.039Z" fill="white"/>
  <path d="M329.659 264.381C320.124 291.784 320.124 311.174 320.124 311.174C320.124 311.174 331.395 311.596 343.11 303.16" stroke="#787878" stroke-width="1.15613" stroke-linecap="round" stroke-linejoin="round"/>
  <path d="M324.891 279.134C322.924 270.949 320.314 262.922 317.085 255.125" stroke="#787878" stroke-width="1.15613" stroke-linecap="round" stroke-linejoin="round"/>
  <path d="M296.712 263.114L320.992 298.101C320.992 298.101 337.457 284.615 343.127 277.023" stroke="#787878" stroke-width="1.15613" stroke-linecap="round" stroke-linejoin="round"/>
  <path d="M320.558 306.538C320.558 306.538 295.018 294.732 284.581 287.984" stroke="#787878" stroke-width="1.15613" stroke-linecap="round" stroke-linejoin="round"/>
  <path d="M296.917 237.523C296.917 237.523 296.346 256.855 298.815 265.672C301.284 274.489 306.571 294.02 307.516 298.068C308.461 302.117 307.141 308.558 307.141 308.558C307.141 308.558 297.862 312.614 296.729 312.979C295.597 313.343 296.917 314.452 299.003 314.817C301.088 315.181 316.029 315.926 316.795 314.08C317.561 312.234 317.357 305.801 318.115 302.489C318.872 299.178 323.989 287.587 321.52 279.308C319.051 271.029 318.115 263.66 318.864 260.349C319.613 257.037 322.082 248.568 322.84 247.649C323.597 246.73 327.573 244.155 329.088 241.572C330.057 239.741 330.637 237.739 330.791 235.685C330.791 235.685 308.657 239.916 296.917 237.523Z" fill="white" stroke="#263238" stroke-width="1.15613" stroke-linecap="round" stroke-linejoin="round"/>
  <path d="M329.097 241.572C330.066 239.741 330.645 237.739 330.8 235.685C330.8 235.685 308.665 239.916 296.917 237.523C296.917 237.523 296.346 256.855 298.815 265.672C301.284 274.489 306.571 294.02 307.516 298.068C307.71 298.97 307.819 299.887 307.839 300.808C311.197 302.028 314.837 302.315 318.353 301.636C319.579 297.497 323.81 286.982 321.529 279.283C319.068 271.004 318.123 263.636 318.872 260.324C319.622 257.012 322.09 248.543 322.848 247.624C323.606 246.705 327.582 244.155 329.097 241.572Z" fill="#263238" stroke="#263238" stroke-width="1.15613" stroke-linecap="round" stroke-linejoin="round"/>
  <path d="M310.172 311.157L307.141 308.574C307.141 308.574 297.862 312.631 296.729 312.995C295.597 313.36 296.917 314.469 299.003 314.833C301.088 315.197 316.029 315.943 316.795 314.096C317.173 312.676 317.376 311.217 317.4 309.75L310.172 311.157Z" fill="#56BDE6" stroke="#263238" stroke-width="1.15613" stroke-linecap="round" stroke-linejoin="round"/>
  <path d="M301.08 165.918C302.532 168.231 303.071 170.98 302.595 173.651C301.837 178.254 296.346 185.614 292.183 189.298C288.02 192.982 288.208 199.233 290.481 202.362C292.754 205.492 293.886 205.492 293.886 205.492L286.701 237.896C286.701 237.896 299.19 240.289 308.273 240.289C317.357 240.289 320.013 240.098 324.551 238.997C329.088 237.896 337.014 236.05 337.014 236.05C337.014 236.05 330.204 209.913 330.204 202.934C330.204 195.954 330.961 188.76 330.961 188.76C330.961 188.76 332.289 181.764 326.041 171.457C319.792 161.149 309.772 160.214 305.813 161.133C304.649 161.432 303.592 162.037 302.757 162.881C301.923 163.724 301.342 164.775 301.08 165.918Z" fill="#56BDE6" stroke="#263238" stroke-width="1.15613" stroke-linecap="round" stroke-linejoin="round"/>
  <path d="M293.886 205.492C293.886 205.492 298.815 207.702 303.736 205.682" stroke="#263238" stroke-width="1.15613" stroke-linecap="round" stroke-linejoin="round"/>
  <path d="M299.19 207.148V215.071" stroke="#263238" stroke-width="1.15613" stroke-linecap="round" stroke-linejoin="round"/>
  <path d="M297.104 206.601L295.597 226.479" stroke="#263238" stroke-width="1.15613" stroke-linecap="round" stroke-linejoin="round"/>
  <path d="M326.066 171.44C319.826 161.133 309.789 160.214 305.813 161.133C304.649 161.432 303.592 162.037 302.757 162.881C301.923 163.724 301.342 164.775 301.08 165.918C302.532 168.231 303.071 170.98 302.595 173.651C301.957 177.525 297.964 183.354 294.227 187.303C295.589 187.592 297.998 187.303 301.276 183.776C306.571 178.063 310.734 174.752 315.654 173.278C319.23 172.21 323.802 173.957 326.722 172.525C326.483 172.16 326.288 171.854 326.066 171.44Z" fill="white" stroke="#263238" stroke-width="1.15613" stroke-linecap="round" stroke-linejoin="round"/>
  <path d="M294.082 142.877C294.082 142.877 292.754 146.553 292.941 148.764C293.128 150.974 293.886 152.075 292.754 154.104C291.622 156.132 289.536 157.415 290.106 158.334C290.677 159.253 293.511 159.99 293.511 159.99C293.511 159.99 294.644 166.795 295.972 167.532C297.3 168.269 305.626 164.585 307.328 164.039C309.031 163.492 311.304 158.699 309.976 151.33C308.648 143.962 299.556 139.781 294.082 142.877Z" fill="white" stroke="#263238" stroke-width="1.15613" stroke-linecap="round" stroke-linejoin="round"/>
  <path d="M296.729 153.64C296.729 154.302 296.432 154.841 296.065 154.841C295.699 154.841 295.401 154.302 295.401 153.64C295.401 152.978 295.699 152.448 296.065 152.448C296.432 152.448 296.729 153.019 296.729 153.64Z" fill="#263238"/>
  <path d="M294.84 150.643C294.84 150.643 297.104 149.169 298.245 151.562" stroke="#263238" stroke-width="1.15613" stroke-linecap="round" stroke-linejoin="round"/>
  <path d="M290.94 140.733C290.692 141.025 290.564 141.397 290.579 141.775C290.595 142.154 290.754 142.514 291.026 142.786C292.511 144.308 294.235 145.59 296.134 146.586C299.539 148.242 304.085 151.007 304.085 154.137C304.085 157.266 302.195 166.282 304.085 169.412C305.975 172.541 311.091 175.488 314.122 175.861C317.153 176.234 321.503 179.355 322.635 184.513C323.768 189.67 325.504 196.294 331.906 195.035C338.308 193.777 339.662 184.91 337.014 180.862C334.367 176.813 331.906 176.631 333.983 172.21C336.061 167.789 334.741 161.903 330.195 158.218C325.649 154.534 322.056 156.563 321.682 152.142C321.307 147.721 319.724 141.569 316.378 137.239C312.573 132.222 299.028 131.022 290.94 140.733Z" fill="#263238" stroke="#263238" stroke-width="1.15613" stroke-linecap="round" stroke-linejoin="round"/>
  <path d="M308.461 230.345C308.461 230.345 307.516 240.653 306.758 241.754C306 242.855 302.782 245.62 302.221 246.912C301.659 248.203 302.961 252.989 302.961 252.989C302.961 252.989 304.093 254.09 305.038 253.726C305.983 253.361 305.609 252.616 305.609 252.616C305.609 252.616 305.038 251.515 305.609 251.142C306.179 250.77 308.444 250.223 309.201 248.386C309.708 247.073 310.09 245.718 310.342 244.337L315.076 232.001L308.461 230.345Z" fill="white" stroke="#263238" stroke-width="1.15613" stroke-linecap="round" stroke-linejoin="round"/>
  <path d="M305.055 188.412C305.055 188.412 304.681 197.792 305.243 201.659C305.805 205.525 306.196 216.942 305.055 221.354C303.915 225.767 304.681 231.67 304.681 231.67C304.681 231.67 310.734 234.427 313.765 234.063C316.795 233.699 318.872 233.326 318.872 233.326C318.872 233.326 322.278 218.962 322.848 212.521C323.419 206.08 322.09 185.829 322.09 185.829" fill="#56BDE6"/>
  <path d="M305.055 188.412C305.055 188.412 304.681 197.792 305.243 201.659C305.805 205.525 306.196 216.942 305.055 221.354C303.915 225.767 304.681 231.67 304.681 231.67C304.681 231.67 310.734 234.427 313.765 234.063C316.795 233.699 318.872 233.326 318.872 233.326C318.872 233.326 322.278 218.962 322.848 212.521C323.419 206.08 322.09 185.829 322.09 185.829" stroke="#263238" stroke-width="1.15613" stroke-linecap="round" stroke-linejoin="round"/>
  <path d="M228.649 181.027H206.293V204.978H228.649V181.027Z" fill="#56BDE6" stroke="#263238" stroke-width="1.15613" stroke-linecap="round" stroke-linejoin="round"/>
  <path d="M219.503 201.438C223.884 200.436 226.6 196.171 225.57 191.912C224.54 187.652 220.154 185.011 215.774 186.012C211.394 187.013 208.678 191.278 209.708 195.538C210.738 199.798 215.123 202.439 219.503 201.438Z" fill="white"/>
  <path d="M212.389 189.704C214.264 190.589 216.278 191.165 218.348 191.409C221.753 191.798 223.303 191.335 223.303 191.335C222.895 193.208 222.687 195.116 222.681 197.031C222.749 198.562 217.573 198.877 214.832 197.858C213.617 197.419 212.471 196.817 211.427 196.07C211.427 196.07 211.588 191.566 212.389 189.704Z" fill="white" stroke="#263238" stroke-width="1.15613" stroke-linecap="round" stroke-linejoin="round"/>
  <path d="M212.15 191.409C212.15 191.409 216.143 194.365 222.86 193.197" stroke="#263238" stroke-width="1.15613" stroke-linecap="round" stroke-linejoin="round"/>
  <path d="M211.75 193.123C211.75 193.123 214.977 196.559 222.519 194.961" stroke="#263238" stroke-width="1.15613" stroke-linecap="round" stroke-linejoin="round"/>
  <path d="M211.512 194.986C211.512 194.986 217.905 198.794 222.622 196.641" stroke="#263238" stroke-width="1.15613" stroke-linecap="round" stroke-linejoin="round"/>
  <path d="M223.337 191.335C223.337 191.335 225.891 188.611 226.614 190.325C227.338 192.038 226.299 196.12 222.86 197.32" stroke="#263238" stroke-width="1.15613" stroke-linecap="round" stroke-linejoin="round"/>
  <path d="M212.389 189.704C212.389 189.704 212.474 187.443 211.112 187.054C209.75 186.665 210.15 192.734 211.427 195.689" stroke="#263238" stroke-width="1.15613" stroke-linecap="round" stroke-linejoin="round"/>
  <path d="M169.039 158.285C167.709 160.346 166.534 162.499 165.523 164.726C164.672 166.936 163.863 170.562 163.863 170.562L156.201 166.738L161.164 154.054L169.039 158.285Z" fill="white" stroke="#263238" stroke-width="1.15613" stroke-linecap="round" stroke-linejoin="round"/>
  <path d="M176.284 138.961C176.284 138.961 179.391 139.971 180.634 136.345C181.877 132.719 177.11 129.3 170.486 127.487C163.863 125.673 153.128 131.916 151.034 136.751C148.939 141.586 150.829 146.81 148.139 150.436C145.449 154.062 135.718 154.865 134.68 164.51C133.641 174.156 139.856 177.757 138.408 181.209C136.961 184.662 130.959 186.649 131.989 194.298C133.02 201.948 144.615 205.972 149.791 202.95C154.967 199.928 156.831 193.487 155.171 185.639C153.511 177.79 152.694 169.743 157.035 166.721C161.377 163.699 166.349 157.862 166.766 155.047C167.183 152.233 166.145 151.628 168.631 150.817C171.116 150.006 175.662 144.599 176.284 138.961Z" fill="#263238" stroke="#263238" stroke-width="1.15613" stroke-linecap="round" stroke-linejoin="round"/>
  <path d="M161.079 221.793C161.079 221.793 164.033 240.007 165.021 252.186C166.008 264.364 164.663 273.248 165.021 280.657C165.416 289.566 166.403 298.44 167.975 307.225C167.975 307.225 177.34 311.05 178.548 311.77C179.757 312.49 181.503 312.49 181.503 313.426C181.503 314.361 174.411 316.075 170.154 314.403C168.052 313.575 163.02 314.643 160.79 313.682C159.368 313.07 160.79 309.377 160.79 306.985C160.79 304.592 156.652 291.9 155.682 285.923C154.711 279.945 153.715 278.033 154.456 273.719C154.945 270.627 155.275 267.513 155.443 264.389C155.443 264.389 148.224 237.755 146.93 233.963C146.1 231.542 145.415 229.077 144.879 226.578" fill="#263238"/>
  <path d="M161.079 221.793C161.079 221.793 164.033 240.007 165.021 252.186C166.008 264.364 164.663 273.248 165.021 280.657C165.416 289.566 166.403 298.44 167.975 307.225C167.975 307.225 177.34 311.05 178.548 311.77C179.757 312.49 181.503 312.49 181.503 313.426C181.503 314.361 174.411 316.075 170.154 314.403C168.052 313.575 163.02 314.643 160.79 313.682C159.368 313.07 160.79 309.377 160.79 306.985C160.79 304.592 156.652 291.9 155.682 285.923C154.711 279.945 153.715 278.033 154.456 273.719C154.945 270.627 155.275 267.513 155.443 264.389C155.443 264.389 148.224 237.755 146.93 233.963C146.1 231.542 145.415 229.077 144.879 226.578" stroke="#263238" stroke-width="1.15613" stroke-linecap="round" stroke-linejoin="round"/>
  <path d="M178.548 311.77C177.323 311.05 167.975 307.225 167.975 307.225C167.975 307.225 167.056 302.564 166.204 295.154C163.787 296.458 160.988 296.928 158.261 296.487C159.564 301.214 160.815 305.66 160.815 306.985C160.815 309.377 159.394 313.07 160.815 313.682C163.037 314.643 168.069 313.558 170.18 314.403C174.36 316.058 181.494 314.403 181.494 313.442C181.494 312.482 179.783 312.49 178.548 311.77Z" fill="white" stroke="#263238" stroke-width="1.15613" stroke-linecap="round" stroke-linejoin="round"/>
  <path d="M160.654 308.864C160.322 310.967 159.751 313.219 160.832 313.682C163.054 314.643 168.086 313.558 170.197 314.403C174.377 316.058 181.511 314.403 181.511 313.442C181.511 312.482 179.808 312.49 178.557 311.786C177.306 311.083 167.984 307.241 167.984 307.241L166.987 310.114L160.654 308.864Z" fill="white" stroke="#263238" stroke-width="1.15613" stroke-linecap="round" stroke-linejoin="round"/>
  <path d="M155.384 163.111C156.765 162.866 158.185 162.919 159.543 163.267C160.901 163.614 162.164 164.248 163.242 165.123C167.175 168.145 168.009 173.179 171.321 178.212C174.632 183.246 175.041 187.667 173.798 190.49C172.555 193.313 168.631 202.362 166.553 208C164.476 213.638 163.659 222.696 162.416 228.698C161.173 234.7 150.829 235.139 146.896 233.93C142.963 232.722 138.86 227.688 138.443 221.048C138.025 214.408 141.55 211.411 142.384 209.797C143.218 208.182 151.859 195.284 149.791 188.843C147.722 182.401 148.548 174.768 150.004 170.935C151.459 167.102 154.141 163.716 155.384 163.111Z" fill="#263238" stroke="#263238" stroke-width="1.15613" stroke-linecap="round" stroke-linejoin="round"/>
  <path d="M163.242 165.123C162.164 164.248 160.901 163.614 159.543 163.267C158.185 162.919 156.765 162.866 155.384 163.111C154.141 163.716 151.451 167.143 150.004 170.968C148.556 174.793 147.722 182.435 149.791 188.876C151.859 195.317 143.21 208.224 142.384 209.83C142.384 209.83 148.48 216.312 164.519 216.337C164.972 213.509 165.658 210.721 166.57 208C168.648 202.362 172.53 193.305 173.815 190.49C175.101 187.675 174.666 183.238 171.338 178.212C168.009 173.187 167.175 168.145 163.242 165.123Z" fill="#56BDE6" stroke="#263238" stroke-width="1.15613" stroke-linecap="round" stroke-linejoin="round"/>
  <path d="M203.399 197.734L172.351 200.756C172.351 200.756 169.865 200.152 169.243 198.943C168.733 197.941 158.925 181.789 155.622 176.358C154.528 174.624 154.066 172.583 154.311 170.562C154.592 168.551 155.682 166.539 158.891 166.539C164.101 166.539 168.026 174.164 169.312 177.02C169.763 178.022 170.257 178.999 170.776 179.967L175.884 189.48L204.659 192.899C204.659 192.899 209.417 190.084 210.243 189.679C211.069 189.273 213.759 189.083 215.215 188.851C216.671 188.619 217.692 187.443 217.692 188.652C217.692 189.861 216.662 190.06 216.041 190.258L212.933 191.268L220.595 193.09C220.815 193.134 221.008 193.26 221.132 193.441C221.256 193.623 221.302 193.844 221.259 194.058C221.246 194.167 221.21 194.271 221.155 194.366C221.099 194.461 221.025 194.544 220.937 194.611C220.848 194.678 220.747 194.727 220.639 194.756C220.53 194.785 220.417 194.793 220.306 194.779L214.798 194.265L219.999 196.708C220.187 196.805 220.33 196.967 220.4 197.161C220.471 197.356 220.465 197.569 220.383 197.759C220.3 197.921 220.166 198.052 220 198.133C219.834 198.214 219.646 198.239 219.463 198.206L213.972 197.047L218.067 199.332L218.986 200.16C218.68 201.452 217.335 200.715 216.603 200.384L213.257 198.868L216.126 201.948C215.208 201.933 214.316 201.644 213.572 201.12L210.439 198.943L205.229 197.453L203.399 197.734Z" fill="white" stroke="#263238" stroke-width="1.15613" stroke-linecap="round" stroke-linejoin="round"/>
  <path d="M171.287 180.911L170.784 179.967C170.265 178.999 169.771 178.022 169.32 177.02C168.035 174.156 164.11 166.539 158.9 166.539C155.69 166.539 154.601 168.551 154.32 170.562C154.075 172.583 154.536 174.624 155.631 176.358L161.437 185.928L171.287 180.911Z" fill="#56BDE6" stroke="#263238" stroke-width="1.15613" stroke-linecap="round" stroke-linejoin="round"/>
  <path d="M142.384 225.386C142.384 225.386 142.384 236.389 143.363 245.96C144.342 255.53 144.598 266.301 143.61 267.982C142.623 269.663 137.71 278.033 136.723 282.098C135.735 286.163 135.02 303.151 133.522 306.985C132.024 310.818 131.555 313.442 132.543 313.923C133.53 314.403 145.406 314.933 147.96 315.231C150.514 315.529 153.622 314.759 153.69 313.773C153.758 312.788 149.22 311.132 145.526 308.599C141.831 306.066 142.12 302.911 142.12 300.519C142.12 298.126 147.782 283.29 152.455 272.527C157.129 261.764 161.309 234.957 161.309 230.652V223.474" fill="#263238"/>
  <path d="M142.384 225.386C142.384 225.386 142.384 236.389 143.363 245.96C144.342 255.53 144.598 266.301 143.61 267.982C142.623 269.663 137.71 278.033 136.723 282.098C135.735 286.163 135.02 303.151 133.522 306.985C132.024 310.818 131.555 313.442 132.543 313.923C133.53 314.403 145.406 314.933 147.96 315.231C150.514 315.529 153.622 314.759 153.69 313.773C153.758 312.788 149.22 311.132 145.526 308.599C141.831 306.066 142.12 302.911 142.12 300.519C142.12 298.126 147.782 283.29 152.455 272.527C157.129 261.764 161.309 234.957 161.309 230.652V223.474" stroke="#263238" stroke-width="1.15613" stroke-linecap="round" stroke-linejoin="round"/>
  <path d="M145.526 308.599C141.822 306.066 142.12 302.911 142.12 300.519C142.181 299.831 142.315 299.151 142.52 298.49C139.957 298.5 137.418 298.008 135.054 297.042C134.62 301.388 134.126 305.362 133.505 306.976C132.032 310.801 131.538 313.434 132.526 313.914C133.513 314.394 145.389 314.924 147.943 315.222C150.497 315.52 153.605 314.75 153.673 313.765C153.741 312.78 149.22 311.132 145.526 308.599Z" fill="white" stroke="#263238" stroke-width="1.15613" stroke-linecap="round" stroke-linejoin="round"/>
  <path d="M153.69 313.773C153.766 312.788 149.22 311.132 145.526 308.599C144.213 307.769 143.205 306.554 142.648 305.13C142.194 305.12 141.75 305.267 141.397 305.544C140.409 306.504 140.171 309.377 140.171 309.377L133.224 307.804C131.989 311.182 131.632 313.475 132.543 313.923C133.454 314.37 145.406 314.933 147.96 315.231C150.514 315.529 153.622 314.759 153.69 313.773Z" fill="white" stroke="#263238" stroke-width="1.15613" stroke-linecap="round" stroke-linejoin="round"/>
  <path d="M175.041 135.542C175.041 135.542 177.731 139.566 177.731 141.776C177.731 143.987 177.11 145.808 177.11 147.215C177.11 148.623 178.353 150.229 178.353 151.438C178.353 152.647 176.488 157.879 175.254 159.286C174.019 160.694 172.768 162.11 170.486 161.903C168.205 161.696 161.973 155.867 161.973 155.867C161.973 155.867 158.866 158.086 157.827 154.46C156.789 150.833 156.797 149.029 158.449 148.623C158.932 148.512 159.438 148.53 159.911 148.676C160.385 148.821 160.809 149.089 161.139 149.451C161.139 149.451 169.209 149.053 171.908 144.624C173.572 141.833 174.637 138.744 175.041 135.542Z" fill="white" stroke="#263238" stroke-width="1.15613" stroke-linecap="round" stroke-linejoin="round"/>
  <path d="M162.007 155.867C162.007 155.867 168.213 161.704 170.52 161.903C172.828 162.101 174.045 160.702 175.288 159.286C176.531 157.871 178.387 152.663 178.387 151.438C178.242 150.523 177.955 149.635 177.535 148.805C170.81 150.461 161.215 149.426 161.215 149.426L168.256 151.645L167.013 156.877L162.007 155.867Z" fill="#56BDE6" stroke="#263238" stroke-width="1.15613" stroke-linecap="round" stroke-linejoin="round"/>
  <path d="M175.33 147.323C175.33 148.101 175.058 148.731 174.735 148.731C174.411 148.731 174.139 148.101 174.139 147.323C174.139 146.545 174.403 145.916 174.735 145.916C175.067 145.916 175.33 146.553 175.33 147.323Z" fill="#263238"/>
  <path d="M173.117 144.765C173.117 144.765 173.968 142.116 176.012 144.103" stroke="#263238" stroke-width="1.15613" stroke-linecap="round" stroke-linejoin="round"/>
  <path d="M254.044 305.445C254.044 305.445 245.19 310.329 242.764 311.464C240.338 312.598 238.72 313.484 243.139 314.668C247.557 315.852 259.944 315.024 262.012 314.916C264.081 314.808 264.941 315.371 264.822 313.161C264.703 310.95 264.822 305.503 264.822 305.503C264.822 305.503 255.287 305.975 254.044 305.445Z" fill="white" stroke="#263238" stroke-width="1.15613" stroke-linecap="round" stroke-linejoin="round"/>
  <path d="M254.725 174.288C254.725 174.288 248.306 185.357 248.102 188.362C247.898 191.368 247.898 192.99 247.898 192.99C247.898 192.99 242.926 204.465 241.274 210.501C239.623 216.536 242.517 225.196 243.76 228.011C245.003 230.826 246.45 233.45 246.45 233.45C246.45 233.45 248.723 255.804 248.928 262.427C249.132 269.05 251.413 278.157 252.239 284.159C253.065 290.162 255.142 300.469 255.142 300.469C255.142 300.469 252.861 301.876 252.861 302.878C252.861 303.88 252.656 305.9 252.656 305.9C254.08 306.034 255.474 306.375 256.794 306.91C259.697 307.912 265.307 307.109 265.307 307.109C265.979 303.315 266.395 299.481 266.55 295.634C266.55 291.205 268.202 277.718 267.58 273.09C266.959 268.462 266.346 260.812 266.55 259.844C266.754 258.875 268.823 238.318 268.823 238.318C271.889 233.998 273.547 228.88 273.582 223.631C273.582 214.971 273.173 213.158 273.173 213.158C273.173 213.158 275.446 187.195 274.416 178.138C273.386 169.08 268.389 166.887 268.389 166.887L254.725 174.288Z" fill="#263238" stroke="#263238" stroke-width="1.15613" stroke-linecap="round" stroke-linejoin="round"/>
  <path d="M274.391 178.113C273.352 169.056 268.389 166.845 268.389 166.845L254.725 174.296C254.725 174.296 248.306 185.365 248.102 188.371C247.897 191.376 247.897 192.999 247.897 192.999C247.897 192.999 242.926 204.473 241.274 210.509C240.853 212.176 240.692 213.895 240.797 215.609C243.181 217.414 248.459 220.179 258.037 219.748C266.218 219.392 270.892 217.265 273.361 215.567C273.331 214.736 273.251 213.906 273.122 213.084C273.122 213.084 275.421 187.17 274.391 178.113Z" fill="white" stroke="#263238" stroke-width="1.15613" stroke-linecap="round" stroke-linejoin="round"/>
  <path d="M252.035 131.22C252.035 131.22 244.169 134.64 243.343 138.672C242.517 142.703 243.964 148.739 243.964 149.741C243.964 150.742 241.07 153.566 242.1 154.369C242.383 154.604 242.713 154.779 243.069 154.883C243.425 154.987 243.8 155.018 244.169 154.973C245.057 157.316 246.095 159.602 247.276 161.82C247.602 162.434 248.114 162.937 248.742 163.261C249.371 163.585 250.086 163.715 250.792 163.633C251.413 163.633 253.695 163.227 253.695 163.227L256.385 170.877L266.107 163.426C266.107 163.426 264.456 159.005 265.256 156.587C266.056 154.17 270.015 150.146 270.636 144.31C271.258 138.473 265.46 131.229 260.497 130.417C257.655 129.912 254.723 130.191 252.035 131.22Z" fill="white" stroke="#263238" stroke-width="1.15613" stroke-linecap="round" stroke-linejoin="round"/>
  <path d="M260.523 130.409C257.661 129.902 254.711 130.189 252.009 131.237C252.009 131.237 251.311 131.543 250.307 132.065C252.009 131.369 254.938 130.616 255.517 133.447C256.368 137.471 250.971 140.071 251.797 141.9C252.622 143.73 255.73 144.318 256.555 146.528C257.381 148.739 258.42 149.749 259.246 148.747C260.071 147.745 259.663 145.725 261.11 145.32C262.557 144.914 264.652 147.927 264.652 150.328C264.652 152.729 261.961 153.756 261.961 153.756C262.347 154.333 262.866 154.815 263.476 155.164C264.086 155.513 264.771 155.72 265.477 155.768C265.528 155.764 265.58 155.764 265.631 155.768C266.882 153.284 270.1 149.525 270.653 144.293C271.283 138.465 265.503 131.22 260.523 130.409Z" fill="#B2B2B2" stroke="#263238" stroke-width="1.15613" stroke-linecap="round" stroke-linejoin="round"/>
  <path d="M244.169 154.965C244.169 154.965 250.792 153.16 252.682 153.963C254.572 154.766 251.831 156.985 249.575 157.382C247.319 157.78 244.169 158.185 244.169 154.965Z" fill="#B2B2B2" stroke="#263238" stroke-width="1.15613" stroke-linecap="round" stroke-linejoin="round"/>
  <path d="M247.693 148.126C247.693 149.012 247.412 149.732 247.072 149.732C246.731 149.732 246.45 149.012 246.45 148.126C246.45 147.24 246.723 146.47 247.072 146.47C247.421 146.47 247.693 147.232 247.693 148.126Z" fill="#263238"/>
  <path d="M245.412 144.906C245.882 144.514 246.491 144.316 247.109 144.353C247.727 144.39 248.306 144.659 248.723 145.104" stroke="#263238" stroke-width="1.15613" stroke-linecap="round" stroke-linejoin="round"/>
  <path d="M253.695 163.219C253.695 163.219 258.863 162.01 260.931 157.788" stroke="#263238" stroke-width="1.15613" stroke-linecap="round" stroke-linejoin="round"/>
  <path d="M252.452 171.854L253.899 176.275L270.075 166.613L268.21 160.984C268.21 160.984 253.899 169.263 252.452 171.854Z" fill="white" stroke="#263238" stroke-width="1.15613" stroke-linecap="round" stroke-linejoin="round"/>
  <path d="M258.863 203.679C258.863 203.679 241.896 204.68 238.167 204.68C235.437 204.586 232.729 204.18 230.096 203.472C230.096 203.472 228.028 200.657 227.202 199.854C226.376 199.051 224.512 198.844 222.647 198.844C220.783 198.844 219.131 198.016 219.131 199.249C219.131 200.483 219.982 200.458 220.783 200.855L223.269 202.064C223.269 202.064 217.054 202.271 216.228 202.271C215.402 202.271 213.538 201.062 213.742 202.669C213.947 204.275 215.402 204.482 216.85 204.482C218.297 204.482 223.056 206.692 224.512 206.692C225.967 206.692 229.679 206.899 229.679 206.899C229.679 206.899 238.192 208.505 243.76 210.724C249.328 212.943 262.387 213.738 263.834 212.736C265.282 211.734 265.503 203.679 265.503 203.679H258.863Z" fill="white" stroke="#263238" stroke-width="1.15613" stroke-linecap="round" stroke-linejoin="round"/>
  <path d="M256.385 184.761L254.929 203.314C256.765 204.687 259.034 205.398 261.348 205.326C264.138 205.278 266.915 204.942 269.632 204.324C269.632 204.324 271.079 185.605 270.245 181.781C269.411 177.956 268.593 177.351 266.729 177.351" fill="white"/>
  <path d="M256.385 184.761L254.929 203.314C256.765 204.687 259.034 205.398 261.348 205.326C264.138 205.278 266.915 204.942 269.632 204.324C269.632 204.324 271.079 185.605 270.245 181.781C269.411 177.956 268.593 177.351 266.729 177.351" stroke="#263238" stroke-width="1.15613" stroke-linecap="round" stroke-linejoin="round"/>
  <path d="M69.2383 304.981C69.2383 304.981 59.2437 310.04 56.7749 311.224C54.306 312.407 52.663 313.351 57.1665 314.618C61.67 315.885 74.2952 315.024 76.3979 314.916C78.5007 314.808 79.3861 315.404 79.2584 313.061C79.1307 310.719 78.8327 306.057 78.8327 306.057C78.8327 306.057 70.5493 305.561 69.2383 304.981Z" fill="white" stroke="#263238" stroke-width="1.15613" stroke-linecap="round" stroke-linejoin="round"/>
  <path d="M113.431 303.913C112.747 305.74 111.85 307.485 110.757 309.112C109.344 310.95 105.249 313.252 105.249 314.163V315.082H121.535C121.535 315.082 123.34 313.699 123.34 312.598C123.34 311.497 122.395 304.799 122.395 304.799L113.431 303.913Z" fill="white" stroke="#263238" stroke-width="1.15613" stroke-linecap="round" stroke-linejoin="round"/>
  <path d="M79.7777 219.947C79.7777 219.947 76.4746 230.047 73.4864 240.289C70.4982 250.53 66.8801 262.642 66.2501 267.667C65.6202 272.693 69.8683 301.156 69.8683 301.156C69.5228 301.367 69.2399 301.662 69.0473 302.012C68.8548 302.362 68.7592 302.755 68.7701 303.151C68.828 303.781 68.9859 304.398 69.2383 304.981C69.2383 304.981 74.5846 306.364 75.9978 306.364C76.9507 306.35 77.9 306.247 78.8327 306.057C78.8327 306.057 79.6159 276.253 79.6159 272.718C79.6534 270.976 79.5481 269.235 79.301 267.51L93.0158 236.19L95.5017 236.77C95.5017 236.77 97.8599 264.919 98.4898 268.28C99.1198 271.641 112.486 300.568 112.486 300.568C112.486 300.568 112.017 302.862 112.486 303.93C112.737 304.409 112.898 304.927 112.962 305.461C114.247 305.764 115.565 305.917 116.887 305.917C118.762 305.786 120.612 305.428 122.395 304.849C122.395 304.849 122.08 302.704 121.612 300.568C121.09 298.605 120.459 296.67 119.722 294.773L112.171 264.968C112.171 264.968 114.725 227.506 114.529 223.681C114.379 221.172 113.851 218.697 112.962 216.337C112.962 216.337 93.6117 224.385 79.7777 219.947Z" fill="#263238" stroke="#263238" stroke-width="1.15613" stroke-linecap="round" stroke-linejoin="round"/>
  <path d="M77.7515 169.42C77.7515 169.42 69.5788 169.023 65.4839 171.606C61.3891 174.189 60.9889 183.138 60.376 184.331C59.763 185.523 55.881 201.029 55.4723 203.223C55.0637 205.417 59.1501 209.78 60.7846 208.787C62.4192 207.793 69.1702 190.896 69.1702 190.896C69.1702 190.896 78.9774 208.398 79.7947 210.186C80.612 211.974 79.3861 221.52 79.3861 221.52C79.3861 221.52 81.6421 225.66 92.4795 225.295C103.317 224.931 113.763 219.334 113.763 219.334C113.763 219.334 111.924 208.398 111.515 206.212C111.106 204.026 109.881 184.537 107.633 176.979C105.386 169.42 100.882 166.638 97.4171 166.638C93.3196 166.608 89.2236 166.807 85.1495 167.234C82.6453 167.834 80.1758 168.564 77.7515 169.42Z" fill="white" stroke="#263238" stroke-width="1.15613" stroke-linecap="round" stroke-linejoin="round"/>
  <path d="M73.2565 170.612C73.2565 170.612 81.0292 181.549 83.0723 182.344C85.1155 183.138 88.1803 170.612 88.1803 170.612L86.5457 161.265C86.5457 161.265 77.7515 162.656 74.0738 164.246C70.3961 165.835 73.2565 170.612 73.2565 170.612Z" fill="white" stroke="#263238" stroke-width="1.15613" stroke-linecap="round" stroke-linejoin="round"/>
  <path d="M70.1918 169.42C70.1918 169.42 75.5041 175.977 78.5688 176.374C81.6336 176.772 83.6768 176.374 85.1155 172.996C85.9243 171.076 86.1371 163.649 86.1371 163.649L68.9659 167.789L70.1918 169.42Z" fill="white" stroke="#263238" stroke-width="1.15613" stroke-linecap="round" stroke-linejoin="round"/>
  <path d="M69.7831 143.573C67.4905 145.143 65.657 147.265 64.4624 149.732C62.8278 153.508 66.7099 162.06 66.7099 162.06C66.7099 162.06 65.4839 169.023 67.5612 169.619C69.6384 170.215 76.5597 170.447 80.8589 168.625C85.1581 166.804 87.6014 163.658 87.8057 162.83C88.01 162.002 87.3971 156.074 87.3971 156.074C87.3971 156.074 86.7245 149.501 83.481 144.533C82.221 142.654 73.0522 140.981 69.7831 143.573Z" fill="#263238" stroke="#263238" stroke-width="1.15613" stroke-linecap="round" stroke-linejoin="round"/>
  <path d="M72.8479 146.553C72.8479 146.553 71.2134 146.951 68.5913 150.13C65.9692 153.309 65.9267 158.285 65.9267 158.285L65.4244 158.624C66.0884 160.594 66.7439 162.06 66.7439 162.06C66.7439 162.06 65.518 169.023 67.5953 169.619C69.6725 170.215 76.5938 170.447 80.893 168.625C85.1921 166.804 87.6355 163.658 87.8398 162.83C88.0441 162.002 87.4311 156.074 87.4311 156.074C81.8464 146.951 72.8479 146.553 72.8479 146.553Z" fill="white" stroke="#263238" stroke-width="1.15613" stroke-linecap="round" stroke-linejoin="round"/>
  <path d="M87.7716 162.855C87.976 162.027 87.363 156.099 87.363 156.099C87.363 156.099 87.363 156.041 87.363 155.95C77.5728 164.866 66.7269 162.06 66.7269 162.06C66.7269 162.06 65.501 169.023 67.5782 169.619C69.6554 170.215 76.5767 170.447 80.8759 168.625C85.1751 166.804 87.5758 163.649 87.7716 162.855Z" fill="#263238" stroke="#263238" stroke-width="1.15613" stroke-linecap="round" stroke-linejoin="round"/>
  <path d="M58.6308 190.258C57.3112 195.284 55.7022 201.849 55.4468 203.223C55.0297 205.409 59.1246 209.78 60.7591 208.787C61.7977 208.158 64.888 201.12 67.0163 196.062L58.6308 190.258Z" fill="white" stroke="#263238" stroke-width="1.15613" stroke-linecap="round" stroke-linejoin="round"/>
  <path d="M55.6767 201.029C55.6767 201.029 54.0336 208.986 54.2379 212.363C54.4422 215.741 66.0969 232.846 66.0969 232.846L67.1185 228.706C67.1185 228.706 63.4408 212.595 63.0321 209.615C62.779 207.692 62.6425 205.757 62.6235 203.819" fill="white"/>
  <path d="M55.6767 201.029C55.6767 201.029 54.0336 208.986 54.2379 212.363C54.4422 215.741 66.0969 232.846 66.0969 232.846L67.1185 228.706C67.1185 228.706 63.4408 212.595 63.0321 209.615C62.779 207.692 62.6425 205.757 62.6235 203.819" stroke="#263238" stroke-width="1.15613" stroke-linecap="round" stroke-linejoin="round"/>
  <path d="M64.4198 239.303C64.2852 240.085 64.3981 240.887 64.7433 241.605C65.3137 242.549 68.6594 243.501 68.736 242.946C68.8126 242.391 68.8211 240.57 68.8211 240.57L64.4198 239.303Z" fill="white" stroke="#263238" stroke-width="1.15613" stroke-linecap="round" stroke-linejoin="round"/>
  <path d="M64.1729 237.797C64.0437 238.579 64.1594 239.381 64.5049 240.098C65.0753 241.05 68.4125 241.994 68.4976 241.439C68.5828 240.885 68.5743 239.063 68.5743 239.063L64.1729 237.797Z" fill="white" stroke="#263238" stroke-width="1.15613" stroke-linecap="round" stroke-linejoin="round"/>
  <path d="M63.8494 235.735C63.7149 236.516 63.8277 237.319 64.1729 238.037C64.7433 238.989 68.089 239.941 68.1656 239.386C68.2423 238.832 68.2508 237.002 68.2508 237.002L63.8494 235.735Z" fill="white" stroke="#263238" stroke-width="1.15613" stroke-linecap="round" stroke-linejoin="round"/>
  <path d="M66.7099 227.68C66.7099 227.68 63.6451 234.237 63.6451 235.23C63.6451 236.224 67.9017 238.211 67.9017 238.211L68.106 225.486L66.7099 227.68Z" fill="white" stroke="#263238" stroke-width="1.15613" stroke-linecap="round" stroke-linejoin="round"/>
  <path d="M109.37 224.674H66.6928V261.93H109.37V224.674Z" fill="#56BDE6" stroke="#263238" stroke-width="1.15613" stroke-linecap="round" stroke-linejoin="round"/>
  <path d="M90.4918 257.692C97.1065 256.165 101.195 249.711 99.6243 243.279C98.0533 236.846 91.4175 232.87 84.8028 234.397C78.188 235.925 74.0993 242.378 75.6702 248.811C77.2412 255.244 83.877 259.22 90.4918 257.692Z" fill="white"/>
  <path d="M79.6841 240.024C82.5333 241.372 85.5953 242.245 88.7422 242.607C93.9353 243.195 96.2338 242.491 96.2338 242.491C95.6168 245.319 95.3002 248.202 95.2889 251.093C95.3825 253.411 87.5333 253.883 83.4299 252.351C81.5665 251.71 79.8086 250.809 78.2113 249.677C78.2113 249.677 78.4837 242.839 79.6841 240.024Z" fill="white" stroke="#263238" stroke-width="1.15613" stroke-linecap="round" stroke-linejoin="round"/>
  <path d="M79.3265 242.607C79.3265 242.607 85.3624 247.069 95.5017 245.306" stroke="#263238" stroke-width="1.15613" stroke-linecap="round" stroke-linejoin="round"/>
  <path d="M78.7221 245.19C78.7221 245.19 83.6002 250.389 94.9824 247.963" stroke="#263238" stroke-width="1.15613" stroke-linecap="round" stroke-linejoin="round"/>
  <path d="M78.356 248.021C78.356 248.021 88.0185 253.775 95.1441 250.505" stroke="#263238" stroke-width="1.15613" stroke-linecap="round" stroke-linejoin="round"/>
  <path d="M96.2338 242.491C96.2338 242.491 100.099 238.351 101.18 240.959C102.261 243.567 100.695 249.768 95.5102 251.532" stroke="#263238" stroke-width="1.15613" stroke-linecap="round" stroke-linejoin="round"/>
  <path d="M79.6841 240.024C79.6841 240.024 79.8118 236.621 77.7516 236.033C75.6914 235.445 76.3043 244.602 78.2368 249.064" stroke="#263238" stroke-width="1.15613" stroke-linecap="round" stroke-linejoin="round"/>
  <path d="M91.2195 224.674H84.8346V231.207H91.2195V224.674Z" fill="white" stroke="#263238" stroke-width="1.15613" stroke-linecap="round" stroke-linejoin="round"/>
  <path d="M95.4506 229.94L112.103 206.999C112.68 206.534 113.107 205.918 113.332 205.223C113.557 204.528 113.571 203.785 113.371 203.083C112.954 201.849 105.479 172.748 105.479 172.748C105.479 172.748 101.308 165.852 96.8979 170.066C93.3223 173.493 95.9188 181.309 97.017 184.14C97.4001 185.125 97.7492 186.119 98.0642 187.129L102.048 203.728L90.7257 228.565C90.7257 228.565 85.9754 231 85.2262 231.463C84.477 231.927 82.9702 233.997 82.0848 235.065C81.1994 236.133 79.6585 236.364 80.6801 236.96C81.7017 237.557 82.3828 236.82 82.868 236.422L85.2602 234.427L83.0042 241.514C82.9393 241.713 82.9542 241.928 83.0457 242.117C83.1373 242.306 83.2988 242.454 83.498 242.532C83.6996 242.612 83.9249 242.613 84.1275 242.536C84.3302 242.459 84.4949 242.31 84.5877 242.118L86.8692 237.432L86.3755 242.822C86.3587 243.021 86.4221 243.219 86.5523 243.373C86.6826 243.528 86.8695 243.627 87.0736 243.65C87.2554 243.671 87.4391 243.63 87.5941 243.536C87.749 243.441 87.8658 243.297 87.9249 243.128L89.6275 238.161L89.5424 242.574L89.7638 243.708C91.0152 244.105 91.0578 242.656 91.1344 241.903L91.5005 238.467L92.7008 242.292C93.1663 241.547 93.3778 240.678 93.3053 239.808L92.9988 236.215L94.3098 231.289L95.4506 229.94Z" fill="white" stroke="#263238" stroke-width="1.15613" stroke-linecap="round" stroke-linejoin="round"/>
  <path d="M98.3707 188.081L98.0642 187.104C97.7492 186.094 97.4002 185.1 97.0171 184.115C95.9189 181.309 93.3223 173.493 96.8979 170.041C101.308 165.827 105.479 172.723 105.479 172.723C105.479 172.723 107.012 178.75 108.629 185.042L98.3707 188.081Z" fill="white" stroke="#263238" stroke-width="1.15613" stroke-linecap="round" stroke-linejoin="round"/>
  <path d="M117.926 262.013H57.2772V314.957H117.926V262.013Z" fill="#56BDE6" stroke="#263238" stroke-width="1.15613" stroke-linecap="round" stroke-linejoin="round"/>
  <path d="M86.699 306.885C95.8297 306.885 103.232 299.687 103.232 290.807C103.232 281.928 95.8297 274.729 86.699 274.729C77.5682 274.729 70.1662 281.928 70.1662 290.807C70.1662 299.687 77.5682 306.885 86.699 306.885Z" fill="white"/>
  <path d="M76.0319 282.694C79.8585 284.506 83.9707 285.682 88.1973 286.171C95.1782 286.958 98.26 286.014 98.26 286.014C98.26 286.014 96.7872 292.637 96.9915 297.604C97.1192 300.717 86.5798 301.347 81.0632 299.26C78.5707 298.386 76.222 297.165 74.0909 295.634C74.0909 295.634 74.4144 286.486 76.0319 282.694Z" fill="white" stroke="#263238" stroke-width="1.15613" stroke-linecap="round" stroke-linejoin="round"/>
  <path d="M75.5466 286.171C75.5466 286.171 83.6597 292.165 97.2809 289.797" stroke="#263238" stroke-width="1.15613" stroke-linecap="round" stroke-linejoin="round"/>
  <path d="M74.7379 289.64C74.7379 289.64 81.2931 296.619 96.5829 293.366" stroke="#263238" stroke-width="1.15613" stroke-linecap="round" stroke-linejoin="round"/>
  <path d="M74.2526 293.424C74.2526 293.424 87.2268 301.156 96.7957 296.735" stroke="#263238" stroke-width="1.15613" stroke-linecap="round" stroke-linejoin="round"/>
  <path d="M98.26 286.014C98.26 286.014 103.445 280.492 104.909 283.961C106.373 287.43 104.262 295.791 97.2469 298.159" stroke="#263238" stroke-width="1.15613" stroke-linecap="round" stroke-linejoin="round"/>
  <path d="M76.0319 282.694C76.0319 282.694 76.2021 278.124 73.4779 277.337C70.7536 276.551 71.5283 288.854 74.1249 294.848" stroke="#263238" stroke-width="1.15613" stroke-linecap="round" stroke-linejoin="round"/>
  <path d="M91.228 262.013H85.8477V270.789H91.228V262.013Z" fill="white" stroke="#263238" stroke-width="1.15613" stroke-linecap="round" stroke-linejoin="round"/>
  <path d="M61.6615 240.049H18.9846V277.304H61.6615V240.049Z" fill="#56BDE6" stroke="#263238" stroke-width="1.15613" stroke-linecap="round" stroke-linejoin="round"/>
  <path d="M43.2473 273.086C49.8504 271.511 53.8904 265.029 52.271 258.608C50.6516 252.186 43.9859 248.258 37.3829 249.832C30.7799 251.407 26.7399 257.89 28.3593 264.311C29.9787 270.732 36.6443 274.661 43.2473 273.086Z" fill="white"/>
  <path d="M32.3759 255.414C35.2234 256.767 38.2862 257.641 41.434 257.997C46.6271 258.585 48.9257 257.882 48.9257 257.882C48.3081 260.713 47.9914 263.598 47.9807 266.492C48.0743 268.802 40.2251 269.274 36.1217 267.75C34.2658 267.099 32.5166 266.19 30.9286 265.051C30.9286 265.051 31.1755 258.238 32.3759 255.414Z" fill="white" stroke="#263238" stroke-width="1.15613" stroke-linecap="round" stroke-linejoin="round"/>
  <path d="M32.0183 257.997C32.0183 257.997 38.0542 262.46 48.1935 260.705" stroke="#263238" stroke-width="1.15613" stroke-linecap="round" stroke-linejoin="round"/>
  <path d="M31.3884 260.589C31.3884 260.589 36.2665 265.788 47.6572 263.362" stroke="#263238" stroke-width="1.15613" stroke-linecap="round" stroke-linejoin="round"/>
  <path d="M31.0478 263.404C31.0478 263.404 40.7104 269.158 47.836 265.887" stroke="#263238" stroke-width="1.15613" stroke-linecap="round" stroke-linejoin="round"/>
  <path d="M48.9257 257.882C48.9257 257.882 52.7907 253.742 53.8719 256.358C54.9531 258.974 53.3951 265.167 48.2021 266.931" stroke="#263238" stroke-width="1.15613" stroke-linecap="round" stroke-linejoin="round"/>
  <path d="M32.3759 255.414C32.3759 255.414 32.5036 252.012 30.4519 251.424C28.4002 250.836 28.9962 260.001 30.9287 264.463" stroke="#263238" stroke-width="1.15613" stroke-linecap="round" stroke-linejoin="round"/>
  <path d="M43.5112 240.049H37.1263V246.581H43.5112V240.049Z" fill="white" stroke="#263238" stroke-width="1.15613" stroke-linecap="round" stroke-linejoin="round"/>
  <path d="M61.6615 277.702H18.9846V314.957H61.6615V277.702Z" fill="#56BDE6" stroke="#263238" stroke-width="1.15613" stroke-linecap="round" stroke-linejoin="round"/>
  <path d="M48.6503 307.915C53.6548 303.44 53.9812 295.866 49.3793 291C44.7775 286.133 36.9899 285.815 31.9854 290.291C26.9809 294.766 26.6545 302.339 31.2564 307.206C35.8583 312.073 43.6458 312.39 48.6503 307.915Z" fill="white"/>
  <path d="M32.3759 293.068C35.2252 294.416 38.2872 295.289 41.434 295.651C46.6271 296.238 48.9257 295.535 48.9257 295.535C48.3087 298.363 47.992 301.245 47.9807 304.137C48.0743 306.455 40.2251 306.927 36.1217 305.395C34.2658 304.744 32.5166 303.835 30.9286 302.696C30.9286 302.696 31.1755 295.882 32.3759 293.068Z" fill="white" stroke="#263238" stroke-width="1.15613" stroke-linecap="round" stroke-linejoin="round"/>
  <path d="M32.0183 295.651C32.0183 295.651 38.0542 300.113 48.1935 298.35" stroke="#263238" stroke-width="1.15613" stroke-linecap="round" stroke-linejoin="round"/>
  <path d="M31.3884 298.234C31.3884 298.234 36.2665 303.433 47.6572 301.007" stroke="#263238" stroke-width="1.15613" stroke-linecap="round" stroke-linejoin="round"/>
  <path d="M31.0478 301.049C31.0478 301.049 40.7529 306.803 47.836 303.491" stroke="#263238" stroke-width="1.15613" stroke-linecap="round" stroke-linejoin="round"/>
  <path d="M48.9257 295.535C48.9257 295.535 52.7907 291.395 53.8719 294.003C54.9531 296.611 53.3951 302.812 48.2021 304.575" stroke="#263238" stroke-width="1.15613" stroke-linecap="round" stroke-linejoin="round"/>
  <path d="M32.3759 293.068C32.3759 293.068 32.5036 289.665 30.4519 289.077C28.4002 288.489 28.9962 297.646 30.9287 302.108" stroke="#263238" stroke-width="1.15613" stroke-linecap="round" stroke-linejoin="round"/>
  <path d="M43.5112 277.702H37.1263V284.234H43.5112V277.702Z" fill="white" stroke="#263238" stroke-width="1.15613" stroke-linecap="round" stroke-linejoin="round"/>
  <path d="M0 315.297H357.94" stroke="#263238" stroke-width="1.15613" stroke-linecap="round" stroke-linejoin="round"/>
</svg>
