<svg width="360" height="268" viewBox="0 0 360 268" fill="none" xmlns="http://www.w3.org/2000/svg">
<path d="M360 235.514H0V235.694H360V235.514Z" fill="#EBEBEB"/>
<path d="M313.682 247.089H300.082V247.268H313.682V247.089Z" fill="#EBEBEB"/>
<path d="M232.214 245.837H210.996V246.017H232.214V245.837Z" fill="#EBEBEB"/>
<path d="M299.362 240.413H265.442V240.593H299.362V240.413Z" fill="#EBEBEB"/>
<path d="M45.6695 241.622H37.7711V241.801H45.6695V241.622Z" fill="#EBEBEB"/>
<path d="M79.8408 241.622H52.0776V241.801H79.8408V241.622Z" fill="#EBEBEB"/>
<path d="M162.108 244.657H123.12V244.837H162.108V244.657Z" fill="#EBEBEB"/>
<path d="M170.64 203.431H31.6152C30.5261 203.429 29.4822 202.996 28.7128 202.226C27.9433 201.456 27.5112 200.412 27.5112 199.324V4.07151C27.5207 2.98962 27.957 1.95517 28.7254 1.19283C29.4938 0.430499 30.5323 0.00185332 31.6152 0H170.64C171.73 0 172.776 0.43275 173.547 1.20305C174.318 1.97335 174.751 3.0181 174.751 4.10747V199.324C174.751 200.413 174.318 201.458 173.547 202.228C172.776 202.999 171.73 203.431 170.64 203.431ZM31.6152 0.14387C30.5738 0.145776 29.5757 0.560418 28.84 1.29679C28.1044 2.03315 27.6912 3.03108 27.6912 4.07151V199.324C27.6912 200.364 28.1044 201.362 28.84 202.099C29.5757 202.835 30.5738 203.25 31.6152 203.252H170.64C171.682 203.25 172.681 202.835 173.418 202.099C174.154 201.363 174.569 200.365 174.571 199.324V4.07151C174.569 3.03042 174.154 2.03251 173.418 1.29635C172.681 0.560185 171.682 0.145772 170.64 0.14387H31.6152Z" fill="#EBEBEB"/>
<path d="M326.383 203.431H187.351C186.261 203.429 185.217 202.996 184.446 202.226C183.676 201.456 183.242 200.413 183.24 199.324V4.07151C183.251 2.98897 183.689 1.95452 184.459 1.19238C185.228 0.430248 186.268 0.00183311 187.351 0H326.383C327.465 0.00374384 328.501 0.433226 329.268 1.19536C330.035 1.95749 330.471 2.99087 330.48 4.07151V199.324C330.48 200.411 330.049 201.453 329.281 202.223C328.513 202.993 327.471 203.428 326.383 203.431ZM187.351 0.14387C186.309 0.145772 185.31 0.560185 184.574 1.29635C183.837 2.03251 183.422 3.03042 183.42 4.07151V199.324C183.422 200.365 183.837 201.363 184.574 202.099C185.31 202.835 186.309 203.25 187.351 203.252H326.383C327.425 203.25 328.424 202.835 329.161 202.099C329.898 201.363 330.312 200.365 330.314 199.324V4.07151C330.312 3.03042 329.898 2.03251 329.161 1.29635C328.424 0.560185 327.425 0.145772 326.383 0.14387H187.351Z" fill="#EBEBEB"/>
<path d="M313.682 247.089H300.082V247.268H313.682V247.089Z" fill="#EBEBEB"/>
<path d="M232.214 245.837H210.996V246.017H232.214V245.837Z" fill="#EBEBEB"/>
<path d="M299.362 240.413H265.442V240.593H299.362V240.413Z" fill="#EBEBEB"/>
<path d="M45.6695 241.622H37.7711V241.801H45.6695V241.622Z" fill="#EBEBEB"/>
<path d="M79.8408 241.622H52.0776V241.801H79.8408V241.622Z" fill="#EBEBEB"/>
<path d="M162.108 244.657H123.12V244.837H162.108V244.657Z" fill="#EBEBEB"/>
<path d="M144.548 223.497C148.662 213.573 143.945 202.194 134.011 198.083C124.077 193.972 112.689 198.685 108.574 208.61C104.459 218.535 109.177 229.913 119.11 234.024C129.044 238.135 140.433 233.422 144.548 223.497Z" fill="#E0E0E0"/>
<path d="M265.653 229.809C273.256 222.213 273.256 209.897 265.653 202.301C258.05 194.705 245.723 194.705 238.12 202.301C230.517 209.897 230.517 222.213 238.12 229.809C245.723 237.405 258.05 237.405 265.653 229.809Z" fill="#E0E0E0"/>
<path d="M60.6888 130.662L40.3992 172.018V210.869H118.93V130.662H60.6888Z" fill="#F5F5F5"/>
<path d="M63.9575 138.064L50.9111 164.659V173.557H83.0591V138.064H63.9575Z" fill="#EBEBEB"/>
<path d="M106.985 130.662H93.312V210.869H106.985V130.662Z" fill="#E0E0E0"/>
<path d="M98.8559 210.869L285.559 210.869V117.189L98.8559 117.189V210.869Z" fill="#EBEBEB"/>
<path d="M40.3991 217.372L285.559 217.372V210.869L40.3991 210.869V217.372Z" fill="#E6E6E6"/>
<path d="M81.4253 223.502C85.54 213.577 80.8227 202.199 70.8888 198.088C60.955 193.977 49.5663 198.69 45.4516 208.615C41.3369 218.54 46.0542 229.918 55.9881 234.029C65.9219 238.14 77.3105 233.427 81.4253 223.502Z" fill="#E6E6E6"/>
<path d="M63.4391 206.453C65.3494 206.451 67.2171 207.016 68.806 208.075C70.3949 209.135 71.6335 210.641 72.3652 212.404C73.0969 214.167 73.2887 216.107 72.9164 217.979C72.544 219.851 71.6243 221.571 70.2736 222.92C68.9228 224.27 67.2018 225.189 65.3282 225.561C63.4546 225.933 61.5127 225.741 59.7481 225.01C57.9836 224.279 56.4757 223.041 55.4153 221.454C54.355 219.866 53.7897 218 53.7911 216.092C53.7949 213.537 54.8126 211.087 56.6212 209.28C58.4297 207.473 60.8815 206.456 63.4391 206.453ZM63.4391 203.575C60.9596 203.575 58.5358 204.31 56.4742 205.686C54.4126 207.063 52.806 209.019 51.8574 211.308C50.9089 213.597 50.6611 216.115 51.1453 218.545C51.6296 220.975 52.8242 223.206 54.578 224.957C56.3318 226.709 58.566 227.901 60.9981 228.383C63.4301 228.866 65.9508 228.617 68.2411 227.668C70.5315 226.719 72.4888 225.112 73.8653 223.052C75.2418 220.991 75.9758 218.569 75.9743 216.092C75.9743 214.448 75.6501 212.819 75.02 211.3C74.39 209.781 73.4665 208.401 72.3024 207.239C71.1383 206.076 69.7564 205.155 68.2356 204.526C66.7148 203.897 65.0849 203.574 63.4391 203.575Z" fill="#F5F5F5"/>
<path d="M202.536 229.811C210.139 222.215 210.139 209.899 202.536 202.303C194.933 194.707 182.606 194.707 175.003 202.303C167.4 209.899 167.4 222.215 175.003 229.811C182.606 237.407 194.933 237.407 202.536 229.811Z" fill="#E6E6E6"/>
<path d="M188.77 206.453C190.68 206.451 192.548 207.016 194.136 208.075C195.725 209.135 196.964 210.641 197.696 212.404C198.427 214.167 198.619 216.107 198.247 217.979C197.874 219.851 196.955 221.571 195.604 222.92C194.253 224.27 192.532 225.189 190.659 225.561C188.785 225.933 186.843 225.741 185.079 225.01C183.314 224.279 181.806 223.041 180.746 221.454C179.685 219.866 179.12 218 179.122 216.092C179.125 213.537 180.143 211.087 181.952 209.28C183.76 207.473 186.212 206.456 188.77 206.453ZM188.77 203.575C186.29 203.575 183.866 204.31 181.805 205.686C179.743 207.063 178.136 209.019 177.188 211.308C176.239 213.597 175.992 216.115 176.476 218.545C176.96 220.975 178.155 223.206 179.908 224.957C181.662 226.709 183.896 227.901 186.328 228.383C188.761 228.866 191.281 228.617 193.572 227.668C195.862 226.719 197.819 225.112 199.196 223.052C200.572 220.991 201.306 218.569 201.305 216.092C201.305 214.448 200.98 212.819 200.35 211.3C199.72 209.781 198.797 208.401 197.633 207.239C196.469 206.076 195.087 205.155 193.566 204.526C192.045 203.897 190.415 203.574 188.77 203.575Z" fill="#F5F5F5"/>
<path d="M282.578 123.454H218.801V208.316H282.578V123.454Z" fill="#E0E0E0"/>
<path d="M250.69 182.937H232.423V208.316H250.69V182.937Z" fill="#FAFAFA"/>
<path d="M243.9 182.937H239.213V191.627H243.9V182.937Z" fill="#F5F5F5"/>
<path d="M271.361 188.598H253.094V208.309H271.361V188.598Z" fill="#FAFAFA"/>
<path d="M250.69 208.316H253.095V188.606H250.69V208.316Z" fill="#EBEBEB"/>
<path d="M264.571 188.598H259.884V197.288H264.571V188.598Z" fill="#F5F5F5"/>
<path d="M282.578 208.309H319.601V123.447H282.578V208.309Z" fill="#F0F0F0"/>
<path d="M218.794 208.309H232.416V123.447H218.794V208.309Z" fill="#F0F0F0"/>
<path d="M168.725 189.131C184.885 189.131 197.986 176.042 197.986 159.897C197.986 143.751 184.885 130.662 168.725 130.662C152.564 130.662 139.464 143.751 139.464 159.897C139.464 176.042 152.564 189.131 168.725 189.131Z" fill="white"/>
<path d="M173.434 143.323H164.016V176.47H173.434V143.323Z" fill="#EBEBEB"/>
<path d="M185.306 164.601V155.192H152.129V164.601H185.306Z" fill="#EBEBEB"/>
<path d="M205.391 45.5034C207.778 30.8095 197.791 16.9642 183.083 14.579C168.376 12.1938 154.518 22.1721 152.131 36.866C149.744 51.5599 159.731 65.4052 174.438 67.7904C189.145 70.1756 203.003 60.1973 205.391 45.5034Z" fill="#FAFAFA"/>
<path d="M222.789 56.4584C225.41 40.3253 214.445 25.1239 198.297 22.5051C182.149 19.8863 166.934 30.8419 164.313 46.975C161.692 63.1081 172.657 78.3096 188.805 80.9283C204.953 83.5471 220.168 72.5916 222.789 56.4584Z" fill="#FAFAFA"/>
<path d="M172.887 73.1489C182.214 63.8307 182.214 48.7229 172.887 39.4047C163.561 30.0865 148.439 30.0865 139.113 39.4047C129.786 48.7229 129.786 63.8307 139.113 73.1489C148.439 82.4671 163.561 82.4671 172.887 73.1489Z" fill="#FAFAFA"/>
<path d="M130.133 72.8483C137.469 72.8483 143.417 66.9062 143.417 59.5763C143.417 52.2464 137.469 46.3044 130.133 46.3044C122.796 46.3044 116.849 52.2464 116.849 59.5763C116.849 66.9062 122.796 72.8483 130.133 72.8483Z" fill="#FAFAFA"/>
<path d="M230.384 70.2245C236.272 64.3419 236.272 54.8045 230.384 48.922C224.496 43.0395 214.95 43.0395 209.062 48.922C203.175 54.8045 203.175 64.342 209.062 70.2245C214.95 76.107 224.496 76.107 230.384 70.2245Z" fill="#FAFAFA"/>
<path d="M281.894 48.484C292.488 48.484 301.075 39.9043 301.075 29.3206C301.075 18.7369 292.488 10.1572 281.894 10.1572C271.301 10.1572 262.714 18.7369 262.714 29.3206C262.714 39.9043 271.301 48.484 281.894 48.484Z" fill="#F5F5F5"/>
<path d="M264.672 47.8222C272.72 47.8222 279.245 41.3036 279.245 33.2626C279.245 25.2216 272.72 18.703 264.672 18.703C256.624 18.703 250.099 25.2216 250.099 33.2626C250.099 41.3036 256.624 47.8222 264.672 47.8222Z" fill="#F5F5F5"/>
<path d="M297.67 53.354C307.046 53.354 314.647 45.7597 314.647 36.3918C314.647 27.0238 307.046 19.4296 297.67 19.4296C288.293 19.4296 280.692 27.0238 280.692 36.3918C280.692 45.7597 288.293 53.354 297.67 53.354Z" fill="#F5F5F5"/>
<path d="M313.071 42.2488C318.617 40.941 322.051 35.3891 320.742 29.8483C319.434 24.3074 313.877 20.8758 308.331 22.1836C302.785 23.4913 299.35 29.0432 300.659 34.5841C301.968 40.1249 307.525 43.5565 313.071 42.2488Z" fill="#F5F5F5"/>
<path d="M82.008 48.4408C91.2293 48.4408 98.7048 40.9722 98.7048 31.7592C98.7048 22.5462 91.2293 15.0775 82.008 15.0775C72.7866 15.0775 65.3112 22.5462 65.3112 31.7592C65.3112 40.9722 72.7866 48.4408 82.008 48.4408Z" fill="#F5F5F5"/>
<path d="M99.9021 40.6655C106.721 39.0575 110.945 32.2309 109.335 25.418C107.726 18.605 100.893 14.3855 94.0737 15.9935C87.2546 17.6015 83.0313 24.4281 84.6408 31.2411C86.2502 38.054 93.083 42.2735 99.9021 40.6655Z" fill="#F5F5F5"/>
<path d="M68.2704 40.3626C76.43 40.3626 83.0448 33.7538 83.0448 25.6016C83.0448 17.4493 76.43 10.8406 68.2704 10.8406C60.1107 10.8406 53.496 17.4493 53.496 25.6016C53.496 33.7538 60.1107 40.3626 68.2704 40.3626Z" fill="#F5F5F5"/>
<path d="M63.2759 35.5872C66.7822 32.0841 66.7822 26.4044 63.2759 22.9013C59.7696 19.3982 54.0848 19.3982 50.5785 22.9013C47.0723 26.4044 47.0723 32.0841 50.5785 35.5872C54.0848 39.0903 59.7696 39.0903 63.2759 35.5872Z" fill="#F5F5F5"/>
<path d="M180 268C257.099 268 319.601 264.354 319.601 259.857C319.601 255.36 257.099 251.714 180 251.714C102.901 251.714 40.3992 255.36 40.3992 259.857C40.3992 264.354 102.901 268 180 268Z" fill="#F5F5F5"/>
<path d="M101.354 219.286H53.3593V257.462H101.354V219.286Z" fill="#56BDE6"/>
<path opacity="0.7" d="M101.354 219.286H53.3593V257.462H101.354V219.286Z" fill="white"/>
<path opacity="0.4" d="M101.354 219.286H84.3696V257.462H101.354V219.286Z" fill="#56BDE6"/>
<path d="M97.2001 238.37C97.2001 242.377 95.5441 245.621 93.4993 245.621C91.4545 245.621 89.7985 242.377 89.7985 238.37C89.7985 234.363 91.4545 231.126 93.4993 231.126C95.5441 231.126 97.2001 234.371 97.2001 238.37Z" fill="white"/>
<path d="M94.1904 233.91H92.8008V242.83H94.1904V233.91Z" fill="#56BDE6"/>
<path d="M96.1416 239.55V237.198H90.8568V239.55H96.1416Z" fill="#56BDE6"/>
<path opacity="0.7" d="M65.8296 257.454H71.892V243.017H65.8296V257.454Z" fill="white"/>
<path opacity="0.7" d="M65.8296 226.055H71.892V219.286H65.8296V226.055Z" fill="white"/>
<path d="M139.838 219.286H91.8431V257.462H139.838V219.286Z" fill="#56BDE6"/>
<path opacity="0.7" d="M139.838 219.286H91.8431V257.462H139.838V219.286Z" fill="white"/>
<path opacity="0.4" d="M139.831 219.286H122.846V257.462H139.831V219.286Z" fill="#56BDE6"/>
<path d="M135.677 238.37C135.677 242.377 134.021 245.621 131.976 245.621C129.931 245.621 128.275 242.377 128.275 238.37C128.275 234.363 129.931 231.126 131.976 231.126C134.021 231.126 135.677 234.371 135.677 238.37Z" fill="white"/>
<path d="M132.667 233.91H131.278V242.83H132.667V233.91Z" fill="#56BDE6"/>
<path d="M134.618 239.55V237.198H129.334V239.55H134.618Z" fill="#56BDE6"/>
<path opacity="0.7" d="M110.376 219.286H104.314V233.723H110.376V219.286Z" fill="white"/>
<path opacity="0.7" d="M110.376 250.685H104.314V257.454H110.376V250.685Z" fill="white"/>
<path d="M124.006 190.095H76.0103V219.286H124.006V190.095Z" fill="#56BDE6"/>
<path opacity="0.7" d="M124.006 190.095H76.0103V219.286H124.006V190.095Z" fill="white"/>
<path opacity="0.4" d="M124.006 190.095H107.021V219.286H124.006V190.095Z" fill="#56BDE6"/>
<path d="M116.143 211.941C118.187 211.941 119.844 208.695 119.844 204.69C119.844 200.686 118.187 197.439 116.143 197.439C114.099 197.439 112.442 200.686 112.442 204.69C112.442 208.695 114.099 211.941 116.143 211.941Z" fill="white"/>
<path d="M116.842 200.23H115.452V209.15H116.842V200.23Z" fill="#56BDE6"/>
<path d="M118.786 205.87V203.518H113.501V205.87H118.786Z" fill="#56BDE6"/>
<path opacity="0.7" d="M94.5432 190.095H88.4808V200.036H94.5432V190.095Z" fill="white"/>
<path opacity="0.7" d="M94.5432 212.517H88.4808V219.286H94.5432V212.517Z" fill="white"/>
<path d="M132.775 72.6541L135.36 76.9702C136.246 78.4089 137.124 79.8476 138.031 81.2359C139.831 84.0629 141.696 86.8324 143.655 89.4508C144.137 90.1198 144.648 90.7385 145.138 91.3859C145.39 91.7096 145.649 92.0045 145.901 92.3138L146.282 92.7814L146.477 93.0116L146.412 92.9541L146.282 92.8605C145.937 92.6375 145.8 92.6591 145.836 92.6951C145.969 92.7852 146.123 92.8397 146.282 92.8534C146.902 92.9453 147.529 92.9742 148.155 92.9397C151.384 92.6832 154.594 92.2268 157.766 91.5729L159.552 95.8243C158.004 96.8255 156.381 97.7081 154.699 98.4643C152.96 99.2749 151.147 99.9157 149.285 100.378C148.203 100.648 147.095 100.8 145.98 100.831C145.268 100.85 144.555 100.79 143.856 100.651C142.843 100.45 141.889 100.025 141.062 99.4066C140.935 99.3124 140.812 99.2116 140.695 99.1045L140.508 98.9318L140.371 98.8024L140.126 98.5506L139.637 98.0542C139.313 97.7161 138.974 97.3852 138.665 97.0472C138.053 96.3278 137.398 95.6948 136.829 94.997C134.484 92.2434 132.294 89.3616 130.27 86.3648C129.269 84.9261 128.29 83.3939 127.39 81.8761C126.49 80.3583 125.568 78.8477 124.682 77.1932L132.775 72.6541Z" fill="#FF8B7B"/>
<path d="M156.175 92.6807L161.33 87.8755L165.168 93.7238C165.168 93.7238 161.698 97.9535 157.565 96.0329L156.175 92.6807Z" fill="#56BDE6"/>
<path d="M167.76 86.9043L168.48 90.1054C168.539 90.3683 168.524 90.6426 168.434 90.897C168.345 91.1513 168.186 91.3756 167.976 91.5441L165.19 93.7453L161.352 87.897L165.809 85.9404C165.999 85.8605 166.204 85.8225 166.411 85.8288C166.617 85.8352 166.82 85.8858 167.005 85.9772C167.19 86.0686 167.353 86.1987 167.483 86.3587C167.614 86.5187 167.708 86.7047 167.76 86.9043Z" fill="#56BDE6"/>
<path d="M147.514 253.009C147.489 252.997 147.468 252.979 147.454 252.956C147.44 252.933 147.433 252.906 147.434 252.879C147.433 252.849 147.441 252.82 147.458 252.795C147.475 252.771 147.5 252.752 147.528 252.743C147.823 252.635 150.408 251.728 151.128 252.246C151.191 252.295 151.242 252.359 151.274 252.431C151.307 252.504 151.321 252.584 151.315 252.664C151.31 252.795 151.275 252.923 151.211 253.038C151.147 253.153 151.057 253.252 150.948 253.325C150.228 253.829 148.486 253.325 147.528 253.016L147.514 253.009ZM150.905 252.448C150.466 252.225 149.069 252.548 148.025 252.879C149.342 253.282 150.35 253.361 150.768 253.081C150.843 253.035 150.904 252.97 150.946 252.893C150.988 252.816 151.008 252.73 151.006 252.642C151.011 252.61 151.007 252.578 150.994 252.549C150.981 252.519 150.96 252.494 150.934 252.477L150.905 252.448Z" fill="#56BDE6"/>
<path d="M148.702 250.635C148.823 250.554 148.96 250.499 149.104 250.475C149.248 250.45 149.395 250.455 149.537 250.491C149.926 250.585 150.012 250.8 150.012 250.966C150.012 251.685 148.392 252.793 147.614 253.023C147.598 253.03 147.581 253.033 147.564 253.033C147.547 253.033 147.53 253.03 147.514 253.023C147.496 253.005 147.483 252.984 147.476 252.96C147.468 252.936 147.466 252.911 147.47 252.887C147.449 252.779 147.838 251.16 148.702 250.635ZM149.724 250.973C149.724 250.973 149.724 250.88 149.609 250.829L149.465 250.772H149.4C149.21 250.742 149.015 250.783 148.853 250.887C148.325 251.354 147.953 251.972 147.787 252.656C148.601 252.297 149.76 251.397 149.76 250.973H149.724Z" fill="#56BDE6"/>
<path d="M141.732 253.556L147.866 253.462L147.485 239.205L141.343 239.305L141.732 253.556Z" fill="#FF8B7B"/>
<path d="M147.938 252.75L141.235 252.858C141.117 252.855 141.002 252.898 140.914 252.977C140.826 253.055 140.771 253.165 140.76 253.282L140.177 258.764C140.166 258.902 140.184 259.041 140.229 259.172C140.275 259.303 140.348 259.424 140.443 259.525C140.538 259.627 140.653 259.707 140.78 259.762C140.908 259.817 141.046 259.844 141.185 259.843C143.597 259.763 147.074 259.562 150.113 259.519C153.67 259.461 153.324 259.605 157.493 259.519C160.013 259.483 160.416 256.922 159.336 256.706C154.411 255.728 153.914 255.678 149.472 253.181C149.006 252.909 148.478 252.76 147.938 252.75Z" fill="#263238"/>
<path opacity="0.2" d="M147.485 239.212L147.679 246.556L141.545 246.657L141.343 239.305L147.485 239.212Z" fill="black"/>
<path d="M133.279 45.5347C133.042 50.1313 133.452 59.1591 130.104 62.0797C132.401 64.5614 136.202 66.5396 141.545 66.8705C146.887 67.2014 145.67 64.2161 144.382 62.2523C139.428 60.9215 140.314 56.4975 141.415 53.0735L133.279 45.5347Z" fill="#FF8B7B"/>
<path d="M127.771 61.3387C127.901 60.0511 128.707 57.4687 132.178 58.3607C135.648 59.2526 139.745 58.9361 142.862 59.116C145.98 59.2958 146.153 63.2019 146.153 63.2019L127.771 61.3387Z" fill="#56BDE6"/>
<path d="M129.024 60.4755C136.418 60.3964 145.642 61.2956 150.624 62.871C151.268 63.0722 151.835 63.4653 152.25 63.9975C152.664 64.5298 152.906 65.1758 152.942 65.8491C153.238 71.4168 154.044 89.7458 154.742 118.318L121.846 118.851C122.063 103.061 121.199 87.2755 119.261 71.6038C119.089 70.217 119.213 68.8096 119.624 67.474C120.035 66.1383 120.724 64.9046 121.646 63.8538C122.568 62.803 123.702 61.9588 124.974 61.3766C126.245 60.7943 127.625 60.4873 129.024 60.4755Z" fill="#263238"/>
<path d="M205.197 75.116L159.614 69.1357L155.97 96.8598L201.553 102.84L205.197 75.116Z" fill="#56BDE6"/>
<path opacity="0.7" d="M205.197 75.116L159.614 69.1357L155.97 96.8598L201.553 102.84L205.197 75.116Z" fill="white"/>
<path opacity="0.4" d="M205.769 74.9245L174.822 70.9307L171.231 98.7042L202.179 102.698L205.769 74.9245Z" fill="#56BDE6"/>
<path d="M196.376 87.8358C196.868 84.0256 194.248 80.5479 190.525 80.0681C186.802 79.5884 183.386 82.2882 182.894 86.0984C182.402 89.9085 185.021 93.3862 188.744 93.866C192.467 94.3458 195.884 91.646 196.376 87.8358Z" fill="white"/>
<path d="M191.472 82.8905L188.937 82.5633L187.84 91.0459L190.375 91.373L191.472 82.8905Z" fill="#56BDE6"/>
<path d="M194.328 88.7149L194.617 86.4819L184.984 85.2388L184.695 87.4718L194.328 88.7149Z" fill="#56BDE6"/>
<path opacity="0.7" d="M168.504 70.1137L165.876 69.7746L164.653 79.2345L167.28 79.5736L168.504 70.1137Z" fill="white"/>
<path opacity="0.7" d="M165.745 91.4492L163.117 91.11L162.284 97.5522L164.912 97.8913L165.745 91.4492Z" fill="white"/>
<path d="M155.074 70.9348C155.232 71.6542 155.448 72.5318 155.642 73.3375L156.262 75.812C156.701 77.4593 157.147 79.0994 157.644 80.718C158.141 82.3365 158.645 83.9406 159.228 85.5088C159.811 87.077 160.394 88.6164 161.078 90.0839C161.417 90.8032 161.762 91.5226 162.13 92.2419C162.31 92.6016 162.504 92.9613 162.691 93.2778L162.986 93.7741L163.13 94.0187V93.9827L163.051 93.8892C162.997 93.8258 162.94 93.7657 162.878 93.7094C162.672 93.5125 162.427 93.3606 162.158 93.2634C162.053 93.2123 161.937 93.1853 161.82 93.1842C161.734 93.1842 161.878 93.2706 162.086 93.2922C162.711 93.3127 163.336 93.2669 163.951 93.1555C167.221 92.4705 170.446 91.584 173.606 90.5011L175.882 94.515C174.431 95.7274 172.896 96.8356 171.288 97.8312C169.614 98.8729 167.845 99.7521 166.003 100.457C164.912 100.871 163.777 101.156 162.619 101.306C161.826 101.416 161.022 101.416 160.229 101.306C159.676 101.211 159.137 101.049 158.623 100.824C157.966 100.526 157.366 100.114 156.852 99.608C156.713 99.4711 156.58 99.3271 156.456 99.1764L156.276 98.9462L156.175 98.8024L155.952 98.493L155.52 97.8312C155.246 97.414 154.958 96.9968 154.699 96.5796C154.166 95.7379 153.67 94.8891 153.216 94.0331C151.44 90.6733 149.952 87.1696 148.766 83.5594C148.176 81.7826 147.643 80.0058 147.168 78.2003C146.93 77.3083 146.707 76.4019 146.498 75.4883C146.29 74.5747 146.117 73.6971 145.93 72.6829L155.074 70.9348Z" fill="#FF8B7B"/>
<path d="M143.122 66.2231C140.184 71.388 148.061 88.6164 148.061 88.6164L160.301 83.9622C160.301 83.9622 159.833 75.2437 156.614 68.5034C153.274 61.5905 146.34 60.5618 143.122 66.2231Z" fill="#263238"/>
<path d="M182.038 87.933L179.82 88.1272C178.547 88.2338 177.301 88.5523 176.134 89.0696L172.814 90.5083C172.603 90.602 172.434 90.7711 172.341 90.9827C172.248 91.1942 172.237 91.4329 172.31 91.652L173.606 95.5725C173.673 95.7752 173.807 95.9488 173.987 96.0641C174.167 96.1794 174.381 96.2294 174.593 96.2055C176.35 96.0735 178.078 95.6807 179.719 95.0402L182.542 93.8964C182.759 93.7895 182.942 93.6234 183.07 93.4173C183.197 93.2112 183.263 92.9733 183.262 92.7311L183.398 89.494C183.415 89.3015 183.393 89.1077 183.333 88.924C183.273 88.7403 183.177 88.5706 183.05 88.4249C182.923 88.2792 182.768 88.1606 182.594 88.0761C182.42 87.9916 182.231 87.9429 182.038 87.933Z" fill="#56BDE6"/>
<path d="M174.78 91.1989C175.442 90.4292 176.22 87.2209 175.766 86.3936C175.313 85.5664 174.55 87.6741 174.074 88.2351C172.757 89.7889 171.655 91.3643 172.591 91.8319C173.527 92.2995 173.614 92.544 174.78 91.1989Z" fill="#56BDE6"/>
<path d="M148.241 41.7869C148.284 42.2832 148.579 42.6573 148.903 42.6285C149.227 42.5997 149.45 42.1753 149.414 41.679C149.378 41.1826 149.076 40.8086 148.752 40.8445C148.428 40.8805 148.197 41.2977 148.241 41.7869Z" fill="#263238"/>
<path d="M147.643 41.7581C148.357 43.2118 149.268 44.5602 150.351 45.7649C150.035 46.036 149.664 46.2356 149.264 46.3499C148.864 46.4641 148.443 46.4903 148.032 46.4267L147.643 41.7581Z" fill="#FF5652"/>
<path d="M146.563 39.2548C146.513 39.2481 146.465 39.2336 146.419 39.2116C146.387 39.1912 146.359 39.1644 146.337 39.133C146.315 39.1015 146.299 39.0659 146.291 39.0284C146.283 38.9909 146.283 38.9521 146.29 38.9144C146.297 38.8767 146.312 38.8408 146.333 38.8088C146.565 38.4038 146.892 38.0613 147.286 37.8106C147.679 37.56 148.128 37.4088 148.594 37.3701C148.632 37.3681 148.67 37.374 148.706 37.3872C148.741 37.4004 148.774 37.4207 148.802 37.447C148.829 37.4732 148.851 37.5048 148.866 37.5398C148.881 37.5749 148.889 37.6126 148.889 37.6506C148.89 37.6894 148.883 37.7279 148.869 37.7641C148.855 37.8002 148.834 37.8333 148.807 37.8613C148.781 37.8894 148.749 37.9119 148.713 37.9276C148.678 37.9433 148.64 37.9518 148.601 37.9528C148.236 37.988 147.884 38.1095 147.575 38.3071C147.265 38.5047 147.008 38.7728 146.822 39.0893C146.799 39.138 146.762 39.1793 146.716 39.2084C146.67 39.2376 146.617 39.2537 146.563 39.2548Z" fill="#263238"/>
<path d="M131.357 41.0604C132.228 47.0885 132.437 50.6636 135.756 53.4979C140.753 57.7564 147.996 54.2963 148.968 48.11C149.825 42.5494 148.248 33.6223 142.114 31.752C140.754 31.3373 139.311 31.2743 137.92 31.5688C136.528 31.8632 135.235 32.5056 134.16 33.4357C133.085 34.3658 132.264 35.5532 131.774 36.8867C131.284 38.2203 131.14 39.6563 131.357 41.0604Z" fill="#FF8B7B"/>
<path d="M145.858 44.1104C146.214 43.8959 146.52 43.6068 146.754 43.2628C146.988 42.9189 147.145 42.5284 147.213 42.1181C147.282 41.7079 147.26 41.2877 147.151 40.8866C147.041 40.4854 146.845 40.1127 146.578 39.7943C145.598 38.6362 143.863 36.6364 144.842 35.7875C145.822 34.9387 150.862 33.2123 149.004 29.7378C147.146 26.2634 143.244 24.1341 140.652 26.7166C138.06 29.299 137.268 27.961 133.085 27.4359C128.902 26.9108 127.03 31.1693 128.455 32.8598C129.881 34.5503 124.718 35.3991 126.41 37.6219C123.25 39.262 126.317 44.4269 128.815 46.6497C131.314 48.8725 129.614 52.6059 133.855 53.987C138.096 55.3682 147.773 48.9156 145.858 44.1104Z" fill="#263238"/>
<path d="M145.49 52.1815C145.42 52.1816 145.351 52.163 145.29 52.1276C145.23 52.0922 145.179 52.0413 145.145 51.98C145.008 51.757 141.847 46.3835 144.043 43.3479C144.799 42.312 145.584 41.8229 146.39 41.9092C147.722 42.0099 148.673 43.5565 149.357 44.8873C149.406 44.9827 149.414 45.0935 149.381 45.1953C149.348 45.2972 149.276 45.3817 149.18 45.4304C149.085 45.479 148.974 45.4878 148.872 45.4547C148.77 45.4217 148.686 45.3495 148.637 45.2541C148.32 44.6427 147.37 42.7868 146.318 42.7077C145.807 42.7077 145.26 43.0458 144.684 43.837C142.798 46.4339 145.793 51.5269 145.829 51.5772C145.882 51.6701 145.896 51.7799 145.87 51.8834C145.843 51.9869 145.776 52.0758 145.685 52.1311C145.625 52.1629 145.558 52.1802 145.49 52.1815Z" fill="#56BDE6"/>
<path d="M106.855 250.923C106.83 250.914 106.808 250.897 106.793 250.875C106.777 250.853 106.769 250.827 106.769 250.8C106.766 250.77 106.773 250.74 106.789 250.715C106.804 250.689 106.828 250.668 106.855 250.657C107.143 250.527 109.678 249.419 110.398 249.88C110.467 249.921 110.524 249.98 110.563 250.051C110.602 250.122 110.622 250.202 110.621 250.282C110.633 250.419 110.611 250.557 110.555 250.683C110.5 250.809 110.413 250.918 110.304 251.002C109.584 251.556 107.856 251.21 106.877 250.959L106.855 250.923ZM110.196 250.095C109.742 249.908 108.374 250.347 107.374 250.75C108.713 251.052 109.728 251.052 110.124 250.75C110.194 250.697 110.25 250.627 110.285 250.546C110.321 250.466 110.335 250.377 110.326 250.29C110.329 250.259 110.323 250.227 110.309 250.199C110.295 250.171 110.273 250.148 110.246 250.131L110.196 250.095Z" fill="#56BDE6"/>
<path d="M107.856 248.455C108.093 248.284 108.387 248.212 108.677 248.254C109.073 248.319 109.181 248.534 109.195 248.693C109.267 249.412 107.755 250.635 106.963 250.93C106.931 250.941 106.895 250.941 106.862 250.93H106.819C106.801 250.911 106.787 250.888 106.778 250.864C106.769 250.839 106.766 250.812 106.769 250.786C106.776 250.7 107.035 249.052 107.856 248.455ZM108.907 248.722C108.907 248.722 108.907 248.635 108.778 248.585L108.626 248.542H108.504C108.331 248.543 108.162 248.598 108.022 248.7C107.535 249.208 107.218 249.853 107.114 250.549C107.892 250.131 108.95 249.146 108.907 248.722Z" fill="#56BDE6"/>
<path d="M100.67 250.304L106.596 251.851L110.599 238.118L104.674 236.579L100.67 250.304Z" fill="#FF8B7B"/>
<path d="M107.021 250.664L100.541 248.973C100.427 248.942 100.306 248.955 100.201 249.008C100.096 249.061 100.014 249.151 99.9721 249.261L97.9201 254.383C97.8728 254.516 97.8543 254.657 97.8657 254.798C97.8771 254.938 97.9181 255.075 97.9861 255.199C98.0541 255.322 98.1475 255.43 98.2603 255.515C98.373 255.6 98.5024 255.661 98.6401 255.692C100.987 256.26 101.772 256.275 104.717 257.044C108.151 257.936 108.749 259.807 112.918 259.843C115.438 259.843 115.906 257.325 114.833 257.073C111.434 256.275 109.498 253.318 108.403 251.513C108.07 251.061 107.575 250.756 107.021 250.664Z" fill="#263238"/>
<path opacity="0.2" d="M110.599 238.118L108.533 245.197L102.607 243.657L104.674 236.579L110.599 238.118Z" fill="black"/>
<path d="M114.876 177.506C118.418 154.437 116.906 131.979 121.874 118.851L143.611 118.498C143.611 118.498 134.179 160.558 129.931 178.923C125.525 198.051 111.528 242.427 111.528 242.427L101.938 239.917C101.938 239.917 109.238 194.145 114.876 177.506Z" fill="#56BDE6"/>
<path opacity="0.2" d="M130.572 157.976C130.572 162.536 130.91 167.471 131.371 172.737C134.172 160.429 138.096 143.021 140.731 131.266C132.754 137.223 130.572 146.38 130.572 157.976Z" fill="black"/>
<path d="M142.718 44.7218C142.897 45.3395 143.196 45.9156 143.599 46.4169C144.002 46.9182 144.501 47.3348 145.066 47.6424C146.585 48.4624 147.737 47.1964 147.636 45.5635C147.55 44.1248 146.657 41.9164 144.972 41.7725C144.605 41.7472 144.237 41.8134 143.902 41.965C143.567 42.1166 143.274 42.349 143.051 42.6412C142.827 42.9335 142.68 43.2766 142.622 43.6397C142.564 44.0028 142.597 44.3746 142.718 44.7218Z" fill="#FF8B7B"/>
<path d="M148.464 43.0386C150.35 43.3767 150.624 45.3045 150.624 46.1533C150.624 47.0022 148.925 53.4475 145.469 54.6704C142.013 55.8933 142.013 55.066 142.524 54.1884C143.035 53.3108 147.686 48.9516 148.464 43.0386Z" fill="#56BDE6"/>
<path d="M137.419 177.679C134.46 153.516 130.471 131.461 133.56 118.628L154.75 118.289C154.75 118.289 153.518 161.321 152.496 180.009C151.43 199.432 149.94 245.074 149.94 245.074L139.529 245.233C139.529 245.233 135.979 202.093 137.419 177.679Z" fill="#56BDE6"/>
<path d="M150.588 245.326L138.211 245.52L137.513 241.514L151.308 241.082L150.588 245.326Z" fill="#263238"/>
<path d="M112.306 244.794L100.332 241.679L100.728 237.629L114.142 240.902L112.306 244.794Z" fill="#263238"/>
<path d="M250.315 43.2184C242.748 49.3256 240.826 59.1879 243.547 63.655C247.421 70.0069 262.987 71.6902 270.367 67.8704C273.802 66.0864 276.905 45.9015 266.94 42.0458C263.174 36.6148 254.592 39.7583 250.315 43.2184Z" fill="#263238"/>
<path d="M277.452 236.737L271.959 240.643L256.551 226.005L263.189 218.825L277.452 236.737Z" fill="#FFC3BD"/>
<path d="M271.159 239.248L276.725 234.104C276.815 234.004 276.94 233.943 277.075 233.933C277.209 233.924 277.342 233.967 277.445 234.054L281.815 237.593C281.921 237.695 282.005 237.817 282.061 237.953C282.116 238.089 282.142 238.235 282.138 238.381C282.133 238.528 282.097 238.672 282.033 238.804C281.969 238.936 281.877 239.053 281.765 239.147C279.799 240.909 278.77 241.665 276.322 243.931C274.817 245.319 271.836 248.34 269.755 250.261C267.674 252.182 265.824 250.362 266.53 249.39C269.705 245.017 270.252 242.528 270.626 240.298C270.688 239.9 270.874 239.532 271.159 239.248Z" fill="#263238"/>
<path d="M270.036 241.773C269.657 242.195 269.152 242.484 268.596 242.6C268.457 242.614 268.316 242.59 268.189 242.531C268.062 242.471 267.954 242.378 267.876 242.262C267.824 242.194 267.79 242.114 267.778 242.03C267.765 241.946 267.774 241.86 267.804 241.78C268.128 240.909 270.965 240.032 271.282 239.931C271.312 239.923 271.344 239.925 271.373 239.935C271.403 239.945 271.428 239.964 271.447 239.989C271.465 240.015 271.474 240.047 271.474 240.079C271.474 240.11 271.465 240.142 271.447 240.168C271.024 240.743 270.552 241.279 270.036 241.773ZM268.287 241.629C268.206 241.695 268.142 241.778 268.099 241.873C268.087 241.905 268.084 241.939 268.09 241.972C268.097 242.005 268.112 242.036 268.135 242.06C268.183 242.136 268.251 242.197 268.33 242.238C268.41 242.278 268.5 242.297 268.589 242.291C269.115 242.291 269.971 241.571 270.914 240.37C269.977 240.646 269.089 241.071 268.287 241.629Z" fill="#56BDE6"/>
<path d="M271.44 240.19L271.382 240.226C270.562 240.521 268.502 240.6 268.106 239.989C268.013 239.845 267.97 239.607 268.265 239.269C268.474 239.029 268.768 238.88 269.086 238.852C270.151 238.766 271.397 239.909 271.447 239.96C271.466 239.978 271.48 240.001 271.488 240.026C271.496 240.051 271.496 240.078 271.49 240.104C271.479 240.135 271.462 240.164 271.44 240.19ZM268.56 239.399L268.495 239.471C268.301 239.686 268.358 239.78 268.373 239.809C268.61 240.176 270.115 240.233 271.022 240.017C270.49 239.531 269.812 239.233 269.093 239.169C268.895 239.184 268.707 239.265 268.56 239.399Z" fill="#56BDE6"/>
<path d="M264.924 254.296L258.415 254.519L257.162 231.802L266.206 231.932L264.924 254.296Z" fill="#FFC3BD"/>
<path d="M257.969 252.448L265.277 252.397C265.4 252.391 265.52 252.434 265.612 252.516C265.703 252.598 265.759 252.713 265.766 252.836L266.206 258.591C266.209 258.741 266.182 258.89 266.127 259.03C266.072 259.17 265.99 259.298 265.886 259.406C265.781 259.514 265.657 259.601 265.519 259.661C265.381 259.721 265.233 259.753 265.082 259.756C262.541 259.756 261.324 259.591 258.113 259.612C256.133 259.612 253.231 259.85 250.502 259.871C247.774 259.893 247.81 257.195 248.962 256.944C254.131 255.814 255.038 254.296 256.882 252.843C257.192 252.597 257.573 252.459 257.969 252.448Z" fill="#263238"/>
<path d="M246.758 82.0056C246.37 83.5378 245.938 85.0053 245.498 86.4943C245.059 87.9834 244.606 89.458 244.109 90.9327C243.122 93.882 242.071 96.8098 240.754 99.7663C240.415 100.486 240.07 101.248 239.674 102.011C239.25 102.839 238.769 103.637 238.234 104.399C237.827 104.978 237.342 105.498 236.794 105.945C236.205 106.39 235.514 106.679 234.785 106.787C234.365 106.849 233.94 106.864 233.518 106.83C232.947 106.765 232.385 106.642 231.84 106.463C231.39 106.334 230.948 106.18 230.515 106.003C228.985 105.358 227.514 104.583 226.116 103.687C224.766 102.83 223.47 101.891 222.235 100.874C221.908 100.601 221.686 100.224 221.606 99.8053C221.526 99.387 221.594 98.9541 221.797 98.5801C222.001 98.2061 222.328 97.9142 222.723 97.7541C223.118 97.5939 223.556 97.5754 223.963 97.7017H224.021L228.283 99.0613C229.619 99.5068 230.977 99.8837 232.351 100.191C232.64 100.259 232.934 100.307 233.23 100.335C233.416 100.365 233.605 100.365 233.791 100.335C233.791 100.335 233.791 100.335 233.669 100.335C233.315 100.382 232.981 100.527 232.704 100.752L232.625 100.817C232.625 100.817 232.697 100.716 232.762 100.594C233.067 100.084 233.334 99.5527 233.561 99.0038C233.834 98.3995 234.101 97.7521 234.36 97.0831C235.375 94.4071 236.282 91.5585 237.161 88.7027L238.464 84.3866L239.724 80.0705C239.999 79.1564 240.62 78.3855 241.455 77.9222C242.29 77.4589 243.274 77.3398 244.196 77.5902C245.117 77.8406 245.905 78.4408 246.39 79.2629C246.876 80.085 247.021 81.0639 246.794 81.9912L246.758 82.0056Z" fill="#56BDE6"/>
<path d="M219.125 92.2275L216.72 91.6448C216.554 91.6056 216.381 91.5998 216.212 91.6279C216.043 91.656 215.882 91.7173 215.737 91.8084C215.592 91.8994 215.467 92.0184 215.369 92.1583C215.271 92.2982 215.201 92.4562 215.165 92.6231L214.445 95.8314C214.384 96.1173 214.421 96.4155 214.552 96.6769C214.683 96.9384 214.899 97.1476 215.165 97.2701L218.902 99.0829C219.748 100.102 220.92 100.798 222.221 101.054C222.623 101.088 223.025 100.987 223.363 100.767C223.701 100.547 223.955 100.22 224.086 99.8382L224.359 99.0829C224.459 98.8005 224.49 98.4982 224.448 98.2015C224.407 97.9048 224.295 97.6224 224.122 97.378L221.602 93.882C221.001 93.0517 220.122 92.4646 219.125 92.2275Z" fill="#263238"/>
<path d="M221.667 97.378C221.4 96.3781 222.055 92.8677 222.797 92.2275C223.539 91.5873 223.481 93.7525 223.632 94.587C224.007 96.6227 224.849 98.1837 224.172 99.5433C223.697 100.486 222.12 99.1189 221.667 97.378Z" fill="#263238"/>
<path d="M239.134 82.5883C238.81 88.2999 238.795 97.6945 239.638 113.24L265.846 114.096C266.486 104.341 267.113 97.9751 272.736 80.6244C272.987 79.8648 273.07 79.0599 272.979 78.2651C272.889 77.4703 272.627 76.7046 272.211 76.0208C271.796 75.337 271.237 74.7514 270.573 74.3043C269.909 73.8571 269.156 73.5592 268.366 73.431C266.926 73.2008 265.334 72.9922 263.722 72.8627C259.769 72.4461 255.791 72.3163 251.82 72.4742C250.74 72.539 249.624 72.6325 248.537 72.7404C246.052 72.9923 243.738 74.1231 242.014 75.9288C240.29 77.7345 239.268 80.0963 239.134 82.5883Z" fill="#56BDE6"/>
<path d="M251.82 72.4958C251.82 72.4958 248.091 73.1001 251.035 81.056C255.736 79.144 260.038 76.3727 263.722 72.8843L251.82 72.4958Z" fill="white"/>
<path d="M261.429 88.1769C261.806 86.2223 260.699 84.3665 258.958 84.0317C257.216 83.697 255.499 85.0101 255.123 86.9646C254.746 88.9192 255.853 90.775 257.595 91.1098C259.336 91.4445 261.053 90.1314 261.429 88.1769Z" fill="white"/>
<path opacity="0.2" d="M267.545 83.4443C267.214 87.4079 266.947 94.1985 267.768 98.457C268.359 95.6228 269.151 92.4505 270.252 88.6452L267.545 83.4443Z" fill="black"/>
<path d="M263.981 59.3102C262.822 63.1515 261.317 70.2155 263.722 72.8843C263.722 72.8843 259.726 76.1861 251.626 79.5814C248.551 73.3806 251.82 72.4958 251.82 72.4958C256.205 71.6038 256.435 68.4027 256.01 65.3743L263.981 59.3102Z" fill="#FFC3BD"/>
<path opacity="0.2" d="M261.778 62.2955L256.018 65.3671C256.126 66.0811 256.175 66.803 256.162 67.5251C257.4 67.5251 260.547 66.4533 261.648 64.396C261.939 63.7332 261.985 62.9889 261.778 62.2955Z" fill="black"/>
<path d="M268.114 51.2895C267.394 57.6989 267.257 60.4252 263.851 63.5687C258.732 68.2948 251.006 66.0361 249.775 59.5548C248.666 53.7137 249.998 44.2183 256.414 41.9595C257.826 41.4545 259.344 41.3186 260.823 41.5647C262.303 41.8107 263.695 42.4306 264.867 43.3654C266.04 44.3002 266.953 45.519 267.521 46.9059C268.09 48.2927 268.293 49.8017 268.114 51.2895Z" fill="#FFC3BD"/>
<path d="M259.308 42.5925C254.887 45.139 264.398 55.0157 266.803 54.8862C270.886 52.4836 270.95 47.556 268.675 45.2038C266.4 42.8515 264.744 39.4778 259.308 42.5925Z" fill="#263238"/>
<path d="M263.434 60.9215C263.332 60.9204 263.234 60.8816 263.159 60.8125C263.085 60.7434 263.038 60.649 263.029 60.5477C263.02 60.4463 263.049 60.3453 263.111 60.2641C263.172 60.183 263.262 60.1276 263.362 60.1087C266.242 59.6123 268.027 58.67 268.445 57.4974C268.539 57.0641 268.519 56.6137 268.385 56.1909C268.251 55.7681 268.008 55.3877 267.682 55.0876C267.556 54.9388 267.401 54.8177 267.227 54.7323C267.052 54.6468 266.861 54.5988 266.666 54.5913C264.953 54.4762 262.526 56.6486 261.626 57.4687L261.439 57.6341C261.357 57.7042 261.25 57.739 261.142 57.7309C261.035 57.7228 260.934 57.6725 260.863 57.5909C260.829 57.5508 260.802 57.5043 260.786 57.454C260.769 57.4037 260.763 57.3506 260.767 57.2979C260.771 57.2451 260.785 57.1936 260.809 57.1464C260.833 57.0992 260.866 57.0571 260.906 57.0227L261.086 56.8572C262.166 55.9005 264.686 53.6417 266.738 53.7784C267.04 53.7919 267.336 53.8672 267.607 53.9996C267.878 54.132 268.119 54.3187 268.315 54.5481C269.258 55.6199 269.582 56.7637 269.23 57.7708C268.697 59.2814 266.782 60.3388 263.527 60.9143L263.434 60.9215Z" fill="#56BDE6"/>
<path d="M264.089 42.1034C267.228 43.5421 252.806 43.614 249.833 47.405C252.31 43.6356 255.996 38.3412 264.089 42.1034Z" fill="#263238"/>
<path d="M239.638 113.24C239.638 113.24 226.123 170.687 227.326 185.412C228.766 202.626 256.515 227.335 256.515 227.335L264.435 218.703C264.435 218.703 247.68 199.792 241.287 184.987C243.36 170.19 261.907 128.044 261.123 113.945L239.638 113.24Z" fill="#56BDE6"/>
<path opacity="0.4" d="M239.638 113.24C239.638 113.24 226.123 170.687 227.326 185.412C228.766 202.626 256.515 227.335 256.515 227.335L264.435 218.703C264.435 218.703 247.68 199.792 241.287 184.987C243.36 170.19 261.907 128.044 261.123 113.945L239.638 113.24Z" fill="white"/>
<path d="M266.105 219.746L256.623 228.27L253.829 226.522L264.19 216.689L266.105 219.746Z" fill="#56BDE6"/>
<path opacity="0.3" d="M250.107 138.021C242.511 148.531 242.143 167.86 242.619 178.715C245.225 168.737 250.805 154.127 255.154 140.712C255.053 135.554 253.656 133.079 250.107 138.021Z" fill="#56BDE6"/>
<path d="M244.534 113.017C244.534 113.017 249.847 162.781 251.539 179.786C253.541 199.979 256.478 232.349 256.478 232.349L266.206 231.946C266.206 231.946 268.366 204.503 266.753 186.419C267.041 162.421 271.238 128.936 265.846 114.11L244.534 113.017Z" fill="#56BDE6"/>
<path opacity="0.4" d="M244.534 113.017C244.534 113.017 249.847 162.781 251.539 179.786C253.541 199.979 256.478 232.349 256.478 232.349L266.206 231.946C266.206 231.946 268.366 204.503 266.753 186.419C267.041 162.421 271.238 128.936 265.846 114.11L244.534 113.017Z" fill="white"/>
<path d="M266.94 233.709L255.787 233.392L255.01 229.889L267.624 229.537L266.94 233.709Z" fill="#56BDE6"/>
<path d="M257.623 52.7641C257.623 53.2893 257.299 53.6993 256.961 53.6849C256.623 53.6705 256.356 53.2317 256.385 52.7066C256.414 52.1815 256.709 51.7714 257.047 51.793C257.386 51.8146 257.645 52.2462 257.623 52.7641Z" fill="#263238"/>
<path d="M251.705 52.5123C251.705 53.0303 251.381 53.4403 251.043 53.4259C250.704 53.4115 250.438 52.9727 250.466 52.4476C250.495 51.9225 250.79 51.5196 251.129 51.534C251.467 51.5484 251.726 51.9656 251.705 52.5123Z" fill="#263238"/>
<path d="M251.28 51.5484L250.042 51.124C250.042 51.124 250.639 52.1383 251.28 51.5484Z" fill="#263238"/>
<path d="M253.483 53.3684C252.961 54.5396 252.28 55.6336 251.46 56.6198C251.718 56.8229 252.017 56.9673 252.337 57.0431C252.656 57.1189 252.989 57.1242 253.31 57.0586L253.483 53.3684Z" fill="#ED847E"/>
<path d="M256.32 59.1231C256.028 59.1525 255.734 59.1525 255.442 59.1231C255.422 59.1231 255.402 59.1192 255.384 59.1116C255.366 59.1041 255.349 59.0929 255.335 59.0789C255.321 59.0649 255.31 59.0482 255.302 59.0299C255.294 59.0116 255.291 58.9919 255.291 58.9721C255.291 58.9522 255.294 58.9326 255.302 58.9143C255.31 58.8959 255.321 58.8793 255.335 58.8653C255.349 58.8512 255.366 58.8401 255.384 58.8325C255.402 58.8249 255.422 58.821 255.442 58.821C256.09 58.8682 256.741 58.7626 257.341 58.5127C257.941 58.2628 258.475 57.8756 258.898 57.3823C258.909 57.3654 258.924 57.351 258.941 57.3399C258.959 57.3289 258.978 57.3215 258.998 57.3181C259.018 57.3147 259.039 57.3155 259.059 57.3204C259.079 57.3252 259.097 57.3341 259.114 57.3464C259.141 57.3757 259.156 57.4142 259.156 57.4543C259.156 57.4943 259.141 57.5329 259.114 57.5622C258.417 58.4207 257.417 58.9794 256.32 59.1231Z" fill="#263238"/>
<path d="M269.28 57.145C268.608 58.1964 267.547 58.9388 266.328 59.2095C264.715 59.5548 264.01 58.0873 264.543 56.6126C265.018 55.289 266.436 53.5123 268.02 53.8288C268.365 53.9034 268.686 54.0629 268.953 54.2928C269.22 54.5227 269.426 54.8157 269.551 55.1452C269.676 55.4747 269.717 55.8302 269.67 56.1794C269.622 56.5287 269.489 56.8606 269.28 57.145Z" fill="#FFC3BD"/>
<path d="M259.315 50.9298C259.241 50.8923 259.185 50.8279 259.157 50.7499C259.058 50.3765 258.873 50.0318 258.615 49.7442C258.357 49.4565 258.034 49.2342 257.674 49.0954C257.596 49.0721 257.53 49.019 257.491 48.9476C257.452 48.8763 257.442 48.7924 257.465 48.7142C257.476 48.6751 257.494 48.6385 257.519 48.6067C257.544 48.5749 257.576 48.5484 257.611 48.529C257.647 48.5095 257.686 48.4974 257.726 48.4934C257.767 48.4894 257.808 48.4935 257.846 48.5056C258.306 48.6716 258.719 48.9459 259.05 49.3053C259.381 49.6647 259.62 50.0986 259.747 50.5701C259.759 50.6088 259.763 50.6496 259.759 50.6899C259.755 50.7303 259.743 50.7694 259.724 50.805C259.704 50.8406 259.678 50.8719 259.646 50.897C259.614 50.9222 259.578 50.9406 259.538 50.9514C259.502 50.9642 259.463 50.9689 259.424 50.9652C259.386 50.9614 259.349 50.9494 259.315 50.9298Z" fill="#263238"/>
<path d="M249.667 49.7788C249.588 49.7876 249.509 49.7672 249.444 49.7213C249.378 49.6725 249.335 49.5997 249.323 49.5188C249.31 49.438 249.331 49.3556 249.379 49.2897C249.661 48.8908 250.034 48.5647 250.468 48.3383C250.901 48.1119 251.382 47.9917 251.871 47.9877C251.911 47.9895 251.95 47.9994 251.987 48.0167C252.023 48.0341 252.056 48.0586 252.083 48.0888C252.11 48.1189 252.13 48.1542 252.143 48.1924C252.156 48.2306 252.161 48.2711 252.159 48.3114C252.157 48.352 252.147 48.3919 252.13 48.4287C252.112 48.4655 252.088 48.4986 252.058 48.526C252.028 48.5534 251.992 48.5746 251.954 48.5883C251.916 48.6021 251.875 48.6082 251.834 48.6063C251.448 48.6116 251.068 48.7098 250.727 48.8926C250.386 49.0754 250.094 49.3374 249.876 49.6565C249.825 49.7233 249.75 49.7673 249.667 49.7788Z" fill="#263238"/>
<path d="M254.391 253.21C254.314 253.109 254.262 252.991 254.238 252.866C254.214 252.742 254.22 252.613 254.254 252.491C254.267 252.396 254.305 252.306 254.363 252.229C254.421 252.152 254.497 252.091 254.585 252.052C255.37 251.707 257.256 252.966 257.465 253.11C257.489 253.126 257.507 253.149 257.517 253.176C257.527 253.203 257.529 253.233 257.523 253.261C257.516 253.291 257.501 253.32 257.479 253.342C257.458 253.365 257.43 253.382 257.4 253.39C256.543 253.591 255.024 253.858 254.448 253.304C254.423 253.277 254.403 253.245 254.391 253.21ZM256.975 253.153C256.205 252.671 255.103 252.131 254.693 252.311C254.654 252.327 254.621 252.354 254.597 252.388C254.572 252.423 254.558 252.463 254.556 252.505C254.524 252.598 254.518 252.698 254.539 252.794C254.559 252.891 254.605 252.98 254.671 253.052C254.981 253.333 255.831 253.368 256.975 253.138V253.153Z" fill="#56BDE6"/>
<path d="M256.522 252.62C256.058 252.154 255.799 251.522 255.802 250.865C255.834 250.744 255.905 250.636 256.003 250.559C256.102 250.481 256.223 250.437 256.349 250.434C256.464 250.413 256.582 250.42 256.694 250.455C256.806 250.49 256.907 250.552 256.99 250.635C257.645 251.254 257.537 253.124 257.53 253.203C257.526 253.23 257.516 253.255 257.501 253.278C257.486 253.3 257.466 253.319 257.443 253.333C257.42 253.345 257.394 253.352 257.368 253.352C257.341 253.352 257.315 253.345 257.292 253.333C256.998 253.138 256.738 252.898 256.522 252.62ZM256.831 250.937L256.766 250.865C256.714 250.813 256.651 250.774 256.581 250.751C256.51 250.729 256.436 250.723 256.363 250.736C256.169 250.736 256.118 250.851 256.097 250.923C255.982 251.369 256.644 252.419 257.234 252.908C257.282 252.227 257.143 251.545 256.831 250.937Z" fill="#56BDE6"/>
<path d="M266.4 112.556L266.818 114.944C266.89 115.132 266.652 115.311 266.35 115.304L239.378 114.427C239.141 114.427 238.961 114.29 238.961 114.146V111.765C238.961 111.6 239.177 111.47 239.436 111.477L265.982 112.34C266.065 112.333 266.149 112.35 266.223 112.388C266.296 112.426 266.358 112.484 266.4 112.556Z" fill="white"/>
<path d="M262.527 115.434H263.247C263.391 115.434 263.506 115.362 263.506 115.275V112.218C263.506 112.132 263.391 112.053 263.247 112.046H262.527C262.383 112.046 262.267 112.11 262.267 112.204V115.29C262.267 115.355 262.383 115.434 262.527 115.434Z" fill="#56BDE6"/>
<path opacity="0.4" d="M262.527 115.434H263.247C263.391 115.434 263.506 115.362 263.506 115.275V112.218C263.506 112.132 263.391 112.053 263.247 112.046H262.527C262.383 112.046 262.267 112.11 262.267 112.204V115.29C262.267 115.355 262.383 115.434 262.527 115.434Z" fill="white"/>
<path d="M241.359 114.743H242.079C242.223 114.743 242.338 114.671 242.338 114.585V111.499C242.338 111.405 242.223 111.326 242.079 111.326H241.359C241.215 111.326 241.099 111.391 241.099 111.484V114.57C241.099 114.664 241.2 114.743 241.359 114.743Z" fill="#56BDE6"/>
<path opacity="0.4" d="M241.359 114.743H242.079C242.223 114.743 242.338 114.671 242.338 114.585V111.499C242.338 111.405 242.223 111.326 242.079 111.326H241.359C241.215 111.326 241.099 111.391 241.099 111.484V114.57C241.099 114.664 241.2 114.743 241.359 114.743Z" fill="white"/>
<path d="M251.943 115.096H252.663C252.807 115.096 252.922 115.024 252.922 114.937V111.851C252.922 111.758 252.807 111.679 252.663 111.679H251.943C251.799 111.679 251.683 111.743 251.683 111.837V114.923C251.683 115.009 251.799 115.096 251.943 115.096Z" fill="#56BDE6"/>
<path opacity="0.4" d="M251.943 115.096H252.663C252.807 115.096 252.922 115.024 252.922 114.937V111.851C252.922 111.758 252.807 111.679 252.663 111.679H251.943C251.799 111.679 251.683 111.743 251.683 111.837V114.923C251.683 115.009 251.799 115.096 251.943 115.096Z" fill="white"/>
<path d="M272.794 77.4233C273.78 81.6171 274.565 85.7462 275.177 89.9903C275.479 92.1484 275.767 94.2417 275.94 96.4141C276.151 98.6567 276.209 100.911 276.113 103.162C276.07 103.766 276.012 104.377 275.911 105.032C275.868 105.356 275.789 105.708 275.724 106.046L275.573 106.614C275.508 106.86 275.426 107.1 275.328 107.334C275.049 108.019 274.621 108.633 274.075 109.132C273.629 109.535 273.124 109.868 272.578 110.118C271.797 110.462 270.965 110.678 270.115 110.758C268.844 110.871 267.564 110.839 266.299 110.664C265.168 110.518 264.046 110.311 262.937 110.046C258.726 109.009 254.626 107.563 250.697 105.73C250.287 105.545 249.96 105.215 249.779 104.804C249.598 104.393 249.575 103.93 249.716 103.503C249.856 103.076 250.149 102.716 250.539 102.493C250.929 102.269 251.388 102.197 251.827 102.291H251.885C255.881 103.14 259.985 103.953 263.909 104.392C264.881 104.5 265.853 104.564 266.789 104.586C267.606 104.622 268.424 104.568 269.23 104.428C269.424 104.4 269.611 104.331 269.777 104.226C269.777 104.226 269.705 104.226 269.582 104.341C269.417 104.48 269.286 104.654 269.201 104.852V104.658L269.266 104.133C269.266 103.744 269.309 103.32 269.316 102.874C269.281 100.949 269.134 99.0273 268.877 97.1191C268.618 95.1265 268.337 93.1195 267.984 91.1053C267.264 87.0914 266.479 83.0055 265.644 79.0347V78.9915C265.473 78.0596 265.669 77.0976 266.193 76.3077C266.717 75.5177 267.527 74.9614 268.452 74.7556C269.378 74.5497 270.348 74.7104 271.157 75.2039C271.967 75.6974 272.553 76.4852 272.794 77.4018V77.4233Z" fill="#56BDE6"/>
<path d="M246.593 97.2054L244.397 96.8313C244.228 96.8037 244.056 96.8098 243.89 96.8492C243.724 96.8887 243.568 96.9607 243.43 97.061C243.292 97.1614 243.175 97.2882 243.086 97.434C242.998 97.5798 242.939 97.7417 242.914 97.9104L242.431 101.162C242.39 101.446 242.445 101.737 242.589 101.986C242.733 102.235 242.956 102.429 243.223 102.536L247.075 104.09C247.075 104.09 250.243 106.564 252.756 105.392V102.708L249.603 98.9246C248.834 98.014 247.768 97.4049 246.593 97.2054Z" fill="#263238"/>
<path d="M257.198 51.829L255.96 51.4046C255.96 51.4046 256.558 52.4188 257.198 51.829Z" fill="#263238"/>
<path d="M262.404 57.4111L263.606 59.936C263.691 60.1024 263.724 60.2904 263.7 60.4755C263.556 61.8423 265.903 67.1295 253.008 66.5396C249.221 66.3598 248.767 59.1375 249.156 56.8644C249.184 56.6759 249.267 56.4999 249.395 56.3589C249.523 56.2179 249.691 56.1184 249.876 56.0731L252.655 55.4689C252.77 55.4509 252.886 55.4509 253.001 55.4689L261.684 56.9076C261.836 56.9268 261.981 56.9827 262.106 57.0704C262.232 57.1582 262.334 57.2751 262.404 57.4111Z" fill="#56BDE6"/>
</svg>
