<svg width="332" height="282" viewBox="0 0 332 282" fill="none" xmlns="http://www.w3.org/2000/svg">
<g clip-path="url(#clip0_800_3778)">
<path d="M239.505 52.2107H215.189V9.8197L239.505 18.2979V52.2107Z" fill="#2F2E41"/>
<path d="M243.822 267.442L238.804 267.572L236.006 242.943L243.412 242.751L243.822 267.442Z" fill="#A0616A"/>
<path d="M226.605 278.88C226.605 279.806 227.207 280.557 227.949 280.557H237.909C237.909 280.557 238.89 276.252 242.886 274.4L243.162 280.557H248.3L247.677 270.657C247.677 270.657 249.052 265.36 246.197 262.653C243.343 259.945 245.655 260.322 245.655 260.322L244.532 254.195L236.768 255.192L236.71 264.811L232.942 274.358L227.416 277.341C226.924 277.606 226.605 278.211 226.605 278.88Z" fill="#2F2E41"/>
<path d="M218.104 267.442L213.086 267.572L210.288 242.943L217.694 242.751L218.104 267.442Z" fill="#A0616A"/>
<path d="M200.887 278.88C200.887 279.806 201.489 280.557 202.231 280.557H212.191C212.191 280.557 213.172 276.252 217.168 274.4L217.444 280.557H222.582L221.96 270.657C221.96 270.657 223.334 265.36 220.48 262.653C217.625 259.945 219.937 260.322 219.937 260.322L218.814 254.195L211.05 255.192L210.993 264.811L207.225 274.358L201.698 277.341C201.206 277.606 200.887 278.211 200.887 278.88Z" fill="#2F2E41"/>
<path d="M241.057 98.5581L208.98 119.471L201.737 151.688L205.359 251.166H221.242L224.76 155.362L231.801 251.166H247.933L252.014 143.582C253.137 135.763 252.251 127.757 249.452 120.458L241.057 98.5581Z" fill="#2F2E41"/>
<path d="M233.814 34.689L220.362 33.5586L216.741 41.4716L206.393 44.2976L203.807 79.3408C208.924 93.8659 212.136 107.746 208.98 119.471L248.3 117.21L241.735 97.8171C241.735 97.8171 241.574 90.6451 245.196 81.0365C248.817 71.4279 243.126 46.5585 243.126 46.5585L234.849 44.2976L233.814 34.689Z" fill="#56BDE6"/>
<path d="M143.241 48.3208C144.551 48.3651 145.761 48.0826 146.713 47.5765L159.166 48.8599L159.552 42.3683L146.878 41.7653C145.956 41.1958 144.764 40.8319 143.455 40.7876C140.462 40.6863 137.989 42.2905 137.93 44.3708C137.871 46.451 140.249 48.2195 143.241 48.3208Z" fill="#A0616A"/>
<path d="M216.907 68.1383C216.907 68.1383 216.467 47.4581 212.315 44.3541C210.603 43.0739 184.275 42.7831 183.316 42.6746C177.401 42.0049 173.192 39.4394 168.212 39.1582C156.075 38.4729 149.94 41.6905 149.94 41.6905L149.725 48.33L216.907 68.1383Z" fill="#56BDE6"/>
<path d="M225.942 33.0228C231.874 33.0228 236.683 27.7692 236.683 21.2886C236.683 14.8079 231.874 9.55432 225.942 9.55432C220.01 9.55432 215.201 14.8079 215.201 21.2886C215.201 27.7692 220.01 33.0228 225.942 33.0228Z" fill="#A0616A"/>
<path d="M222.684 3.81563C220.374 5.40664 218.682 4.26757 217.032 5.06997C213.808 6.63771 208.365 17.649 208.855 22.259C209.551 28.7879 211.747 29.0567 211.682 33.741C211.576 41.2628 211.029 41.2315 212.439 43.8579C214.008 46.7791 222.89 45.9859 224.539 42.0247C224.864 41.2432 221.251 41.5505 217.258 31.2978C215.254 26.153 216.57 21.4649 217.258 19.4283C217.419 18.9515 217.493 15.5665 217.837 15.9422C220.852 19.2362 222.542 16.8283 224.362 16.552C228.099 15.9849 230.913 19.2781 232.046 18.0958C232.89 17.216 231.814 14.8899 232.223 14.7187C232.659 14.5362 234.104 17.088 235.049 19.8326C235.659 21.6025 235.964 22.4874 235.932 23.4991C235.835 26.6233 235.106 35.4813 233.814 38.0804C231.024 43.6931 234.537 45.8109 236.727 45.4017C238.497 45.0712 246.32 46.3727 246.748 45.4281C247.129 44.5867 246.258 35.9312 245.343 27.8845C244.242 18.2128 239.832 9.3251 232.916 3.16826C232.511 2.8072 232.208 2.55948 232.046 2.46482C231.663 2.24063 227.714 0.000313282 224.804 1.78941C223.733 2.44805 223.907 2.97349 222.684 3.81563Z" fill="#2F2E41"/>
<path d="M88.5122 276.603L82.5528 276.602L79.7178 251.49L88.5134 251.49L88.5122 276.603Z" fill="#FFB6B6"/>
<path d="M68.0944 276.455C67.9088 276.797 67.8109 277.899 67.8109 278.296C67.8109 279.516 68.7165 280.505 69.8336 280.505H88.2893C89.0513 280.505 89.6692 279.83 89.6692 278.998V278.158C89.6692 278.158 90.5821 275.635 88.7025 272.526C88.7025 272.526 86.3663 274.961 82.8754 271.147L81.846 269.11L74.3944 275.063L70.264 275.619C69.3604 275.74 68.5592 275.6 68.0944 276.455Z" fill="#2F2E41"/>
<path d="M113.638 276.603L107.679 276.602L104.844 251.49L113.639 251.49L113.638 276.603Z" fill="#FFB6B6"/>
<path d="M93.2204 276.455C93.0348 276.797 92.9369 277.899 92.9369 278.296C92.9369 279.516 93.8424 280.505 94.9595 280.505H113.415C114.177 280.505 114.795 279.83 114.795 278.998V278.158C114.795 278.158 115.708 275.635 113.828 272.526C113.828 272.526 111.492 274.961 108.001 271.147L106.972 269.11L99.5203 275.063L95.39 275.619C94.4864 275.74 93.6852 275.6 93.2204 276.455Z" fill="#2F2E41"/>
<path d="M114.82 118.055L71.1008 117.506L66.5781 148.798L77.6336 256.95H92.1275L95.473 156.21L101.503 258.872H116.343L123.112 141.936L114.82 118.055Z" fill="#2F2E41"/>
<path d="M300.166 272.29C301.204 272.361 301.778 270.952 300.992 270.13L300.914 269.791C300.924 269.764 300.935 269.737 300.945 269.71C301.995 266.975 305.553 266.994 306.594 269.733C307.518 272.164 308.694 274.599 308.984 277.169C309.114 278.304 309.055 279.46 308.825 280.573C310.99 275.407 312.129 269.765 312.129 264.092C312.129 262.667 312.058 261.241 311.912 259.819C311.792 258.656 311.626 257.5 311.412 256.355C310.253 250.164 307.744 244.267 304.125 239.342C302.386 238.303 300.935 236.679 300.058 234.732C299.744 234.03 299.497 233.275 299.38 232.505C299.578 232.534 300.127 229.24 299.977 229.037C300.253 228.58 300.747 228.353 301.048 227.906C302.547 225.687 304.612 226.074 305.69 229.091C307.992 230.36 308.015 232.466 306.602 234.491C305.703 235.779 305.579 237.523 304.791 238.902C304.872 239.016 304.956 239.125 305.037 239.239C306.525 241.324 307.812 243.565 308.897 245.919C308.591 243.303 309.043 240.15 309.815 238.118C310.693 235.803 312.34 233.853 313.79 231.852C315.532 229.448 319.103 230.497 319.41 233.544C319.413 233.574 319.416 233.603 319.419 233.633C319.204 233.766 318.993 233.907 318.787 234.056C317.611 234.905 318.017 236.896 319.41 237.131L319.442 237.136C319.364 237.984 319.231 238.824 319.036 239.65C320.896 247.51 316.88 250.372 311.146 250.501C311.019 250.572 310.896 250.642 310.769 250.71C311.35 252.497 311.814 254.33 312.158 256.188C312.467 257.83 312.681 259.489 312.801 261.156C312.95 263.259 312.937 265.372 312.775 267.471L312.785 267.397C313.197 265.085 314.346 262.925 316.014 261.429C318.5 259.199 322.011 258.377 324.692 256.585C325.983 255.722 327.636 256.837 327.411 258.472L327.4 258.55C327.001 258.727 326.612 258.933 326.235 259.163C326.02 259.296 325.809 259.437 325.603 259.586C324.427 260.435 324.833 262.426 326.226 262.661L326.258 262.667C326.281 262.67 326.3 262.674 326.323 262.677C325.638 264.454 324.684 266.103 323.489 267.524C322.326 274.385 317.33 275.036 311.986 273.038H311.983C311.399 275.818 310.545 278.534 309.448 281.123H300.393C300.36 281.013 300.331 280.899 300.302 280.789C301.139 280.846 301.983 280.793 302.808 280.626C302.136 279.726 301.464 278.818 300.792 277.917C300.776 277.9 300.763 277.882 300.75 277.864C300.409 277.403 300.065 276.946 299.724 276.485L299.724 276.484C299.703 275.069 299.858 273.659 300.166 272.29Z" fill="#F2F2F2"/>
<path d="M0 281.347C0 281.709 0.266351 282 0.598029 282H331.402C331.734 282 332 281.709 332 281.347C332 280.984 331.734 280.693 331.402 280.693H0.598029C0.266351 280.693 0 280.984 0 281.347Z" fill="#CCCCCC"/>
<path d="M99.9957 35.9804H84.4354L81.4025 42.5683L66.5781 50.0057L71.8546 92.5267L67.8344 120.525H118.053L113.564 88.1347L119.594 49.1562L103.011 42.0193L99.9957 35.9804Z" fill="#E6E6E6"/>
<path d="M152.081 139.017C151.402 137.504 151.093 135.949 151.128 134.589L143.83 120.625L150.013 117.026L156.75 131.578C157.756 132.381 158.691 133.601 159.37 135.114C160.92 138.569 160.545 142.244 158.533 143.322C156.52 144.4 153.631 142.472 152.081 139.017Z" fill="#FFB6B6"/>
<path d="M103.976 47.2825C103.976 47.2825 108.899 41.7484 114.422 45.5995C119.945 49.4506 140.092 88.8594 140.092 88.8594L155.634 122.739L144.664 128.322L131.429 95.8798L103.634 63.203L103.976 47.2825Z" fill="#E6E6E6"/>
<path d="M91.5566 32.7692C99.3166 32.7692 105.607 25.8967 105.607 17.4191C105.607 8.94146 99.3166 2.06897 91.5566 2.06897C83.7966 2.06897 77.5059 8.94146 77.5059 17.4191C77.5059 25.8967 83.7966 32.7692 91.5566 32.7692Z" fill="#FFB6B6"/>
<path d="M87.1471 29.773C87.2121 31.2769 87.2446 32.0288 87.0331 32.1197C86.3966 32.3933 78.1991 27.1043 77.2338 23.5836C76.7836 21.9415 77.1638 21.9087 76.8352 17.2371C76.5209 12.769 76.1685 12.7334 76.5851 11.6279C77.0481 10.3993 78.4621 8.8855 81.2901 5.85793C82.3593 4.71319 82.894 4.14081 83.2315 3.84488C84.2544 2.94795 88.065 -0.393391 91.5592 0.0382987C93.0239 0.219252 92.7736 0.858104 98.2452 4.09971C98.7165 4.37892 99.3484 4.74749 100.221 5.17066C102.344 6.19987 103.661 6.46669 104.354 6.7537C108.556 8.49316 107.323 18.1828 106.962 18.2383C106.83 18.2586 106.794 17.0021 106.105 16.8982C105.484 16.8047 105.089 17.7588 104.525 17.7935C102.985 17.8883 104.695 16.2774 100.925 14.4882C99.4596 13.7926 103.538 16.9288 99.6555 16.8779C93.5845 16.7982 97.4673 17.2204 95.1617 18.5435C93.4803 19.5084 86.7163 14.1982 86.9911 15.895C87.185 17.0918 87.9799 17.4364 87.8652 18.7772C87.7541 20.0761 86.8606 21.4761 86.0724 21.5276C85.3459 21.575 84.9478 20.4612 84.7055 20.5678C84.4419 20.6837 84.7314 22.0813 85.2998 23.5172C86.0213 25.3401 86.452 25.3544 86.8326 26.7563C87.0515 27.5627 87.0833 28.2995 87.1471 29.773Z" fill="#2F2E41"/>
<path d="M197.89 134.509L107.357 109.345C101.57 107.737 98.0591 101.284 99.5315 94.9618L110.794 46.6005C112.267 40.2781 118.173 36.443 123.96 38.0516L214.493 63.2157C220.28 64.8243 223.791 71.2768 222.318 77.5992L211.056 125.961C209.583 132.283 203.677 136.118 197.89 134.509Z" fill="white"/>
<path d="M197.89 134.509L107.357 109.345C104.463 108.541 102.139 106.526 100.478 103.854C98.0624 99.9657 97.432 95.0708 98.4926 90.5169L107.937 49.9625C108.998 45.4085 111.693 41.438 115.516 39.2842C118.143 37.8039 121.067 37.2473 123.96 38.0516L214.493 63.2157C220.29 64.8269 223.793 71.2666 222.318 77.5992L211.056 125.961C209.583 132.283 203.677 136.118 197.89 134.509ZM123.712 39.1157C118.454 37.654 119.828 42.857 118.49 48.6019C111.963 76.6305 125.464 105.608 150.053 116.325C163.326 122.11 174.366 126.838 174.366 126.838C192.753 131.949 211.451 119.808 216.13 99.7203L221.344 77.3285C222.682 71.5836 219.504 65.7415 214.245 64.2798L123.712 39.1157Z" fill="#3F3D56"/>
<path d="M166.072 77.2259C165.441 71.5601 160.726 67.5258 155.539 68.215C150.402 68.8977 146.733 73.9589 147.277 79.561L147.127 79.581L149.411 100.099L166.693 97.8021C167.239 97.8344 167.795 97.8184 168.357 97.7437C173.543 97.0544 177.236 91.9027 176.605 86.2369C175.974 80.571 171.258 76.5367 166.072 77.2259Z" fill="#56BDE6"/>
<path d="M132.947 271.05C132.215 268.99 130.092 267.967 128.206 268.767C126.338 269.559 125.403 271.841 126.097 273.887L126.042 273.91L128.693 281.372L134.978 278.707C135.186 278.662 135.393 278.598 135.597 278.512C137.483 277.712 138.419 275.393 137.687 273.333C136.955 271.273 134.833 270.25 132.947 271.05Z" fill="#E6E6E6"/>
<path d="M273.652 271.05C272.92 268.99 270.798 267.967 268.912 268.767C267.044 269.559 266.109 271.841 266.803 273.887L266.748 273.91L269.399 281.372L275.684 278.707C275.891 278.662 276.099 278.598 276.303 278.512C278.189 277.712 279.124 275.393 278.393 273.333C277.661 271.273 275.538 270.25 273.652 271.05Z" fill="#E6E6E6"/>
<path d="M158.651 136.362C165.312 136.362 170.712 130.463 170.712 123.186C170.712 115.909 165.312 110.01 158.651 110.01C151.991 110.01 146.591 115.909 146.591 123.186C146.591 130.463 151.991 136.362 158.651 136.362Z" fill="#56BDE6"/>
<path d="M103.826 69.7512C102.532 70.6671 101.156 71.1878 99.9154 71.3114L88.0919 80.8876L84.0855 74.6079L96.5106 65.57C97.121 64.3835 98.1184 63.2242 99.4125 62.3083C102.369 60.2159 105.753 60.1858 106.972 62.241C108.191 64.2963 106.783 67.6587 103.826 69.7512Z" fill="#FFB6B6"/>
<path d="M76.1336 47.4047C76.1336 47.4047 67.0883 46.3067 65.5807 50.1497C64.0732 53.9926 61.058 92.4221 61.058 92.4221L66.0832 101.755L99.0379 74.5073L92.3643 67.2164L78.2407 74.5073L76.1336 47.4047Z" fill="#E6E6E6"/>
<path d="M207.148 59.8224C208.223 61.0302 209.458 61.8726 210.642 62.295L220.217 74.5073L225.403 69.36L215.132 57.5261C214.779 56.2209 214.043 54.8481 212.968 53.6403C210.512 50.8811 207.219 50.0283 205.612 51.7355C204.004 53.4426 204.692 57.0632 207.148 59.8224Z" fill="#A0616A"/>
<path d="M238.7 44.7747C238.7 44.7747 247.742 45.905 248.429 50.0182C249.115 54.1314 244.22 92.3294 244.22 92.3294L237.419 100.205L210.846 65.624L218.839 60.14L231.121 70.6839L238.7 44.7747Z" fill="#56BDE6"/>
<path d="M116.782 89.1249C120.946 89.1249 124.322 85.4369 124.322 80.8876C124.322 76.3382 120.946 72.6503 116.782 72.6503C112.617 72.6503 109.242 76.3382 109.242 80.8876C109.242 85.4369 112.617 89.1249 116.782 89.1249Z" fill="#E6E6E6"/>
</g>
<defs>
<clipPath id="clip0_800_3778">
<rect width="332" height="282" fill="white"/>
</clipPath>
</defs>
</svg>
