<svg width="332" height="282" viewBox="0 0 332 282" fill="none" xmlns="http://www.w3.org/2000/svg">
<g clip-path="url(#clip0_800_3726)">
<path d="M279.798 270.003C281.106 270.09 281.828 268.359 280.838 267.351L280.74 266.934C280.753 266.901 280.766 266.868 280.779 266.835C281.558 264.852 283.706 263.914 285.57 264.735C291.464 267.331 285.241 273.297 285.709 277.334C285.873 278.728 290.995 278.804 290.706 280.172C293.43 273.826 294.862 266.898 294.86 259.93C294.859 258.18 294.769 256.429 294.584 254.683C294.432 253.255 294.223 251.835 293.953 250.429C292.492 242.826 289.33 235.586 284.771 229.539C282.58 228.264 283.916 226.269 282.812 223.879C282.415 223.017 278.878 222.997 278.73 222.052C278.888 222.074 281.175 219.544 280.42 218.292C279.923 217.469 280.078 216.421 280.716 215.717C280.779 215.648 280.838 215.575 280.892 215.497C282.778 212.77 285.378 213.245 286.737 216.949C289.637 218.507 289.666 221.093 287.888 223.581C286.756 225.163 286.601 227.304 285.609 228.999C285.711 229.138 285.817 229.273 285.92 229.412C287.794 231.972 289.416 234.724 290.783 237.614C290.395 234.401 290.964 230.53 291.935 228.034C293.048 225.17 295.143 222.76 296.978 220.283C299.169 217.324 303.628 218.667 304.016 222.413C304.02 222.449 304.023 222.485 304.027 222.521C303.756 222.684 303.49 222.857 303.23 223.041C301.75 224.084 302.263 226.529 304.017 226.817L304.057 226.823C303.959 227.864 300.493 231.143 300.248 232.157C302.592 241.804 300.838 243.078 293.625 243.239L293.246 243.814C293.93 245.908 294.48 248.052 294.893 250.224C295.282 252.24 295.553 254.278 295.704 256.324C295.893 258.906 295.878 261.502 295.674 264.08L295.686 263.988C296.205 261.149 297.651 258.496 299.751 256.658C302.879 253.918 307.3 252.908 310.676 250.705C312.301 249.644 314.384 251.013 314.101 253.021L314.087 253.117C313.584 253.335 313.094 253.588 312.62 253.871C312.348 254.034 312.082 254.208 311.822 254.391C310.342 255.435 310.855 257.88 312.61 258.167L312.65 258.173C312.678 258.177 312.703 258.182 312.732 258.186C311.87 260.368 303.66 263.446 302.157 265.193C300.695 273.619 301.413 273.368 294.683 270.917H294.679C293.945 274.331 292.871 277.667 291.49 280.847L280.088 280.851C280.047 280.716 280.01 280.576 279.973 280.441C281.028 280.511 282.09 280.445 283.128 280.24C282.282 279.134 281.435 278.02 280.589 276.914C280.569 276.892 280.552 276.87 280.536 276.849L280.523 276.832L279.349 272.714C279.442 271.801 279.593 270.895 279.798 270.003Z" fill="#64748B"/>
<path d="M159.299 280.752L58.3975 280.789C53.3285 280.791 48.7878 278 46.2518 273.324C44.9836 270.985 44.3494 268.42 44.3486 265.854C44.3477 263.289 44.9806 260.723 46.247 258.384L96.6654 160.591C99.1987 155.912 103.738 153.118 108.807 153.117C113.876 153.115 118.416 155.905 120.953 160.582L171.441 258.35C172.706 260.682 173.338 263.244 173.339 265.808C173.339 268.372 172.706 270.938 171.439 273.278C168.906 277.956 164.368 280.75 159.299 280.752ZM45.6169 265.852C45.6167 268.188 56.7508 263.155 57.9043 265.283C60.2116 269.537 53.7853 279.442 58.3971 279.441C58.3971 279.441 168.039 276.86 170.343 272.604C171.495 270.476 172.071 268.141 172.07 265.807C172.07 263.473 171.492 261.139 170.339 259.012L119.85 161.244C117.549 157.002 113.419 154.463 108.807 154.465C104.197 154.467 45.6171 263.517 45.6169 265.852Z" fill="#3F3D56"/>
<path d="M160.419 279.403C159.154 282.1 218.39 281.272 219.091 281.271C219.091 281.271 235.74 280.879 236.09 280.233C236.265 279.91 236.353 279.555 236.352 279.201C236.352 278.847 236.265 278.492 236.089 278.169L228.423 263.323C228.073 262.678 227.446 262.293 226.746 262.293C226.716 262.293 226.673 262.321 226.618 262.374C216.39 272.112 203.786 278.549 190.071 278.767C175.487 278.998 160.499 279.232 160.419 279.403Z" fill="#3F3D56"/>
<path d="M4.73643e-08 281.198C0.000145586 281.643 0.335651 282 0.753304 282L331.247 281.878C331.665 281.878 332 281.521 332 281.076C332 280.631 331.664 280.273 331.247 280.274L0.752785 280.395C0.335132 280.396 -0.000145492 280.753 4.73643e-08 281.198Z" fill="#CCCCCC"/>
<path d="M255.565 277.304L249.842 277.305L247.112 253.785L255.559 253.783L255.565 277.304Z" fill="#A0616A"/>
<path d="M235.956 277.173C235.778 277.493 235.685 278.525 235.685 278.897C235.685 280.04 236.555 280.966 237.628 280.966L255.352 280.959C256.084 280.959 256.677 280.326 256.677 279.547L256.677 278.76C256.677 278.76 257.553 276.397 255.747 273.485C255.747 273.485 253.504 275.766 250.15 272.196L249.161 270.288L242.006 275.867L238.04 276.389C237.172 276.503 236.402 276.371 235.956 277.173Z" fill="#2F2E41"/>
<path d="M233.62 257.187L228.199 259.141L218.542 237.792L226.544 234.907L233.62 257.187Z" fill="#A0616A"/>
<path d="M215.005 263.754C214.932 264.118 215.154 265.128 215.265 265.48C215.609 266.562 216.712 267.143 217.728 266.777L234.517 260.722C235.21 260.472 235.582 259.671 235.347 258.932L235.111 258.187C235.111 258.187 235.23 255.65 232.644 253.507C232.644 253.507 231.205 256.434 226.955 254.196L225.444 252.726L220.343 260.452L216.743 262.3C215.955 262.704 215.186 262.843 215.005 263.754Z" fill="#2F2E41"/>
<path d="M224.779 120.743L213.678 159.915L200.573 195.15L221.321 245.468L229.014 241.822L219.809 195.598L239.113 164.232L248.122 262.148L255.816 261.69L266.25 143.5L267.738 117.767L224.779 120.743Z" fill="#2F2E41"/>
<path d="M258.306 33.9698L242.064 37.1639L240.784 44.9068L230.955 49.9203L225.844 106.852C225.844 106.852 217.298 118.696 224.139 122.337L267.738 117.767C267.738 117.767 269.872 109.346 267.735 108.547C265.597 107.748 265.591 87.6336 265.591 87.6336L275.409 46.2604L260.873 40.8005L258.306 33.9698Z" fill="#E6E6E6"/>
<path d="M248.726 33.8204C255.97 33.8204 261.842 27.5638 261.842 19.8458C261.842 12.1278 255.97 5.87115 248.726 5.87115C241.483 5.87115 235.61 12.1278 235.61 19.8458C235.61 27.5638 241.483 33.8204 248.726 33.8204Z" fill="#A0616A"/>
<path d="M257.412 21.9199C256.365 22.5304 257.358 25.4451 256.704 25.6971C255.948 25.9884 253.191 22.6449 253.157 18.8999C253.147 17.7665 253.391 17.2222 253.156 15.8784C252.848 14.1205 251.903 12.0472 251.028 12.1022C250.509 12.1349 250.003 12.9162 249.965 13.6134C249.912 14.5906 250.803 14.9752 250.675 15.5016C250.43 16.5042 246.689 17.1964 245.357 15.5036C244.313 14.1764 245.114 11.8462 244.647 11.7269C244.303 11.639 243.934 12.9219 242.521 14.3715C241.989 14.9177 241.197 15.73 240.749 15.5053C240.101 15.1805 240.572 12.8919 240.394 12.8616C240.246 12.8364 240.153 14.4451 239.331 15.8835C238.275 17.7315 236.095 19.1559 235.078 18.5289C234.455 18.1448 234.406 17.0753 234.368 16.263C234.29 14.5518 231.956 10.6156 232.559 8.78498C233.788 5.05912 235.894 7.6855 236.847 6.44209C238.136 4.75881 239.293 5.66383 241.454 3.79654C243.565 1.97239 243.584 0.138955 244.998 0.0182993C246.271 -0.0903555 246.724 1.35678 248.188 1.1502C249.429 0.975197 249.699 -0.147211 250.669 0.0162025C251.558 0.165808 251.616 1.15459 252.797 1.52619C253.551 1.76343 253.716 1.42005 254.569 1.52554C256.345 1.74503 257.537 3.4678 257.76 3.79052C258.622 5.0346 258.287 5.55923 259.179 6.81153C259.948 7.89147 261.653 7.43288 262.294 7.97226C264.388 9.73469 265.288 12.9849 265.306 16.6895C265.318 19.2805 265.001 20.5896 264.294 23.8601C263.757 26.3434 261.268 29.5526 259.896 30.9836C259.528 31.3678 258.496 32.4446 257.77 32.1175C257.082 31.8075 257.061 30.4133 257.06 30.2293C257.057 29.5962 257.215 28.8129 258.477 26.8295C259.802 24.7462 260.329 24.5084 260.248 23.8073C260.106 22.568 258.246 21.4333 257.412 21.9199Z" fill="#2F2E41"/>
<path d="M211.661 152.208C211.253 155.851 212.686 159.028 214.861 159.305C217.037 159.581 219.131 156.853 219.539 153.21C219.718 151.616 219.544 150.111 219.109 148.899L220.657 133.442L213.834 132.822L213.032 148.126C212.342 149.194 211.84 150.614 211.661 152.208Z" fill="#A0616A"/>
<path d="M231.275 49.5524C231.275 49.5524 227.74 49.606 225.399 54.4767C224.155 57.065 217.501 105.465 217.501 105.465L211.371 145.114L221.813 145.17L229.95 107.622L236.795 85.8443L231.275 49.5524Z" fill="#E6E6E6"/>
<path d="M260.66 146.39C259.66 149.9 260.549 153.296 262.646 153.974C264.742 154.652 267.253 152.356 268.252 148.845C268.69 147.309 268.766 145.794 268.537 144.52L272.599 129.59L265.982 127.708L262.68 142.626C261.825 143.55 261.098 144.854 260.66 146.39Z" fill="#A0616A"/>
<path d="M267.928 46.9463C267.928 46.9463 273.056 42.8454 277.333 49.22C281.61 55.5946 283.337 107.969 283.337 107.969L271.378 140.31L262.401 137.125L270.937 97.4988L255.966 67.4454L267.928 46.9463Z" fill="#E6E6E6"/>
<path d="M138.249 259.185C163.761 259.185 184.442 237.15 184.442 209.968C184.442 182.787 163.761 160.751 138.249 160.751C112.738 160.751 92.0564 182.787 92.0564 209.968C92.0564 237.15 112.738 259.185 138.249 259.185Z" fill="#F97C21"/>
<path d="M138.258 240.139C140.6 240.139 142.499 238.116 142.499 235.62C142.499 233.124 140.6 231.101 138.258 231.101C135.915 231.101 134.016 233.124 134.016 235.62C134.016 238.116 135.915 240.139 138.258 240.139Z" fill="white"/>
<path d="M138.239 179.798C137.85 182.556 138.548 183.133 138.552 195.025C138.556 206.916 140.871 222.86 138.253 222.861C135.635 222.862 134.678 189.958 125.587 187.045C114.899 183.622 139.501 170.869 138.239 179.798Z" fill="white"/>
<path d="M76.2518 235.096L72.0784 244.492C77.1238 240.637 85.0043 237.314 91.2754 235.534C85.4323 232.527 78.2825 227.679 74.011 222.878L76.4114 232.805C48.2692 226.698 28.0599 203.696 28.0513 177.346L27.0348 176.973C27.0437 204.496 46.9735 228.861 76.2518 235.096Z" fill="#3F3D56"/>
</g>
<defs>
<clipPath id="clip0_800_3726">
<rect width="332" height="282" fill="white"/>
</clipPath>
</defs>
</svg>
