<svg width="16" height="16" viewBox="0 0 16 16" fill="none" xmlns="http://www.w3.org/2000/svg">
<path d="M4.33331 5.40659C3.73998 5.40659 3.25998 4.92659 3.25998 4.33325C3.25998 4.04859 3.37306 3.77558 3.57435 3.57429C3.77564 3.373 4.04865 3.25992 4.33331 3.25992C4.92665 3.25992 5.40665 3.73992 5.40665 4.33325C5.40665 4.61792 5.29356 4.89092 5.09227 5.09221C4.89099 5.2935 4.61798 5.40659 4.33331 5.40659ZM4.33331 1.33325C2.66665 1.33325 1.33331 2.66659 1.33331 4.33325C1.33331 6.57992 4.33331 9.90659 4.33331 9.90659C4.33331 9.90659 7.33331 6.57992 7.33331 4.33325C7.33331 2.66659 5.99998 1.33325 4.33331 1.33325ZM11.6666 5.40659C11.382 5.40659 11.109 5.2935 10.9077 5.09221C10.7064 4.89092 10.5933 4.61792 10.5933 4.33325C10.5933 4.1923 10.6211 4.05273 10.675 3.92251C10.729 3.79228 10.808 3.67396 10.9077 3.57429C11.0074 3.47462 11.1257 3.39556 11.2559 3.34162C11.3861 3.28768 11.5257 3.25992 11.6666 3.25992C11.8076 3.25992 11.9472 3.28768 12.0774 3.34162C12.2076 3.39556 12.3259 3.47462 12.4256 3.57429C12.5253 3.67396 12.6043 3.79228 12.6583 3.92251C12.7122 4.05273 12.74 4.1923 12.74 4.33325C12.74 4.61792 12.6269 4.89092 12.4256 5.09221C12.2243 5.2935 11.9513 5.40659 11.6666 5.40659ZM11.6666 1.33325C9.99998 1.33325 8.66665 2.66659 8.66665 4.33325C8.66665 6.57992 11.6666 9.90659 11.6666 9.90659C11.6666 9.90659 14.6666 6.57992 14.6666 4.33325C14.6666 2.66659 13.3333 1.33325 11.6666 1.33325ZM11.6666 10.6666C10.82 10.6666 10.0666 11.1999 9.78665 11.9999H6.21331C6.03666 11.501 5.66942 11.0924 5.19207 10.8637C4.71471 10.635 4.16617 10.6049 3.66665 10.7799C3.41837 10.8669 3.18967 11.002 2.99363 11.1774C2.79758 11.3529 2.63804 11.5652 2.52412 11.8024C2.41019 12.0395 2.34413 12.2967 2.32969 12.5594C2.31525 12.8221 2.35273 13.0851 2.43998 13.3333C2.61902 13.8335 2.98874 14.2426 3.46839 14.4712C3.94804 14.6998 4.49865 14.7293 4.99998 14.5533C5.56665 14.3533 5.99998 13.8999 6.21331 13.3333H9.79331C10.16 14.3733 11.3066 14.9199 12.3333 14.5533C12.5823 14.4671 12.8119 14.3327 13.0088 14.1576C13.2057 13.9825 13.3661 13.7702 13.4807 13.5329C13.5953 13.2957 13.6619 13.0381 13.6766 12.775C13.6914 12.5119 13.654 12.2485 13.5666 11.9999C13.28 11.1999 12.52 10.6666 11.6666 10.6666ZM11.6666 13.6666C11.4014 13.6666 11.1471 13.5612 10.9595 13.3737C10.772 13.1862 10.6666 12.9318 10.6666 12.6666C10.6666 12.4014 10.772 12.147 10.9595 11.9595C11.1471 11.7719 11.4014 11.6666 11.6666 11.6666C11.9319 11.6666 12.1862 11.7719 12.3738 11.9595C12.5613 12.147 12.6666 12.4014 12.6666 12.6666C12.6666 12.9318 12.5613 13.1862 12.3738 13.3737C12.1862 13.5612 11.9319 13.6666 11.6666 13.6666Z" fill="#DF2334"/>
</svg>
