<svg width="16" height="16" viewBox="0 0 16 16" fill="none" xmlns="http://www.w3.org/2000/svg">
<g clip-path="url(#clip0_650_3097)">
<path fill-rule="evenodd" clip-rule="evenodd" d="M11.702 10.7373C11.848 10.6642 12.0157 10.6473 12.1734 10.6897C12.331 10.7321 12.4676 10.8308 12.5573 10.9673L12.596 11.0353L13.9293 13.7019C13.9769 13.797 14.001 13.9021 13.9997 14.0084C13.9984 14.1148 13.9716 14.2192 13.9217 14.3131C13.8718 14.407 13.8002 14.4876 13.7128 14.5482C13.6254 14.6087 13.5247 14.6475 13.4193 14.6613L13.3333 14.6666H2.66664C2.56028 14.6666 2.45547 14.6412 2.36094 14.5925C2.2664 14.5437 2.18491 14.4731 2.12324 14.3864C2.06158 14.2998 2.02155 14.1996 2.00648 14.0944C1.99141 13.9891 2.00175 13.8817 2.03664 13.7813L2.06997 13.7013L3.4033 11.0346C3.47804 10.8801 3.60945 10.7604 3.77021 10.7004C3.93096 10.6403 4.10868 10.6446 4.26636 10.7123C4.42405 10.78 4.54957 10.9059 4.6168 11.0637C4.68403 11.2216 4.68779 11.3993 4.6273 11.5599L4.59597 11.6313L3.7453 13.3333H12.2546L11.404 11.6313C11.325 11.4732 11.3121 11.2902 11.3679 11.1226C11.4238 10.9549 11.544 10.8164 11.702 10.7373ZM7.99997 1.33325C9.23765 1.33325 10.4246 1.82492 11.2998 2.70009C12.175 3.57526 12.6666 4.76224 12.6666 5.99992C12.6666 7.58792 11.8073 8.87792 10.918 9.79325C10.4267 10.2922 9.88667 10.7407 9.30597 11.1319L9.0573 11.2959L8.83597 11.4353C8.8013 11.4559 8.76797 11.4753 8.73664 11.4953L8.5653 11.5939C8.2133 11.7939 7.78664 11.7939 7.43464 11.5939L7.2633 11.4946L7.05664 11.3686C7.01849 11.3446 6.98049 11.3204 6.94264 11.2959L6.69397 11.1319C6.11327 10.7407 5.57323 10.2922 5.08197 9.79325C4.19264 8.87792 3.3333 7.58792 3.3333 5.99992C3.3333 4.76224 3.82497 3.57526 4.70014 2.70009C5.57531 1.82492 6.76229 1.33325 7.99997 1.33325ZM7.99997 2.66659C7.11592 2.66659 6.26807 3.01777 5.64295 3.6429C5.01783 4.26802 4.66664 5.11586 4.66664 5.99992C4.66664 7.09059 5.25997 8.06325 6.03797 8.86392C6.50565 9.33691 7.02284 9.75822 7.58064 10.1206L7.8073 10.2653C7.8773 10.3086 7.94197 10.3473 7.99997 10.3813L8.1933 10.2653L8.4193 10.1206C8.9771 9.75822 9.4943 9.33691 9.96197 8.86392C10.74 8.06392 11.3333 7.09059 11.3333 5.99992C11.3333 5.11586 10.9821 4.26802 10.357 3.6429C9.73187 3.01777 8.88403 2.66659 7.99997 2.66659ZM7.99997 3.99992C8.5304 3.99992 9.03911 4.21063 9.41418 4.58571C9.78926 4.96078 9.99997 5.46949 9.99997 5.99992C9.99997 6.53035 9.78926 7.03906 9.41418 7.41413C9.03911 7.78921 8.5304 7.99992 7.99997 7.99992C7.46954 7.99992 6.96083 7.78921 6.58576 7.41413C6.21068 7.03906 5.99997 6.53035 5.99997 5.99992C5.99997 5.46949 6.21068 4.96078 6.58576 4.58571C6.96083 4.21063 7.46954 3.99992 7.99997 3.99992ZM7.99997 5.33325C7.82316 5.33325 7.65359 5.40349 7.52857 5.52851C7.40354 5.65354 7.3333 5.82311 7.3333 5.99992C7.3333 6.17673 7.40354 6.3463 7.52857 6.47132C7.65359 6.59635 7.82316 6.66659 7.99997 6.66659C8.17678 6.66659 8.34635 6.59635 8.47138 6.47132C8.5964 6.3463 8.66664 6.17673 8.66664 5.99992C8.66664 5.82311 8.5964 5.65354 8.47138 5.52851C8.34635 5.40349 8.17678 5.33325 7.99997 5.33325Z" fill="#DF2334"/>
</g>
<defs>
<clipPath id="clip0_650_3097">
<rect width="16" height="16" fill="white"/>
</clipPath>
</defs>
</svg>
