<svg width="16" height="16" viewBox="0 0 16 16" fill="none" xmlns="http://www.w3.org/2000/svg">
<path d="M7.99331 1.33325C4.31331 1.33325 1.33331 4.31992 1.33331 7.99992C1.33331 11.6799 4.31331 14.6666 7.99331 14.6666C11.68 14.6666 14.6666 11.6799 14.6666 7.99992C14.6666 4.31992 11.68 1.33325 7.99331 1.33325ZM7.99998 13.3333C5.05331 13.3333 2.66665 10.9466 2.66665 7.99992C2.66665 5.05325 5.05331 2.66659 7.99998 2.66659C10.9466 2.66659 13.3333 5.05325 13.3333 7.99992C13.3333 10.9466 10.9466 13.3333 7.99998 13.3333Z" fill="#DF2334"/>
<path d="M8.33331 4.66675H7.33331V8.66675L10.8333 10.7667L11.3333 9.94675L8.33331 8.16675V4.66675Z" fill="#DF2334"/>
</svg>
