<svg width="18" height="18" viewBox="0 0 18 18" fill="none" xmlns="http://www.w3.org/2000/svg">
<g clip-path="url(#clip0_943_5707)">
<path d="M9.07646 7.2C7.04333 7.16853 5.49023 5.53413 5.47647 3.6C5.51006 1.58501 7.15701 0.01413 9.07646 0C11.1114 0.07695 12.662 1.63455 12.6765 3.6C12.6365 5.61658 10.9979 7.18635 9.07646 7.2ZM11.9871 7.94682C14.546 7.97669 15.8435 10.2213 15.8553 12.4659V18H13.3468L13.3468 13.1362C13.2857 12.7999 13.058 12.6859 12.8493 12.7189C12.654 12.7498 12.4754 12.9094 12.4659 13.1362V18H5.49588V13.1362C5.44253 12.8162 5.23896 12.6931 5.04092 12.7056C4.82885 12.7189 4.62312 12.8876 4.61502 13.1362V18H2.14482V12.4659C2.13012 10.0737 3.64334 7.96455 6.03188 7.94682H11.9871Z" fill="#DF2334"/>
</g>
<defs>
<clipPath id="clip0_943_5707">
<rect width="18" height="18" fill="white"/>
</clipPath>
</defs>
</svg>
