<svg width="26" height="26" viewBox="0 0 26 26" fill="none" xmlns="http://www.w3.org/2000/svg">
<path d="M7.58335 2.1665C8.77502 2.1665 9.75002 3.1415 9.75002 4.33317C9.75002 5.52484 8.77502 6.49984 7.58335 6.49984C6.39169 6.49984 5.41669 5.52484 5.41669 4.33317C5.41669 3.1415 6.39169 2.1665 7.58335 2.1665ZM17.3334 10.2915C17.3334 11.1907 18.0592 11.9165 18.9584 11.9165C19.8575 11.9165 20.5834 11.1907 20.5834 10.2915C20.5834 9.39234 19.8575 8.6665 18.9584 8.6665C18.0592 8.6665 17.3334 9.39234 17.3334 10.2915ZM20.5834 12.9998H17.5067C16.8784 13.0107 16.2717 13.3465 15.9359 13.9315L14.9392 15.3615L11.0717 8.6665C10.6709 7.984 9.95585 7.594 9.21919 7.58317H5.95835C4.76669 7.58317 3.79169 8.55817 3.79169 9.74984V16.2498H5.41669V23.8332H10.8334V12.5773L13.5742 17.3332H15.9575L16.7917 16.1415V23.8332H21.125V18.4165H22.2084V14.6248C22.2084 13.7365 21.4825 12.9998 20.5834 12.9998Z" fill="#DF2334"/>
</svg>
