<svg width="26" height="29" viewBox="0 0 26 29" fill="none" xmlns="http://www.w3.org/2000/svg">
<path d="M13.5417 6.33328C14.7334 6.33328 15.7084 5.24755 15.7084 3.92055C15.7084 2.59354 14.7334 1.50781 13.5417 1.50781C12.35 1.50781 11.375 2.59354 11.375 3.92055C11.375 5.24755 12.35 6.33328 13.5417 6.33328ZM20.5834 14.7778V27.4447H19.5V14.7778C19.5 14.4401 19.2617 14.1747 18.9584 14.1747C18.655 14.1747 18.4167 14.4401 18.4167 14.7778V15.9842H17.3334V15.1518C15.7517 14.6934 14.4084 13.5956 13.5309 12.1118C13.195 13.1613 13 14.2591 13 15.381C13 15.6585 13.0217 15.936 13.0325 16.2134L15.1667 19.6033V27.4447H13V21.4129L11.0717 18.3487L10.8334 22.6192L7.58335 27.4447L5.85002 25.9971L8.66669 21.811V15.381C8.66669 13.9937 8.86169 12.6185 9.20835 11.2914L7.58335 12.3169V16.5874H5.41669V10.9175L11.2667 7.21393V7.22599C11.9059 6.85202 12.6967 6.82789 13.3684 7.26218C13.7584 7.51552 14.0509 7.87743 14.235 8.28759L15.0909 10.3022C15.795 11.8826 17.2684 12.9683 18.9584 12.9683C19.8575 12.9683 20.5834 13.7766 20.5834 14.7778Z" fill="#EC2D2E"/>
</svg>
