<svg width="16" height="16" viewBox="0 0 16 16" fill="none" xmlns="http://www.w3.org/2000/svg">
<path d="M8.00002 2.66732C9.46669 2.66732 10.6667 3.86732 10.6667 5.33398C10.6667 6.73398 9.26669 9.00065 8.00002 10.6007C6.73335 8.93398 5.33335 6.73398 5.33335 5.33398C5.33335 3.86732 6.53335 2.66732 8.00002 2.66732ZM8.00002 1.33398C5.80002 1.33398 4.00002 3.13398 4.00002 5.33398C4.00002 8.33398 8.00002 12.6673 8.00002 12.6673C8.00002 12.6673 12 8.26732 12 5.33398C12 3.13398 10.2 1.33398 8.00002 1.33398ZM8.00002 4.00065C7.26669 4.00065 6.66669 4.60065 6.66669 5.33398C6.66669 6.06732 7.26669 6.66732 8.00002 6.66732C8.73335 6.66732 9.33335 6.06732 9.33335 5.33398C9.33335 4.60065 8.73335 4.00065 8.00002 4.00065ZM13.3334 12.6673C13.3334 14.134 10.9334 15.334 8.00002 15.334C5.06669 15.334 2.66669 14.134 2.66669 12.6673C2.66669 11.8007 3.46669 11.0673 4.73335 10.534L5.13335 11.134C4.46669 11.4673 4.00002 11.8673 4.00002 12.334C4.00002 13.2673 5.80002 14.0007 8.00002 14.0007C10.2 14.0007 12 13.2673 12 12.334C12 11.8673 11.5334 11.4673 10.8 11.134L11.2 10.534C12.5334 11.0673 13.3334 11.8007 13.3334 12.6673Z" fill="#111111"/>
</svg>
